Roman_opsz7_wght700.ufo
<glyph name="exclam" format="2">
	<unicode hex="0021"/>
	<advance width="397"/>
	<outline>
		<contour>
			<point x="199" y="231" type="curve" smooth="yes"/>
			<point x="227" y="231"/>
			<point x="228" y="236"/>
			<point x="231" y="258" type="curve" smooth="yes"/>
			<point x="278" y="611"/>
			<point x="280" y="626"/>
			<point x="280" y="631" type="curve"/>
			<point x="280" y="680"/>
			<point x="236" y="706"/>
			<point x="199" y="706" type="curve" smooth="yes"/>
			<point x="158" y="706"/>
			<point x="117" y="678"/>
			<point x="117" y="631" type="curve"/>
			<point x="117" y="626"/>
			<point x="118.93446" y="611.99153"/>
			<point x="166" y="259" type="curve" smooth="yes"/>
			<point x="169" y="235"/>
			<point x="170" y="231"/>
		</contour>
		<contour>
			<point x="198" y="0" type="curve" smooth="yes"/>
			<point x="246" y="0"/>
			<point x="280" y="39"/>
			<point x="280" y="81" type="curve" smooth="yes"/>
			<point x="280" y="129"/>
			<point x="241" y="163"/>
			<point x="199" y="163" type="curve" smooth="yes"/>
			<point x="151" y="163"/>
			<point x="117" y="124"/>
			<point x="117" y="82" type="curve" smooth="yes"/>
			<point x="117" y="34"/>
			<point x="156" y="0"/>
		</contour>
	</outline>
</glyph>
<glyph name="numbersign" format="2">
	<unicode hex="0023"/>
	<advance width="2146"/>
	<outline>
		<contour>
			<point x="508" y="-388" type="curve" smooth="yes"/>
			<point x="560" y="-388"/>
			<point x="576" y="-340"/>
			<point x="582" y="-324" type="curve" smooth="yes"/>
			<point x="754" y="178" type="line"/>
			<point x="1166" y="178" type="line"/>
			<point x="1122" y="51"/>
			<point x="1078" y="-75"/>
			<point x="1034" y="-202" type="curve" smooth="yes"/>
			<point x="1022" y="-240"/>
			<point x="1000" y="-304"/>
			<point x="1000" y="-316" type="curve" smooth="yes"/>
			<point x="1000" y="-352"/>
			<point x="1028" y="-388"/>
			<point x="1074" y="-388" type="curve" smooth="yes"/>
			<point x="1126" y="-388"/>
			<point x="1142" y="-340"/>
			<point x="1148" y="-324" type="curve" smooth="yes"/>
			<point x="1320" y="178" type="line"/>
			<point x="1890" y="178" type="line" smooth="yes"/>
			<point x="1918" y="178"/>
			<point x="1994" y="178"/>
			<point x="1994" y="252" type="curve" smooth="yes"/>
			<point x="1994" y="324"/>
			<point x="1924" y="324"/>
			<point x="1902" y="324" type="curve" smooth="yes"/>
			<point x="1372" y="324" type="line"/>
			<point x="1494" y="678" type="line"/>
			<point x="1902" y="678" type="line" smooth="yes"/>
			<point x="1924" y="678"/>
			<point x="1994" y="678"/>
			<point x="1994" y="750" type="curve" smooth="yes"/>
			<point x="1994" y="824"/>
			<point x="1918" y="824"/>
			<point x="1890" y="824" type="curve" smooth="yes"/>
			<point x="1546" y="824" type="line"/>
			<point x="1700" y="1272" type="line" smooth="yes"/>
			<point x="1710" y="1300"/>
			<point x="1710" y="1310"/>
			<point x="1710" y="1316" type="curve" smooth="yes"/>
			<point x="1710" y="1352"/>
			<point x="1682" y="1388"/>
			<point x="1636" y="1388" type="curve" smooth="yes"/>
			<point x="1586" y="1388"/>
			<point x="1568" y="1342"/>
			<point x="1562" y="1324" type="curve" smooth="yes"/>
			<point x="1392" y="824" type="line"/>
			<point x="980" y="824" type="line"/>
			<point x="1134" y="1272" type="line" smooth="yes"/>
			<point x="1144" y="1300"/>
			<point x="1144" y="1310"/>
			<point x="1144" y="1316" type="curve" smooth="yes"/>
			<point x="1144" y="1352"/>
			<point x="1116" y="1388"/>
			<point x="1070" y="1388" type="curve" smooth="yes"/>
			<point x="1020" y="1388"/>
			<point x="1002" y="1342"/>
			<point x="996" y="1324" type="curve" smooth="yes"/>
			<point x="826" y="824" type="line"/>
			<point x="254" y="824" type="line" smooth="yes"/>
			<point x="226" y="824"/>
			<point x="150" y="824"/>
			<point x="150" y="750" type="curve" smooth="yes"/>
			<point x="150" y="678"/>
			<point x="220" y="678"/>
			<point x="242" y="678" type="curve" smooth="yes"/>
			<point x="774" y="678" type="line"/>
			<point x="652" y="324" type="line"/>
			<point x="242" y="324" type="line" smooth="yes"/>
			<point x="220" y="324"/>
			<point x="150" y="324"/>
			<point x="150" y="252" type="curve" smooth="yes"/>
			<point x="150" y="178"/>
			<point x="226" y="178"/>
			<point x="254" y="178" type="curve" smooth="yes"/>
			<point x="600" y="178" type="line"/>
			<point x="556" y="51"/>
			<point x="512" y="-75"/>
			<point x="468" y="-202" type="curve" smooth="yes"/>
			<point x="456" y="-240"/>
			<point x="434" y="-304"/>
			<point x="434" y="-316" type="curve" smooth="yes"/>
			<point x="434" y="-352"/>
			<point x="462" y="-388"/>
		</contour>
		<contour>
			<point x="806" y="324" type="line"/>
			<point x="928" y="678" type="line"/>
			<point x="1340" y="678" type="line"/>
			<point x="1218" y="324" type="line"/>
		</contour>
	</outline>
</glyph>
<glyph name="dollar" format="2">
	<unicode hex="0024"/>
	<advance width="1294"/>
	<outline>
		<contour>
			<point x="590" y="-112" type="line"/>
			<point x="702" y="-112" type="line"/>
			<point x="702" y="-10" type="line"/>
			<point x="1046" y="20"/>
			<point x="1142" y="258"/>
			<point x="1142" y="424" type="curve" smooth="yes"/>
			<point x="1142" y="501"/>
			<point x="1116" y="619"/>
			<point x="1020" y="715" type="curve" smooth="yes"/>
			<point x="953" y="782"/>
			<point x="852" y="839"/>
			<point x="702" y="864" type="curve"/>
			<point x="702" y="1286" type="line"/>
			<point x="764" y="1282"/>
			<point x="904" y="1266"/>
			<point x="974" y="1172" type="curve"/>
			<point x="974" y="1172"/>
			<point x="974" y="1172"/>
			<point x="974" y="1172" type="curve"/>
			<point x="972" y="1172"/>
			<point x="864" y="1146"/>
			<point x="864" y="1032" type="curve" smooth="yes"/>
			<point x="864" y="948"/>
			<point x="928" y="894"/>
			<point x="1002" y="894" type="curve" smooth="yes"/>
			<point x="1060" y="894"/>
			<point x="1142" y="930"/>
			<point x="1142" y="1040" type="curve" smooth="yes"/>
			<point x="1142" y="1220"/>
			<point x="1016" y="1382"/>
			<point x="702" y="1398" type="curve"/>
			<point x="702" y="1500" type="line"/>
			<point x="590" y="1500" type="line"/>
			<point x="590" y="1398" type="line"/>
			<point x="250" y="1372"/>
			<point x="150" y="1152"/>
			<point x="150" y="990" type="curve" smooth="yes"/>
			<point x="150" y="830"/>
			<point x="256" y="732"/>
			<point x="280" y="710" type="curve" smooth="yes"/>
			<point x="386" y="620"/>
			<point x="478" y="602"/>
			<point x="590" y="578" type="curve"/>
			<point x="590" y="102" type="line"/>
			<point x="496" y="110"/>
			<point x="370" y="142"/>
			<point x="310" y="246" type="curve"/>
			<point x="310" y="246"/>
			<point x="310" y="246"/>
			<point x="310" y="246" type="curve"/>
			<point x="420" y="266"/>
			<point x="428" y="356"/>
			<point x="428" y="382" type="curve" smooth="yes"/>
			<point x="428" y="474"/>
			<point x="358" y="522"/>
			<point x="290" y="522" type="curve" smooth="yes"/>
			<point x="234" y="522"/>
			<point x="150" y="488"/>
			<point x="150" y="376" type="curve" smooth="yes"/>
			<point x="150" y="188"/>
			<point x="276" y="10"/>
			<point x="590" y="-10" type="curve"/>
		</contour>
		<contour>
			<point x="590" y="886" type="line"/>
			<point x="422" y="916"/>
			<point x="328" y="986"/>
			<point x="328" y="1088" type="curve" smooth="yes"/>
			<point x="328" y="1156"/>
			<point x="380" y="1268"/>
			<point x="590" y="1286" type="curve"/>
		</contour>
		<contour>
			<point x="702" y="102" type="curve"/>
			<point x="702" y="253"/>
			<point x="702" y="404"/>
			<point x="702" y="556" type="curve"/>
			<point x="866" y="532"/>
			<point x="964" y="438"/>
			<point x="964" y="328" type="curve" smooth="yes"/>
			<point x="964" y="210"/>
			<point x="866" y="116"/>
		</contour>
	</outline>
</glyph>
<glyph name="percent" format="2">
  <advance width="1073"/>
  <unicode hex="0025"/>
  <outline>
    <contour>
      <point x="877" y="684" type="line" smooth="yes"/>
      <point x="890" y="699"/>
      <point x="890" y="710"/>
      <point x="890" y="713" type="curve" smooth="yes"/>
      <point x="890" y="736"/>
      <point x="872" y="750"/>
      <point x="854" y="750" type="curve" smooth="yes"/>
      <point x="838" y="750"/>
      <point x="830" y="741"/>
      <point x="822" y="734" type="curve"/>
      <point x="801" y="711"/>
      <point x="736" y="642"/>
      <point x="605" y="642" type="curve" smooth="yes"/>
      <point x="565" y="642"/>
      <point x="469" y="650"/>
      <point x="364" y="716" type="curve" smooth="yes"/>
      <point x="334" y="735"/>
      <point x="310" y="750"/>
      <point x="264" y="750" type="curve" smooth="yes"/>
      <point x="160" y="750"/>
      <point x="75" y="678"/>
      <point x="75" y="549" type="curve" smooth="yes"/>
      <point x="75" y="414"/>
      <point x="164" y="347"/>
      <point x="264" y="347" type="curve" smooth="yes"/>
      <point x="354" y="347"/>
      <point x="429" y="416"/>
      <point x="429" y="548" type="curve" smooth="yes"/>
      <point x="429" y="573"/>
      <point x="428" y="600"/>
      <point x="415" y="638" type="curve"/>
      <point x="458" y="621"/>
      <point x="524" y="597"/>
      <point x="607" y="597" type="curve" smooth="yes"/>
      <point x="662" y="597"/>
      <point x="704" y="609"/>
      <point x="719" y="614" type="curve"/>
      <point x="719" y="614" type="line"/>
      <point x="195" y="10" type="line" smooth="yes"/>
      <point x="183" y="-4"/>
      <point x="182" y="-14"/>
      <point x="182" y="-19" type="curve" smooth="yes"/>
      <point x="182" y="-40"/>
      <point x="199" y="-56"/>
      <point x="219" y="-56" type="curve" smooth="yes"/>
      <point x="235" y="-56"/>
      <point x="245" y="-45"/>
      <point x="250" y="-39" type="curve" smooth="yes"/>
    </contour>
    <contour>
      <point x="266" y="393" type="curve" smooth="yes"/>
      <point x="191" y="393"/>
      <point x="191" y="486"/>
      <point x="191" y="549" type="curve" smooth="yes"/>
      <point x="191" y="611"/>
      <point x="191" y="704"/>
      <point x="266" y="704" type="curve" smooth="yes"/>
      <point x="314" y="704"/>
      <point x="366" y="662"/>
      <point x="366" y="549" type="curve" smooth="yes"/>
      <point x="366" y="430"/>
      <point x="310" y="393"/>
    </contour>
    <contour>
      <point x="834" y="-10" type="curve" smooth="yes"/>
      <point x="759" y="-10"/>
      <point x="759" y="83"/>
      <point x="759" y="146" type="curve" smooth="yes"/>
      <point x="759" y="208"/>
      <point x="759" y="301"/>
      <point x="834" y="301" type="curve" smooth="yes"/>
      <point x="882" y="301"/>
      <point x="934" y="259"/>
      <point x="934" y="146" type="curve" smooth="yes"/>
      <point x="934" y="27"/>
      <point x="878" y="-10"/>
    </contour>
    <contour>
      <point x="997" y="145" type="curve" smooth="yes"/>
      <point x="997" y="282"/>
      <point x="919" y="347"/>
      <point x="832" y="347" type="curve" smooth="yes"/>
      <point x="728" y="347"/>
      <point x="643" y="275"/>
      <point x="643" y="146" type="curve" smooth="yes"/>
      <point x="643" y="11"/>
      <point x="732" y="-56"/>
      <point x="832" y="-56" type="curve" smooth="yes"/>
      <point x="922" y="-56"/>
      <point x="997" y="13"/>
    </contour>
  </outline>
</glyph>
<glyph name="ampersand" format="2">
	<unicode hex="0026"/>
	<advance width="2004"/>
	<outline>
		<contour>
			<point x="1662" y="880" type="curve" smooth="yes"/>
			<point x="1574" y="880"/>
			<point x="1416" y="888"/>
			<point x="1402" y="888" type="curve"/>
			<point x="1402" y="776" type="line"/>
			<point x="1484" y="776"/>
			<point x="1494" y="772"/>
			<point x="1530" y="762" type="curve"/>
			<point x="1530" y="762"/>
			<point x="1530" y="762"/>
			<point x="1530" y="762" type="curve"/>
			<point x="1406" y="608"/>
			<point x="1306" y="450"/>
			<point x="1102" y="286" type="curve"/>
			<point x="1066" y="318"/>
			<point x="838" y="526"/>
			<point x="724" y="738" type="curve"/>
			<point x="1056" y="994"/>
			<point x="1056" y="1084"/>
			<point x="1056" y="1136" type="curve" smooth="yes"/>
			<point x="1056" y="1262"/>
			<point x="960" y="1412"/>
			<point x="792" y="1412" type="curve" smooth="yes"/>
			<point x="608" y="1412"/>
			<point x="390" y="1284"/>
			<point x="390" y="1040" type="curve" smooth="yes"/>
			<point x="390" y="960"/>
			<point x="404" y="826"/>
			<point x="476" y="670" type="curve"/>
			<point x="399" y="614"/>
			<point x="321" y="558"/>
			<point x="244" y="502" type="curve" smooth="yes"/>
			<point x="198" y="468"/>
			<point x="114" y="398"/>
			<point x="114" y="284" type="curve" smooth="yes"/>
			<point x="114" y="80"/>
			<point x="334" y="-24"/>
			<point x="576" y="-24" type="curve" smooth="yes"/>
			<point x="708" y="-24"/>
			<point x="852" y="6"/>
			<point x="1008" y="92" type="curve"/>
			<point x="1142" y="24"/>
			<point x="1316" y="-24"/>
			<point x="1488" y="-24" type="curve" smooth="yes"/>
			<point x="1660" y="-24"/>
			<point x="1846" y="50"/>
			<point x="1852" y="230" type="curve"/>
			<point x="1726" y="230" type="line"/>
			<point x="1716" y="88"/>
			<point x="1522" y="88"/>
			<point x="1500" y="88" type="curve" smooth="yes"/>
			<point x="1402" y="88"/>
			<point x="1310" y="122"/>
			<point x="1188" y="212" type="curve"/>
			<point x="1360" y="350"/>
			<point x="1466" y="488"/>
			<point x="1650" y="726" type="curve" smooth="yes"/>
			<point x="1680" y="764"/>
			<point x="1684" y="776"/>
			<point x="1814" y="776" type="curve" smooth="yes"/>
			<point x="1831" y="776"/>
			<point x="1849" y="776"/>
			<point x="1866" y="776" type="curve"/>
			<point x="1866" y="888" type="line"/>
			<point x="1798" y="882"/>
			<point x="1730" y="880"/>
		</contour>
		<contour>
			<point x="518" y="588" type="curve"/>
			<point x="584" y="464"/>
			<point x="724" y="274"/>
			<point x="898" y="158" type="curve"/>
			<point x="766" y="94"/>
			<point x="642" y="88"/>
			<point x="604" y="88" type="curve" smooth="yes"/>
			<point x="450" y="88"/>
			<point x="392" y="242"/>
			<point x="392" y="346" type="curve" smooth="yes"/>
			<point x="392" y="502"/>
			<point x="486" y="566"/>
		</contour>
		<contour>
			<point x="684" y="826" type="curve"/>
			<point x="630" y="954"/>
			<point x="622" y="1078"/>
			<point x="622" y="1120" type="curve" smooth="yes"/>
			<point x="622" y="1268"/>
			<point x="728" y="1320"/>
			<point x="794" y="1320" type="curve" smooth="yes"/>
			<point x="892" y="1320"/>
			<point x="930" y="1204"/>
			<point x="930" y="1136" type="curve" smooth="yes"/>
			<point x="930" y="1010"/>
			<point x="730" y="862"/>
		</contour>
	</outline>
</glyph>
<glyph name="parenleft" format="2">
	<unicode hex="0028"/>
	<advance width="1010"/>
	<outline>
		<contour>
			<point x="244" y="502" type="curve" smooth="yes"/>
			<point x="244" y="166"/>
			<point x="368" y="-124"/>
			<point x="614" y="-366" type="curve" smooth="yes"/>
			<point x="656" y="-406"/>
			<point x="768" y="-498"/>
			<point x="812" y="-498" type="curve" smooth="yes"/>
			<point x="820" y="-498"/>
			<point x="858" y="-498"/>
			<point x="858" y="-462" type="curve" smooth="yes"/>
			<point x="858" y="-446"/>
			<point x="852" y="-440"/>
			<point x="820" y="-414" type="curve" smooth="yes"/>
			<point x="616" y="-238"/>
			<point x="466" y="76"/>
			<point x="466" y="500" type="curve" smooth="yes"/>
			<point x="466" y="778"/>
			<point x="532" y="1174"/>
			<point x="838" y="1430" type="curve" smooth="yes"/>
			<point x="848" y="1438"/>
			<point x="858" y="1446"/>
			<point x="858" y="1464" type="curve" smooth="yes"/>
			<point x="858" y="1500"/>
			<point x="820" y="1500"/>
			<point x="812" y="1500" type="curve" smooth="yes"/>
			<point x="770" y="1500"/>
			<point x="656" y="1408"/>
			<point x="614" y="1368" type="curve" smooth="yes"/>
			<point x="420" y="1176"/>
			<point x="244" y="904"/>
		</contour>
	</outline>
</glyph>
<glyph name="parenright" format="2">
	<unicode hex="0029"/>
	<advance width="1010"/>
	<outline>
		<contour>
			<point x="764" y="500" type="curve" smooth="yes"/>
			<point x="764" y="836"/>
			<point x="640" y="1126"/>
			<point x="394" y="1368" type="curve" smooth="yes"/>
			<point x="352" y="1408"/>
			<point x="240" y="1500"/>
			<point x="196" y="1500" type="curve" smooth="yes"/>
			<point x="188" y="1500"/>
			<point x="150" y="1500"/>
			<point x="150" y="1464" type="curve" smooth="yes"/>
			<point x="150" y="1448"/>
			<point x="156" y="1442"/>
			<point x="188" y="1416" type="curve" smooth="yes"/>
			<point x="392" y="1240"/>
			<point x="542" y="926"/>
			<point x="542" y="502" type="curve" smooth="yes"/>
			<point x="542" y="224"/>
			<point x="476" y="-172"/>
			<point x="170" y="-428" type="curve" smooth="yes"/>
			<point x="160" y="-436"/>
			<point x="150" y="-444"/>
			<point x="150" y="-462" type="curve" smooth="yes"/>
			<point x="150" y="-498"/>
			<point x="188" y="-498"/>
			<point x="196" y="-498" type="curve" smooth="yes"/>
			<point x="238" y="-498"/>
			<point x="352" y="-406"/>
			<point x="394" y="-366" type="curve" smooth="yes"/>
			<point x="588" y="-174"/>
			<point x="764" y="98"/>
		</contour>
	</outline>
</glyph>
<glyph name="asterisk" format="2">
	<unicode hex="002A"/>
	<advance width="1294"/>
	<outline>
		<contour>
			<point x="646" y="612" type="curve" smooth="yes"/>
			<point x="704" y="612"/>
			<point x="748" y="652"/>
			<point x="748" y="698" type="curve" smooth="yes"/>
			<point x="748" y="702"/>
			<point x="746" y="714"/>
			<point x="696" y="978" type="curve"/>
			<point x="962" y="794" type="line" smooth="yes"/>
			<point x="990" y="774"/>
			<point x="1010" y="774"/>
			<point x="1018" y="774" type="curve" smooth="yes"/>
			<point x="1074" y="774"/>
			<point x="1118" y="824"/>
			<point x="1118" y="882" type="curve" smooth="yes"/>
			<point x="1118" y="950"/>
			<point x="1092" y="958"/>
			<point x="974" y="994" type="curve" smooth="yes"/>
			<point x="774" y="1056" type="line"/>
			<point x="1044" y="1140" type="line" smooth="yes"/>
			<point x="1074" y="1150"/>
			<point x="1118" y="1162"/>
			<point x="1118" y="1230" type="curve" smooth="yes"/>
			<point x="1118" y="1288"/>
			<point x="1074" y="1338"/>
			<point x="1018" y="1338" type="curve" smooth="yes"/>
			<point x="996" y="1338"/>
			<point x="984" y="1332"/>
			<point x="964" y="1318" type="curve" smooth="yes"/>
			<point x="696" y="1134" type="line"/>
			<point x="713" y="1227"/>
			<point x="731" y="1320"/>
			<point x="748" y="1414" type="curve"/>
			<point x="748" y="1460"/>
			<point x="704" y="1500"/>
			<point x="646" y="1500" type="curve" smooth="yes"/>
			<point x="588" y="1500"/>
			<point x="544" y="1460"/>
			<point x="544" y="1414" type="curve" smooth="yes"/>
			<point x="544" y="1410"/>
			<point x="546" y="1398"/>
			<point x="596" y="1134" type="curve"/>
			<point x="330" y="1318" type="line" smooth="yes"/>
			<point x="302" y="1338"/>
			<point x="282" y="1338"/>
			<point x="274" y="1338" type="curve" smooth="yes"/>
			<point x="218" y="1338"/>
			<point x="174" y="1288"/>
			<point x="174" y="1230" type="curve" smooth="yes"/>
			<point x="174" y="1162"/>
			<point x="220" y="1148"/>
			<point x="248" y="1140" type="curve" smooth="yes"/>
			<point x="524" y="1056" type="line"/>
			<point x="248" y="972" type="line" smooth="yes"/>
			<point x="220" y="964"/>
			<point x="174" y="950"/>
			<point x="174" y="882" type="curve" smooth="yes"/>
			<point x="174" y="824"/>
			<point x="218" y="774"/>
			<point x="274" y="774" type="curve" smooth="yes"/>
			<point x="300" y="774"/>
			<point x="304" y="778"/>
			<point x="346" y="806" type="curve" smooth="yes"/>
			<point x="594" y="976" type="line"/>
			<point x="577" y="883"/>
			<point x="561" y="791"/>
			<point x="544" y="698" type="curve"/>
			<point x="544" y="652"/>
			<point x="588" y="612"/>
		</contour>
	</outline>
</glyph>
<glyph name="plus" format="2">
	<unicode hex="002B"/>
	<advance width="2004"/>
	<outline>
		<contour>
			<point x="1074" y="428" type="line"/>
			<point x="1756" y="428" type="line" smooth="yes"/>
			<point x="1778" y="428"/>
			<point x="1852" y="428"/>
			<point x="1852" y="500" type="curve" smooth="yes"/>
			<point x="1852" y="574"/>
			<point x="1780" y="574"/>
			<point x="1756" y="574" type="curve" smooth="yes"/>
			<point x="1074" y="574" type="line"/>
			<point x="1074" y="1256" type="line" smooth="yes"/>
			<point x="1074" y="1278"/>
			<point x="1074" y="1352"/>
			<point x="1002" y="1352" type="curve" smooth="yes"/>
			<point x="928" y="1352"/>
			<point x="928" y="1280"/>
			<point x="928" y="1256" type="curve" smooth="yes"/>
			<point x="928" y="574" type="line"/>
			<point x="246" y="574" type="line" smooth="yes"/>
			<point x="224" y="574"/>
			<point x="150" y="574"/>
			<point x="150" y="502" type="curve" smooth="yes"/>
			<point x="150" y="428"/>
			<point x="222" y="428"/>
			<point x="246" y="428" type="curve" smooth="yes"/>
			<point x="928" y="428" type="line"/>
			<point x="928" y="-254" type="line" smooth="yes"/>
			<point x="928" y="-276"/>
			<point x="928" y="-350"/>
			<point x="1000" y="-350" type="curve" smooth="yes"/>
			<point x="1074" y="-350"/>
			<point x="1074" y="-278"/>
			<point x="1074" y="-254" type="curve" smooth="yes"/>
		</contour>
	</outline>
</glyph>
<glyph name="comma" format="2">
	<unicode hex="002C"/>
	<advance width="726"/>
	<outline>
		<contour>
			<point x="200" y="164" type="curve" smooth="yes"/>
			<point x="200" y="78"/>
			<point x="260" y="0"/>
			<point x="364" y="0" type="curve" smooth="yes"/>
			<point x="420" y="0"/>
			<point x="438" y="12"/>
			<point x="460" y="28" type="curve"/>
			<point x="436" y="-176"/>
			<point x="318" y="-268"/>
			<point x="272" y="-302" type="curve" smooth="yes"/>
			<point x="262" y="-310"/>
			<point x="250" y="-320"/>
			<point x="250" y="-338" type="curve" smooth="yes"/>
			<point x="250" y="-358"/>
			<point x="278" y="-388"/>
			<point x="300" y="-388" type="curve" smooth="yes"/>
			<point x="334" y="-388"/>
			<point x="554" y="-214"/>
			<point x="554" y="68" type="curve" smooth="yes"/>
			<point x="554" y="208"/>
			<point x="482" y="326"/>
			<point x="362" y="326" type="curve" smooth="yes"/>
			<point x="260" y="326"/>
			<point x="200" y="248"/>
		</contour>
	</outline>
</glyph>
<glyph name="hyphen" format="2">
	<unicode hex="002D"/>
	<advance width="868"/>
	<outline>
		<contour>
			<point x="716" y="334" type="line"/>
			<point x="716" y="556" type="line"/>
			<point x="36" y="556" type="line"/>
			<point x="36" y="334" type="line"/>
		</contour>
	</outline>
</glyph>
<glyph name="period" format="2">
	<unicode hex="002E"/>
	<advance width="726"/>
	<outline>
		<contour>
			<point x="526" y="162" type="curve" smooth="yes"/>
			<point x="526" y="258"/>
			<point x="448" y="326"/>
			<point x="364" y="326" type="curve" smooth="yes"/>
			<point x="268" y="326"/>
			<point x="200" y="248"/>
			<point x="200" y="164" type="curve" smooth="yes"/>
			<point x="200" y="68"/>
			<point x="278" y="0"/>
			<point x="362" y="0" type="curve" smooth="yes"/>
			<point x="458" y="0"/>
			<point x="526" y="78"/>
		</contour>
	</outline>
</glyph>
<glyph name="slash" format="2">
	<unicode hex="002F"/>
	<advance width="1294"/>
	<outline>
		<contour>
			<point x="1130" y="1382" type="line" smooth="yes"/>
			<point x="1142" y="1408"/>
			<point x="1142" y="1424"/>
			<point x="1142" y="1426" type="curve" smooth="yes"/>
			<point x="1142" y="1468"/>
			<point x="1110" y="1500"/>
			<point x="1068" y="1500" type="curve" smooth="yes"/>
			<point x="1022" y="1500"/>
			<point x="1004" y="1460"/>
			<point x="996" y="1444" type="curve" smooth="yes"/>
			<point x="162" y="-382" type="line" smooth="yes"/>
			<point x="150" y="-408"/>
			<point x="150" y="-424"/>
			<point x="150" y="-426" type="curve" smooth="yes"/>
			<point x="150" y="-468"/>
			<point x="182" y="-500"/>
			<point x="224" y="-500" type="curve" smooth="yes"/>
			<point x="270" y="-500"/>
			<point x="288" y="-460"/>
			<point x="296" y="-444" type="curve" smooth="yes"/>
		</contour>
	</outline>
</glyph>
<glyph name="zero" format="2">
	<unicode hex="0030"/>
	<advance width="1294"/>
	<outline>
		<contour>
			<point x="646" y="-24" type="curve" smooth="yes"/>
			<point x="828" y="-24"/>
			<point x="949" y="29"/>
			<point x="1029" y="108" type="curve" smooth="yes"/>
			<point x="1171" y="249"/>
			<point x="1184" y="474"/>
			<point x="1184" y="636" type="curve" smooth="yes"/>
			<point x="1184" y="796"/>
			<point x="1173" y="1034"/>
			<point x="1024" y="1181" type="curve" smooth="yes"/>
			<point x="944" y="1259"/>
			<point x="825" y="1312"/>
			<point x="646" y="1312" type="curve" smooth="yes"/>
			<point x="465" y="1312"/>
			<point x="345" y="1258"/>
			<point x="265" y="1178" type="curve" smooth="yes"/>
			<point x="119" y="1030"/>
			<point x="108" y="794"/>
			<point x="108" y="636" type="curve" smooth="yes"/>
			<point x="108" y="475"/>
			<point x="121" y="250"/>
			<point x="263" y="109" type="curve" smooth="yes"/>
			<point x="343" y="29"/>
			<point x="464" y="-24"/>
		</contour>
		<contour>
			<point x="646" y="68" type="curve" smooth="yes"/>
			<point x="582" y="68"/>
			<point x="522" y="90"/>
			<point x="474" y="132" type="curve" smooth="yes"/>
			<point x="420" y="178"/>
			<point x="386" y="208"/>
			<point x="386" y="662" type="curve" smooth="yes"/>
			<point x="386" y="800"/>
			<point x="386" y="958"/>
			<point x="408" y="1054" type="curve" smooth="yes"/>
			<point x="440" y="1184"/>
			<point x="564" y="1220"/>
			<point x="646" y="1220" type="curve" smooth="yes"/>
			<point x="722" y="1220"/>
			<point x="852" y="1188"/>
			<point x="884" y="1050" type="curve" smooth="yes"/>
			<point x="906" y="956"/>
			<point x="906" y="790"/>
			<point x="906" y="662" type="curve" smooth="yes"/>
			<point x="906" y="522"/>
			<point x="906" y="376"/>
			<point x="886" y="264" type="curve" smooth="yes"/>
			<point x="858" y="102"/>
			<point x="720" y="68"/>
		</contour>
	</outline>
</glyph>
<glyph name="one" format="2">
	<unicode hex="0031"/>
	<advance width="1294"/>
	<outline>
		<contour>
			<point x="538" y="1114" type="curve"/>
			<point x="538" y="112" type="line"/>
			<point x="538" y="112"/>
			<point x="538" y="112"/>
			<point x="538" y="112" type="curve"/>
			<point x="222" y="112" type="line"/>
			<point x="222" y="0" type="line"/>
			<point x="320" y="8"/>
			<point x="560" y="8"/>
			<point x="668" y="8" type="curve" smooth="yes"/>
			<point x="800" y="8"/>
			<point x="978" y="6"/>
			<point x="1106" y="0" type="curve"/>
			<point x="1106" y="112" type="line"/>
			<point x="798" y="112" type="line"/>
			<point x="798" y="112"/>
			<point x="798" y="112"/>
			<point x="798" y="112" type="curve"/>
			<point x="798" y="1242" type="line" smooth="yes"/>
			<point x="798" y="1312"/>
			<point x="784" y="1312"/>
			<point x="700" y="1312" type="curve"/>
			<point x="700" y="1312"/>
			<point x="700" y="1312"/>
			<point x="700" y="1312" type="curve"/>
			<point x="576" y="1212"/>
			<point x="412" y="1184"/>
			<point x="252" y="1184" type="curve" smooth="yes"/>
			<point x="236" y="1184"/>
			<point x="220" y="1184"/>
			<point x="204" y="1184" type="curve"/>
			<point x="204" y="1147"/>
			<point x="204" y="1109"/>
			<point x="204" y="1072" type="curve"/>
			<point x="252" y="1072" type="line" smooth="yes"/>
			<point x="332" y="1072"/>
			<point x="454" y="1086"/>
		</contour>
	</outline>
</glyph>
<glyph name="two" format="2">
	<unicode hex="0032"/>
	<advance width="1294"/>
	<outline>
		<contour>
			<point x="858" y="920" type="curve" smooth="yes"/>
			<point x="858" y="766"/>
			<point x="754" y="638"/>
			<point x="638" y="536" type="curve" smooth="yes"/>
			<point x="162" y="114" type="line"/>
			<point x="138" y="90"/>
			<point x="136" y="88"/>
			<point x="136" y="48" type="curve" smooth="yes"/>
			<point x="136" y="0" type="line"/>
			<point x="1088" y="0" type="line"/>
			<point x="1156" y="456" type="line"/>
			<point x="1030" y="456" type="line"/>
			<point x="1026" y="432"/>
			<point x="1008" y="290"/>
			<point x="972" y="282" type="curve" smooth="yes"/>
			<point x="930" y="274"/>
			<point x="810" y="274"/>
			<point x="764" y="274" type="curve" smooth="yes"/>
			<point x="490" y="274" type="line"/>
			<point x="600" y="356"/>
			<point x="712" y="438"/>
			<point x="828" y="512" type="curve" smooth="yes"/>
			<point x="990" y="616"/>
			<point x="1156" y="722"/>
			<point x="1156" y="922" type="curve" smooth="yes"/>
			<point x="1156" y="1162"/>
			<point x="930" y="1312"/>
			<point x="612" y="1312" type="curve" smooth="yes"/>
			<point x="340" y="1312"/>
			<point x="136" y="1206"/>
			<point x="136" y="1016" type="curve" smooth="yes"/>
			<point x="136" y="900"/>
			<point x="230" y="858"/>
			<point x="290" y="858" type="curve" smooth="yes"/>
			<point x="362" y="858"/>
			<point x="446" y="908"/>
			<point x="446" y="1014" type="curve" smooth="yes"/>
			<point x="446" y="1110"/>
			<point x="372" y="1150"/>
			<point x="366" y="1152" type="curve"/>
			<point x="438" y="1198"/>
			<point x="530" y="1200"/>
			<point x="554" y="1200" type="curve" smooth="yes"/>
			<point x="724" y="1200"/>
			<point x="858" y="1092"/>
		</contour>
	</outline>
</glyph>
<glyph name="three" format="2">
	<unicode hex="0033"/>
	<advance width="1294"/>
	<outline>
		<contour>
			<point x="620" y="-24" type="curve" smooth="yes"/>
			<point x="1038" y="-24"/>
			<point x="1178" y="194"/>
			<point x="1178" y="362" type="curve" smooth="yes"/>
			<point x="1178" y="516"/>
			<point x="1056" y="656"/>
			<point x="828" y="702" type="curve"/>
			<point x="972" y="756"/>
			<point x="1106" y="860"/>
			<point x="1106" y="1028" type="curve" smooth="yes"/>
			<point x="1106" y="1184"/>
			<point x="946" y="1312"/>
			<point x="626" y="1312" type="curve" smooth="yes"/>
			<point x="354" y="1312"/>
			<point x="186" y="1178"/>
			<point x="186" y="1012" type="curve" smooth="yes"/>
			<point x="186" y="912"/>
			<point x="258" y="858"/>
			<point x="336" y="858" type="curve" smooth="yes"/>
			<point x="436" y="858"/>
			<point x="488" y="932"/>
			<point x="488" y="1008" type="curve" smooth="yes"/>
			<point x="488" y="1110"/>
			<point x="408" y="1146"/>
			<point x="388" y="1152" type="curve"/>
			<point x="470" y="1212"/>
			<point x="576" y="1220"/>
			<point x="616" y="1220" type="curve" smooth="yes"/>
			<point x="812" y="1220"/>
			<point x="812" y="1090"/>
			<point x="812" y="1034" type="curve" smooth="yes"/>
			<point x="812" y="942"/>
			<point x="772" y="758"/>
			<point x="572" y="748" type="curve" smooth="yes"/>
			<point x="522" y="746"/>
			<point x="472" y="744"/>
			<point x="460" y="740" type="curve" smooth="yes"/>
			<point x="434" y="732"/>
			<point x="434" y="708"/>
			<point x="434" y="696" type="curve" smooth="yes"/>
			<point x="434" y="650"/>
			<point x="460" y="650"/>
			<point x="498" y="650" type="curve" smooth="yes"/>
			<point x="604" y="650" type="line" smooth="yes"/>
			<point x="842" y="650"/>
			<point x="852" y="470"/>
			<point x="852" y="364" type="curve" smooth="yes"/>
			<point x="852" y="280"/>
			<point x="852" y="78"/>
			<point x="612" y="78" type="curve" smooth="yes"/>
			<point x="558" y="78"/>
			<point x="432" y="88"/>
			<point x="346" y="142" type="curve"/>
			<point x="388" y="160"/>
			<point x="440" y="206"/>
			<point x="440" y="292" type="curve" smooth="yes"/>
			<point x="440" y="384"/>
			<point x="374" y="454"/>
			<point x="278" y="454" type="curve" smooth="yes"/>
			<point x="178" y="454"/>
			<point x="114" y="384"/>
			<point x="114" y="290" type="curve" smooth="yes"/>
			<point x="114" y="86"/>
			<point x="336" y="-24"/>
		</contour>
	</outline>
</glyph>
<glyph name="four" format="2">
	<unicode hex="0034"/>
	<advance width="647"/>
	<outline>
		<contour>
			<point x="360" y="154" type="line"/>
			<point x="360" y="56" type="line"/>
			<point x="360" y="56"/>
			<point x="360" y="56"/>
			<point x="360" y="56" type="curve"/>
			<point x="236" y="56" type="line"/>
			<point x="236" y="0" type="line"/>
			<point x="285" y="4"/>
			<point x="375" y="4"/>
			<point x="427" y="4" type="curve" smooth="yes"/>
			<point x="449" y="4"/>
			<point x="581" y="2"/>
			<point x="606" y="0" type="curve"/>
			<point x="606" y="56" type="line"/>
			<point x="497" y="56" type="line"/>
			<point x="497" y="56"/>
			<point x="497" y="56"/>
			<point x="497" y="56" type="curve"/>
			<point x="497" y="154" type="line"/>
			<point x="606" y="154" type="line"/>
			<point x="606" y="210" type="line"/>
			<point x="497" y="210" type="line"/>
			<point x="497" y="627" type="line" smooth="yes"/>
			<point x="497" y="657"/>
			<point x="495" y="662"/>
			<point x="455" y="662" type="curve" smooth="yes"/>
			<point x="426" y="662"/>
			<point x="420" y="662"/>
			<point x="407" y="647" type="curve" smooth="yes"/>
			<point x="40" y="210" type="line"/>
			<point x="40" y="154" type="line"/>
		</contour>
		<contour>
			<point x="109" y="210" type="line"/>
			<point x="373" y="524" type="line"/>
			<point x="373" y="210" type="line"/>
		</contour>
	</outline>
</glyph>
<glyph name="five" format="2">
  <advance width="647"/>
  <unicode hex="0035"/>
  <outline>
    <contour>
      <point x="293" y="-12" type="curve" smooth="yes"/>
      <point x="482" y="-12"/>
      <point x="578" y="88"/>
      <point x="578" y="201" type="curve" smooth="yes"/>
      <point x="578" y="307"/>
      <point x="500" y="410"/>
      <point x="328" y="410" type="curve" smooth="yes"/>
      <point x="289" y="410"/>
      <point x="237" y="405"/>
      <point x="189" y="377" type="curve"/>
      <point x="189" y="496" type="line"/>
      <point x="225" y="491"/>
      <point x="251" y="491"/>
      <point x="263" y="491" type="curve" smooth="yes"/>
      <point x="287" y="491"/>
      <point x="356" y="491"/>
      <point x="430" y="535" type="curve" smooth="yes"/>
      <point x="459" y="552"/>
      <point x="528" y="603"/>
      <point x="528" y="633" type="curve" smooth="yes"/>
      <point x="528" y="637"/>
      <point x="528" y="656"/>
      <point x="510" y="656" type="curve" smooth="yes"/>
      <point x="508" y="656"/>
      <point x="506" y="656"/>
      <point x="494" y="652" type="curve" smooth="yes"/>
      <point x="428" y="630"/>
      <point x="369" y="624"/>
      <point x="323" y="624" type="curve" smooth="yes"/>
      <point x="282" y="624"/>
      <point x="220" y="629"/>
      <point x="154" y="651" type="curve" smooth="yes"/>
      <point x="140" y="656"/>
      <point x="138" y="656"/>
      <point x="136" y="656" type="curve" smooth="yes"/>
      <point x="118" y="656"/>
      <point x="118" y="640"/>
      <point x="118" y="625" type="curve" smooth="yes"/>
      <point x="118" y="329" type="line" smooth="yes"/>
      <point x="118" y="309"/>
      <point x="118" y="295"/>
      <point x="147" y="295" type="curve" smooth="yes"/>
      <point x="157" y="295"/>
      <point x="164" y="295"/>
      <point x="172" y="303" type="curve" smooth="yes"/>
      <point x="191" y="324"/>
      <point x="228" y="364"/>
      <point x="323" y="364" type="curve" smooth="yes"/>
      <point x="356.99968" y="364.0"/>
      <point x="379.8841846144" y="354.7017282832"/>
      <point x="395.2872869802603" y="339.6690777340246" type="curve" smooth="yes"/>
      <point x="426.99999999999994" y="308.71907029600004"/>
      <point x="426.99999999999994" y="253.46176000000003"/>
      <point x="427" y="205" type="curve" smooth="yes"/>
      <point x="427.0" y="162.76119"/>
      <point x="427.0" y="107.80423648319999"/>
      <point x="392.42280962541" y="72.95241437040642" type="curve" smooth="yes"/>
      <point x="372.1530060838" y="52.5216165051"/>
      <point x="340.00066" y="39.0"/>
      <point x="289" y="39" type="curve" smooth="yes"/>
      <point x="242" y="39"/>
      <point x="190" y="55"/>
      <point x="161" y="88" type="curve"/>
      <point x="211" y="101"/>
      <point x="215" y="143"/>
      <point x="215" y="158" type="curve" smooth="yes"/>
      <point x="215" y="207"/>
      <point x="177" y="232"/>
      <point x="142" y="232" type="curve" smooth="yes"/>
      <point x="106" y="232"/>
      <point x="68" y="208"/>
      <point x="68" y="157" type="curve" smooth="yes"/>
      <point x="68" y="65"/>
      <point x="158" y="-12"/>
    </contour>
  </outline>
</glyph>
<glyph name="six" format="2">
	<unicode hex="0036"/>
	<advance width="1294"/>
	<outline>
		<contour>
			<point x="114" y="636" type="curve" smooth="yes"/>
			<point x="114" y="460"/>
			<point x="145" y="233"/>
			<point x="296" y="96" type="curve" smooth="yes"/>
			<point x="376" y="23"/>
			<point x="491" y="-24"/>
			<point x="654" y="-24" type="curve" smooth="yes"/>
			<point x="799" y="-24"/>
			<point x="921" y="11"/>
			<point x="1010" y="75" type="curve" smooth="yes"/>
			<point x="1117" y="151"/>
			<point x="1178" y="268"/>
			<point x="1178" y="412" type="curve" smooth="yes"/>
			<point x="1178" y="556"/>
			<point x="1117" y="671"/>
			<point x="1015" y="745" type="curve" smooth="yes"/>
			<point x="930" y="806"/>
			<point x="818" y="840"/>
			<point x="688" y="840" type="curve" smooth="yes"/>
			<point x="644" y="840"/>
			<point x="508" y="840"/>
			<point x="408" y="686" type="curve"/>
			<point x="408" y="822"/>
			<point x="416" y="976"/>
			<point x="488" y="1076" type="curve" smooth="yes"/>
			<point x="586" y="1214"/>
			<point x="744" y="1220"/>
			<point x="786" y="1220" type="curve" smooth="yes"/>
			<point x="848" y="1220"/>
			<point x="900" y="1202"/>
			<point x="930" y="1178" type="curve"/>
			<point x="872" y="1156"/>
			<point x="836" y="1106"/>
			<point x="836" y="1044" type="curve" smooth="yes"/>
			<point x="836" y="968"/>
			<point x="890" y="906"/>
			<point x="974" y="906" type="curve" smooth="yes"/>
			<point x="1056" y="906"/>
			<point x="1114" y="962"/>
			<point x="1114" y="1048" type="curve" smooth="yes"/>
			<point x="1114" y="1170"/>
			<point x="1034" y="1312"/>
			<point x="782" y="1312" type="curve" smooth="yes"/>
			<point x="444" y="1312"/>
			<point x="114" y="1108"/>
		</contour>
		<contour>
			<point x="652" y="78" type="curve" smooth="yes"/>
			<point x="579" y="78"/>
			<point x="528" y="101"/>
			<point x="492" y="136" type="curve" smooth="yes"/>
			<point x="413" y="214"/>
			<point x="412" y="354"/>
			<point x="412" y="438" type="curve" smooth="yes"/>
			<point x="412" y="582"/>
			<point x="494" y="748"/>
			<point x="666" y="748" type="curve" smooth="yes"/>
			<point x="742" y="748"/>
			<point x="792" y="730"/>
			<point x="824" y="698" type="curve" smooth="yes"/>
			<point x="884" y="638"/>
			<point x="884" y="532"/>
			<point x="884" y="414" type="curve" smooth="yes"/>
			<point x="884" y="296"/>
			<point x="884" y="191"/>
			<point x="824" y="132" type="curve" smooth="yes"/>
			<point x="790" y="98"/>
			<point x="736" y="78"/>
		</contour>
	</outline>
</glyph>
<glyph name="seven" format="2">
	<unicode hex="0037"/>
	<advance width="647"/>
	<outline>
		<contour>
			<point x="288" y="-12" type="curve" smooth="yes"/>
			<point x="320" y="-12"/>
			<point x="337" y="6"/>
			<point x="342" y="11" type="curve"/>
			<point x="358" y="30"/>
			<point x="358" y="40"/>
			<point x="358" y="107" type="curve" smooth="yes"/>
			<point x="358" y="268"/>
			<point x="387" y="357"/>
			<point x="447" y="418" type="curve" smooth="yes"/>
			<point x="503.61" y="476.275"/>
			<point x="560.22" y="534.55"/>
			<point x="617" y="593" type="curve" smooth="yes"/>
			<point x="622" y="598"/>
			<point x="624" y="607"/>
			<point x="624" y="644" type="curve"/>
			<point x="624" y="644" type="line"/>
			<point x="373" y="644" type="line" smooth="yes"/>
			<point x="345" y="644"/>
			<point x="258" y="647"/>
			<point x="218" y="650" type="curve" smooth="yes"/>
			<point x="180" y="653"/>
			<point x="178" y="663"/>
			<point x="176" y="674" type="curve"/>
			<point x="113" y="674" type="line"/>
			<point x="75" y="416" type="line"/>
			<point x="138" y="416" type="line"/>
			<point x="146" y="473"/>
			<point x="159" y="499"/>
			<point x="169" y="502" type="curve" smooth="yes"/>
			<point x="173" y="503"/>
			<point x="212" y="507"/>
			<point x="282" y="507" type="curve" smooth="yes"/>
			<point x="445" y="507" type="line"/>
			<point x="418" y="478"/>
			<point x="405" y="466"/>
			<point x="371" y="430" type="curve" smooth="yes"/>
			<point x="303" y="357"/>
			<point x="219" y="218"/>
			<point x="219" y="65" type="curve" smooth="yes"/>
			<point x="219" y="-12"/>
			<point x="283" y="-12"/>
		</contour>
	</outline>
</glyph>
<glyph name="eight" format="2">
	<unicode hex="0038"/>
	<advance width="1294"/>
	<outline>
		<contour>
			<point x="642" y="-24" type="curve" smooth="yes"/>
			<point x="1008" y="-24"/>
			<point x="1178" y="154"/>
			<point x="1178" y="376" type="curve" smooth="yes"/>
			<point x="1178" y="598"/>
			<point x="982" y="694"/>
			<point x="896" y="738" type="curve"/>
			<point x="1040" y="808"/>
			<point x="1106" y="900"/>
			<point x="1106" y="1014" type="curve" smooth="yes"/>
			<point x="1106" y="1312"/>
			<point x="728" y="1312"/>
			<point x="652" y="1312" type="curve" smooth="yes"/>
			<point x="328" y="1312"/>
			<point x="186" y="1150"/>
			<point x="186" y="956" type="curve" smooth="yes"/>
			<point x="186" y="855"/>
			<point x="236" y="780"/>
			<point x="286" y="731" type="curve" smooth="yes"/>
			<point x="328" y="689"/>
			<point x="369" y="665"/>
			<point x="378" y="660" type="curve"/>
			<point x="220" y="598"/>
			<point x="114" y="492"/>
			<point x="114" y="326" type="curve" smooth="yes"/>
			<point x="114" y="4"/>
			<point x="480" y="-24"/>
		</contour>
		<contour>
			<point x="650" y="78" type="curve" smooth="yes"/>
			<point x="458" y="78"/>
			<point x="318" y="158"/>
			<point x="318" y="326" type="curve" smooth="yes"/>
			<point x="318" y="450"/>
			<point x="390" y="538"/>
			<point x="506" y="596" type="curve"/>
			<point x="601" y="549"/>
			<point x="695" y="501"/>
			<point x="790" y="454" type="curve" smooth="yes"/>
			<point x="898" y="398"/>
			<point x="974" y="360"/>
			<point x="974" y="270" type="curve" smooth="yes"/>
			<point x="974" y="114"/>
			<point x="800" y="78"/>
		</contour>
		<contour>
			<point x="780" y="798" type="curve"/>
			<point x="671" y="853"/>
			<point x="563" y="907"/>
			<point x="454" y="962" type="curve" smooth="yes"/>
			<point x="384" y="998"/>
			<point x="362" y="1034"/>
			<point x="362" y="1074" type="curve" smooth="yes"/>
			<point x="362" y="1176"/>
			<point x="464" y="1220"/>
			<point x="640" y="1220" type="curve" smooth="yes"/>
			<point x="824" y="1220"/>
			<point x="930" y="1146"/>
			<point x="930" y="1012" type="curve" smooth="yes"/>
			<point x="930" y="912"/>
			<point x="868" y="846"/>
		</contour>
	</outline>
</glyph>
<glyph name="nine" format="2">
	<unicode hex="0039"/>
	<advance width="1294"/>
	<outline>
		<contour>
			<point x="540" y="-24" type="curve" smooth="yes"/>
			<point x="876" y="-24"/>
			<point x="1178" y="190"/>
			<point x="1178" y="656" type="curve" smooth="yes"/>
			<point x="1178" y="972"/>
			<point x="1080" y="1312"/>
			<point x="650" y="1312" type="curve" smooth="yes"/>
			<point x="469" y="1312"/>
			<point x="323" y="1259"/>
			<point x="230" y="1167" type="curve" smooth="yes"/>
			<point x="155" y="1094"/>
			<point x="114" y="995"/>
			<point x="114" y="880" type="curve" smooth="yes"/>
			<point x="114" y="760"/>
			<point x="156" y="661"/>
			<point x="228" y="588" type="curve" smooth="yes"/>
			<point x="316" y="499"/>
			<point x="449" y="450"/>
			<point x="604" y="450" type="curve" smooth="yes"/>
			<point x="652" y="450"/>
			<point x="780" y="450"/>
			<point x="884" y="604" type="curve"/>
			<point x="884" y="464"/>
			<point x="876" y="318"/>
			<point x="818" y="224" type="curve" smooth="yes"/>
			<point x="756" y="126"/>
			<point x="650" y="78"/>
			<point x="536" y="78" type="curve" smooth="yes"/>
			<point x="518" y="78"/>
			<point x="436" y="78"/>
			<point x="374" y="116" type="curve"/>
			<point x="428" y="140"/>
			<point x="456" y="186"/>
			<point x="456" y="244" type="curve" smooth="yes"/>
			<point x="456" y="320"/>
			<point x="402" y="382"/>
			<point x="318" y="382" type="curve" smooth="yes"/>
			<point x="236" y="382"/>
			<point x="178" y="326"/>
			<point x="178" y="240" type="curve" smooth="yes"/>
			<point x="178" y="104"/>
			<point x="276" y="-24"/>
		</contour>
		<contour>
			<point x="626" y="542" type="curve" smooth="yes"/>
			<point x="556" y="542"/>
			<point x="508" y="558"/>
			<point x="476" y="585" type="curve" smooth="yes"/>
			<point x="408" y="643"/>
			<point x="408" y="753"/>
			<point x="408" y="878" type="curve" smooth="yes"/>
			<point x="408" y="991"/>
			<point x="408" y="1099"/>
			<point x="472" y="1163" type="curve" smooth="yes"/>
			<point x="508" y="1198"/>
			<point x="564" y="1220"/>
			<point x="652" y="1220" type="curve" smooth="yes"/>
			<point x="772" y="1220"/>
			<point x="826" y="1142"/>
			<point x="846" y="1104" type="curve" smooth="yes"/>
			<point x="880" y="1042"/>
			<point x="880" y="872"/>
			<point x="880" y="870" type="curve" smooth="yes"/>
			<point x="880" y="664"/>
			<point x="768" y="542"/>
		</contour>
	</outline>
</glyph>
<glyph name="colon" format="2">
	<unicode hex="003A"/>
	<advance width="726"/>
	<outline>
		<contour>
			<point x="526" y="724" type="curve" smooth="yes"/>
			<point x="526" y="820"/>
			<point x="448" y="888"/>
			<point x="364" y="888" type="curve" smooth="yes"/>
			<point x="268" y="888"/>
			<point x="200" y="810"/>
			<point x="200" y="726" type="curve" smooth="yes"/>
			<point x="200" y="630"/>
			<point x="278" y="562"/>
			<point x="362" y="562" type="curve" smooth="yes"/>
			<point x="458" y="562"/>
			<point x="526" y="640"/>
		</contour>
		<contour>
			<point x="526" y="162" type="curve" smooth="yes"/>
			<point x="526" y="258"/>
			<point x="448" y="326"/>
			<point x="364" y="326" type="curve" smooth="yes"/>
			<point x="268" y="326"/>
			<point x="200" y="248"/>
			<point x="200" y="164" type="curve" smooth="yes"/>
			<point x="200" y="68"/>
			<point x="278" y="0"/>
			<point x="362" y="0" type="curve" smooth="yes"/>
			<point x="458" y="0"/>
			<point x="526" y="78"/>
		</contour>
	</outline>
</glyph>
<glyph name="semicolon" format="2">
	<unicode hex="003B"/>
	<advance width="726"/>
	<outline>
		<contour>
			<point x="362" y="562" type="curve" smooth="yes"/>
			<point x="458" y="562"/>
			<point x="526" y="640"/>
			<point x="526" y="724" type="curve" smooth="yes"/>
			<point x="526" y="820"/>
			<point x="448" y="888"/>
			<point x="364" y="888" type="curve" smooth="yes"/>
			<point x="268" y="888"/>
			<point x="200" y="810"/>
			<point x="200" y="726" type="curve" smooth="yes"/>
			<point x="200" y="630"/>
			<point x="278" y="562"/>
		</contour>
		<contour>
			<point x="300" y="-388" type="curve" smooth="yes"/>
			<point x="334" y="-388"/>
			<point x="534" y="-206"/>
			<point x="534" y="68" type="curve" smooth="yes"/>
			<point x="534" y="226"/>
			<point x="466" y="326"/>
			<point x="362" y="326" type="curve" smooth="yes"/>
			<point x="260" y="326"/>
			<point x="200" y="246"/>
			<point x="200" y="164" type="curve" smooth="yes"/>
			<point x="200" y="78"/>
			<point x="260" y="0"/>
			<point x="364" y="0" type="curve" smooth="yes"/>
			<point x="408" y="0"/>
			<point x="416" y="6"/>
			<point x="438" y="16" type="curve"/>
			<point x="422" y="-132"/>
			<point x="352" y="-232"/>
			<point x="268" y="-304" type="curve"/>
			<point x="262" y="-310"/>
			<point x="250" y="-322"/>
			<point x="250" y="-338" type="curve" smooth="yes"/>
			<point x="250" y="-358"/>
			<point x="278" y="-388"/>
		</contour>
	</outline>
</glyph>
<glyph name="equal" format="2">
	<unicode hex="003D"/>
	<advance width="1002"/>
	<outline>
		<contour>
			<point x="880" y="339" type="line" smooth="yes"/>
			<point x="891" y="339"/>
			<point x="926" y="339"/>
			<point x="926" y="375" type="curve" smooth="yes"/>
			<point x="926" y="412"/>
			<point x="888" y="412"/>
			<point x="874" y="412" type="curve" smooth="yes"/>
			<point x="127" y="412" type="line" smooth="yes"/>
			<point x="113" y="412"/>
			<point x="75" y="412"/>
			<point x="75" y="375" type="curve" smooth="yes"/>
			<point x="75" y="339"/>
			<point x="110" y="339"/>
			<point x="121" y="339" type="curve" smooth="yes"/>
		</contour>
		<contour>
			<point x="874" y="89" type="line" smooth="yes"/>
			<point x="888" y="89"/>
			<point x="926" y="89"/>
			<point x="926" y="126" type="curve" smooth="yes"/>
			<point x="926" y="162"/>
			<point x="891" y="162"/>
			<point x="880" y="162" type="curve" smooth="yes"/>
			<point x="121" y="162" type="line" smooth="yes"/>
			<point x="110" y="162"/>
			<point x="75" y="162"/>
			<point x="75" y="126" type="curve" smooth="yes"/>
			<point x="75" y="89"/>
			<point x="113" y="89"/>
			<point x="127" y="89" type="curve" smooth="yes"/>
		</contour>
	</outline>
</glyph>
<glyph name="question" format="2">
	<unicode hex="003F"/>
	<advance width="1222"/>
	<outline>
		<contour>
			<point x="1072" y="1140" type="curve" smooth="yes"/>
			<point x="1072" y="1400"/>
			<point x="676" y="1400"/>
			<point x="592" y="1400" type="curve" smooth="yes"/>
			<point x="252" y="1400"/>
			<point x="150" y="1264"/>
			<point x="150" y="1142" type="curve" smooth="yes"/>
			<point x="150" y="1056"/>
			<point x="212" y="1002"/>
			<point x="288" y="1002" type="curve" smooth="yes"/>
			<point x="378" y="1002"/>
			<point x="428" y="1066"/>
			<point x="428" y="1140" type="curve" smooth="yes"/>
			<point x="428" y="1220"/>
			<point x="372" y="1256"/>
			<point x="360" y="1262" type="curve"/>
			<point x="442" y="1308"/>
			<point x="554" y="1308"/>
			<point x="582" y="1308" type="curve" smooth="yes"/>
			<point x="788" y="1308"/>
			<point x="794" y="1240"/>
			<point x="794" y="1152" type="curve" smooth="yes"/>
			<point x="794" y="1120"/>
			<point x="792" y="1056"/>
			<point x="746" y="1018" type="curve" smooth="yes"/>
			<point x="530" y="836"/>
			<point x="512" y="678"/>
			<point x="512" y="556" type="curve" smooth="yes"/>
			<point x="512" y="548"/>
			<point x="512" y="542"/>
			<point x="512" y="536" type="curve" smooth="yes"/>
			<point x="512" y="468"/>
			<point x="518" y="462"/>
			<point x="576" y="462" type="curve" smooth="yes"/>
			<point x="636" y="462"/>
			<point x="638" y="476"/>
			<point x="638" y="526" type="curve" smooth="yes"/>
			<point x="638" y="570" type="line" smooth="yes"/>
			<point x="638" y="710"/>
			<point x="710" y="824"/>
			<point x="934" y="940" type="curve" smooth="yes"/>
			<point x="1032" y="992"/>
			<point x="1072" y="1066"/>
		</contour>
		<contour>
			<point x="738" y="162" type="curve" smooth="yes"/>
			<point x="738" y="258"/>
			<point x="660" y="326"/>
			<point x="576" y="326" type="curve" smooth="yes"/>
			<point x="480" y="326"/>
			<point x="412" y="248"/>
			<point x="412" y="164" type="curve" smooth="yes"/>
			<point x="412" y="68"/>
			<point x="490" y="0"/>
			<point x="574" y="0" type="curve" smooth="yes"/>
			<point x="670" y="0"/>
			<point x="738" y="78"/>
		</contour>
	</outline>
</glyph>
<glyph name="at" format="2">
	<unicode hex="0040"/>
	<advance width="2004"/>
	<outline>
		<contour>
			<point x="1010" y="-12" type="curve"/>
			<point x="1200" y="-12"/>
			<point x="1372" y="13"/>
			<point x="1510" y="42" type="curve" smooth="yes"/>
			<point x="1706" y="84"/>
			<point x="1831" y="136"/>
			<point x="1836" y="138" type="curve"/>
			<point x="1846" y="144"/>
			<point x="1852" y="156"/>
			<point x="1852" y="166" type="curve" smooth="yes"/>
			<point x="1852" y="202"/>
			<point x="1818" y="202"/>
			<point x="1788" y="202" type="curve" smooth="yes"/>
			<point x="1730" y="202" type="line" smooth="yes"/>
			<point x="1700" y="202"/>
			<point x="1696" y="202"/>
			<point x="1658" y="188" type="curve" smooth="yes"/>
			<point x="1426" y="108"/>
			<point x="1186" y="80"/>
			<point x="1010" y="80" type="curve" smooth="yes"/>
			<point x="466" y="80"/>
			<point x="276" y="406"/>
			<point x="276" y="694" type="curve" smooth="yes"/>
			<point x="276" y="1028"/>
			<point x="516" y="1308"/>
			<point x="1000" y="1308" type="curve" smooth="yes"/>
			<point x="1462" y="1308"/>
			<point x="1726" y="1054"/>
			<point x="1726" y="686" type="curve" smooth="yes"/>
			<point x="1726" y="630"/>
			<point x="1726" y="344"/>
			<point x="1574" y="344" type="curve" smooth="yes"/>
			<point x="1510" y="344"/>
			<point x="1510" y="426"/>
			<point x="1510" y="452" type="curve" smooth="yes"/>
			<point x="1510" y="904" type="line" smooth="yes"/>
			<point x="1510" y="960"/>
			<point x="1504" y="968"/>
			<point x="1444" y="968" type="curve" smooth="yes"/>
			<point x="1368" y="968"/>
			<point x="1366" y="970"/>
			<point x="1350" y="988" type="curve" smooth="yes"/>
			<point x="1280" y="1070"/>
			<point x="1164" y="1136"/>
			<point x="998" y="1136" type="curve" smooth="yes"/>
			<point x="672" y="1136"/>
			<point x="492" y="938"/>
			<point x="492" y="694" type="curve" smooth="yes"/>
			<point x="492" y="448"/>
			<point x="674" y="252"/>
			<point x="998" y="252" type="curve" smooth="yes"/>
			<point x="1084" y="252"/>
			<point x="1192" y="270"/>
			<point x="1284" y="340" type="curve"/>
			<point x="1356" y="254"/>
			<point x="1512" y="252"/>
			<point x="1550" y="252" type="curve" smooth="yes"/>
			<point x="1800" y="252"/>
			<point x="1852" y="538"/>
			<point x="1852" y="692" type="curve" smooth="yes"/>
			<point x="1852" y="1070"/>
			<point x="1572" y="1400"/>
			<point x="1002" y="1400" type="curve" smooth="yes"/>
			<point x="410" y="1400"/>
			<point x="150" y="1050"/>
			<point x="150" y="694" type="curve" smooth="yes"/>
			<point x="150" y="364"/>
			<point x="380" y="-12"/>
		</contour>
		<contour>
			<point x="1004" y="344" type="curve" smooth="yes"/>
			<point x="860" y="344"/>
			<point x="746" y="460"/>
			<point x="746" y="694" type="curve" smooth="yes"/>
			<point x="746" y="928"/>
			<point x="860" y="1044"/>
			<point x="1004" y="1044" type="curve" smooth="yes"/>
			<point x="1048" y="1044"/>
			<point x="1176" y="1034"/>
			<point x="1256" y="922" type="curve"/>
			<point x="1256" y="922"/>
			<point x="1256" y="922"/>
			<point x="1256" y="922" type="curve"/>
			<point x="1256" y="466" type="line"/>
			<point x="1176" y="354"/>
			<point x="1048" y="344"/>
		</contour>
	</outline>
</glyph>
<glyph name="A" format="2">
	<unicode hex="0041"/>
	<advance width="967"/>
	<outline>
		<contour>
			<point x="484" y="704" type="curve" smooth="yes"/>
			<point x="453" y="704"/>
			<point x="441" y="704"/>
			<point x="428" y="676" type="curve" smooth="yes"/>
			<point x="157" y="70" type="line" smooth="yes"/>
			<point x="151" y="56"/>
			<point x="120" y="56"/>
			<point x="51" y="56" type="curve"/>
			<point x="51" y="0" type="line"/>
			<point x="55" y="0"/>
			<point x="131" y="4"/>
			<point x="176" y="4" type="curve" smooth="yes"/>
			<point x="220" y="4"/>
			<point x="313" y="0"/>
			<point x="318" y="0" type="curve"/>
			<point x="318" y="56" type="line"/>
			<point x="315" y="56"/>
			<point x="232" y="56"/>
			<point x="232" y="64" type="curve" smooth="yes"/>
			<point x="232" y="65"/>
			<point x="236" y="73"/>
			<point x="237" y="75" type="curve" smooth="yes"/>
			<point x="291" y="196" type="line"/>
			<point x="596" y="196" type="line"/>
			<point x="659" y="56" type="line"/>
			<point x="659" y="56"/>
			<point x="659" y="56"/>
			<point x="659" y="56" type="curve"/>
			<point x="629.03" y="56"/>
			<point x="599.06" y="56"/>
			<point x="569" y="56" type="curve"/>
			<point x="569" y="0" type="line"/>
			<point x="621" y="4"/>
			<point x="698" y="4"/>
			<point x="751" y="4" type="curve" smooth="yes"/>
			<point x="813" y="4"/>
			<point x="902" y="1"/>
			<point x="916" y="0" type="curve"/>
			<point x="916" y="56" type="line"/>
			<point x="916" y="56" type="line"/>
			<point x="883.033" y="56"/>
			<point x="850.066" y="56"/>
			<point x="817" y="56" type="curve"/>
			<point x="539" y="676" type="line" smooth="yes"/>
			<point x="526" y="704"/>
			<point x="514" y="704"/>
		</contour>
		<contour>
			<point x="443" y="536" type="line"/>
			<point x="571" y="252" type="line"/>
			<point x="316" y="252" type="line"/>
		</contour>
	</outline>
</glyph>
<glyph name="B" format="2">
	<unicode hex="0042"/>
	<advance width="1828"/>
	<outline>
		<contour>
			<point x="1676" y="374" type="curve" smooth="yes"/>
			<point x="1676" y="524"/>
			<point x="1552" y="680"/>
			<point x="1242" y="718" type="curve"/>
			<point x="1490" y="764"/>
			<point x="1604" y="892"/>
			<point x="1604" y="1024" type="curve" smooth="yes"/>
			<point x="1604" y="1220"/>
			<point x="1396" y="1372"/>
			<point x="1056" y="1372" type="curve" smooth="yes"/>
			<point x="118" y="1372" type="line"/>
			<point x="118" y="1260" type="line"/>
			<point x="332" y="1260" type="line"/>
			<point x="332" y="1260"/>
			<point x="332" y="1260"/>
			<point x="332" y="1260" type="curve"/>
			<point x="332" y="112" type="line"/>
			<point x="332" y="112"/>
			<point x="332" y="112"/>
			<point x="332" y="112" type="curve"/>
			<point x="118" y="112" type="line"/>
			<point x="118" y="0" type="line"/>
			<point x="1124" y="0" type="line" smooth="yes"/>
			<point x="1482" y="0"/>
			<point x="1676" y="174"/>
		</contour>
		<contour>
			<point x="608" y="760" type="line"/>
			<point x="608" y="1260" type="line"/>
			<point x="608" y="1260"/>
			<point x="608" y="1260"/>
			<point x="608" y="1260" type="curve"/>
			<point x="1030" y="1260" type="line" smooth="yes"/>
			<point x="1226" y="1260"/>
			<point x="1304" y="1146"/>
			<point x="1304" y="1024" type="curve" smooth="yes"/>
			<point x="1304" y="862"/>
			<point x="1170" y="760"/>
			<point x="974" y="760" type="curve" smooth="yes"/>
		</contour>
		<contour>
			<point x="1036" y="112" type="curve" smooth="yes"/>
			<point x="608" y="112" type="line"/>
			<point x="608" y="112"/>
			<point x="608" y="112"/>
			<point x="608" y="112" type="curve"/>
			<point x="608" y="668" type="line"/>
			<point x="1056" y="668" type="line" smooth="yes"/>
			<point x="1338" y="668"/>
			<point x="1364" y="450"/>
			<point x="1364" y="378" type="curve" smooth="yes"/>
			<point x="1364" y="244"/>
			<point x="1268" y="112"/>
		</contour>
	</outline>
</glyph>
<glyph name="C" format="2">
	<unicode hex="0043"/>
	<advance width="1862"/>
	<outline>
		<contour>
			<point x="150" y="686" type="curve" smooth="yes"/>
			<point x="150" y="308"/>
			<point x="446" y="-24"/>
			<point x="1036" y="-24" type="curve" smooth="yes"/>
			<point x="1448" y="-24"/>
			<point x="1710" y="208"/>
			<point x="1710" y="456" type="curve" smooth="yes"/>
			<point x="1710" y="506"/>
			<point x="1688" y="506"/>
			<point x="1646" y="506" type="curve" smooth="yes"/>
			<point x="1618" y="506"/>
			<point x="1586" y="506"/>
			<point x="1584" y="472" type="curve" smooth="yes"/>
			<point x="1566" y="166"/>
			<point x="1260" y="88"/>
			<point x="1086" y="88" type="curve" smooth="yes"/>
			<point x="922" y="88"/>
			<point x="738" y="128"/>
			<point x="618" y="246" type="curve" smooth="yes"/>
			<point x="504" y="360"/>
			<point x="476" y="528"/>
			<point x="476" y="686" type="curve" smooth="yes"/>
			<point x="476" y="876"/>
			<point x="516" y="1050"/>
			<point x="652" y="1156" type="curve" smooth="yes"/>
			<point x="790" y="1262"/>
			<point x="958" y="1284"/>
			<point x="1082" y="1284" type="curve" smooth="yes"/>
			<point x="1340" y="1284"/>
			<point x="1524" y="1108"/>
			<point x="1564" y="900" type="curve" smooth="yes"/>
			<point x="1574" y="846"/>
			<point x="1572" y="842"/>
			<point x="1640" y="842" type="curve" smooth="yes"/>
			<point x="1706" y="842"/>
			<point x="1710" y="848"/>
			<point x="1710" y="906" type="curve" smooth="yes"/>
			<point x="1710" y="1332" type="line" smooth="yes"/>
			<point x="1710" y="1372"/>
			<point x="1710" y="1396"/>
			<point x="1664" y="1396" type="curve" smooth="yes"/>
			<point x="1640" y="1396"/>
			<point x="1636" y="1394"/>
			<point x="1616" y="1376" type="curve" smooth="yes"/>
			<point x="1482" y="1260" type="line"/>
			<point x="1284" y="1396"/>
			<point x="1094" y="1396"/>
			<point x="1034" y="1396" type="curve" smooth="yes"/>
			<point x="454" y="1396"/>
			<point x="150" y="1070"/>
		</contour>
	</outline>
</glyph>
<glyph name="D" format="2">
	<unicode hex="0044"/>
	<advance width="1970"/>
	<outline>
		<contour>
			<point x="1818" y="676" type="curve" smooth="yes"/>
			<point x="1818" y="1094"/>
			<point x="1506" y="1372"/>
			<point x="1050" y="1372" type="curve" smooth="yes"/>
			<point x="114" y="1372" type="line"/>
			<point x="114" y="1260" type="line"/>
			<point x="185" y="1260"/>
			<point x="257" y="1260"/>
			<point x="328" y="1260" type="curve"/>
			<point x="328" y="1260"/>
			<point x="328" y="1260"/>
			<point x="328" y="1260" type="curve"/>
			<point x="328" y="112" type="line"/>
			<point x="328" y="112"/>
			<point x="328" y="112"/>
			<point x="328" y="112" type="curve"/>
			<point x="257" y="112"/>
			<point x="185" y="112"/>
			<point x="114" y="112" type="curve"/>
			<point x="114" y="0" type="line"/>
			<point x="1052" y="0" type="line" smooth="yes"/>
			<point x="1492" y="0"/>
			<point x="1818" y="254"/>
		</contour>
		<contour>
			<point x="616" y="112" type="line"/>
			<point x="616" y="112"/>
			<point x="616" y="112"/>
			<point x="616" y="112" type="curve"/>
			<point x="616" y="1260" type="line"/>
			<point x="616" y="1260"/>
			<point x="616" y="1260"/>
			<point x="616" y="1260" type="curve"/>
			<point x="966" y="1260" type="line" smooth="yes"/>
			<point x="1166" y="1260"/>
			<point x="1292" y="1205"/>
			<point x="1371" y="1126" type="curve" smooth="yes"/>
			<point x="1506" y="992"/>
			<point x="1506" y="791"/>
			<point x="1506" y="676" type="curve" smooth="yes"/>
			<point x="1506" y="564"/>
			<point x="1506" y="374"/>
			<point x="1377" y="246" type="curve" smooth="yes"/>
			<point x="1299" y="167"/>
			<point x="1172" y="112"/>
			<point x="968" y="112" type="curve" smooth="yes"/>
		</contour>
	</outline>
</glyph>
<glyph name="E" format="2">
	<unicode hex="0045"/>
	<advance width="1688"/>
	<outline>
		<contour>
			<point x="1606" y="538" type="line"/>
			<point x="1480" y="538" type="line"/>
			<point x="1426" y="252"/>
			<point x="1340" y="112"/>
			<point x="996" y="112" type="curve" smooth="yes"/>
			<point x="630" y="112" type="line"/>
			<point x="630" y="112"/>
			<point x="630" y="112"/>
			<point x="630" y="112" type="curve"/>
			<point x="630" y="648" type="line"/>
			<point x="762" y="648" type="line" smooth="yes"/>
			<point x="932" y="648"/>
			<point x="990" y="602"/>
			<point x="990" y="428" type="curve"/>
			<point x="1116" y="428" type="line"/>
			<point x="1116" y="980" type="line"/>
			<point x="990" y="980" type="line"/>
			<point x="990" y="808"/>
			<point x="934" y="760"/>
			<point x="762" y="760" type="curve" smooth="yes"/>
			<point x="630" y="760" type="line"/>
			<point x="630" y="1246" type="line"/>
			<point x="630" y="1246"/>
			<point x="630" y="1246"/>
			<point x="630" y="1246" type="curve"/>
			<point x="976" y="1246" type="line" smooth="yes"/>
			<point x="1256" y="1246"/>
			<point x="1370" y="1168"/>
			<point x="1410" y="880" type="curve"/>
			<point x="1536" y="880" type="line"/>
			<point x="1468" y="1358" type="line"/>
			<point x="114" y="1358" type="line"/>
			<point x="114" y="1246" type="line"/>
			<point x="328" y="1246" type="line"/>
			<point x="328" y="1246"/>
			<point x="328" y="1246"/>
			<point x="328" y="1246" type="curve"/>
			<point x="328" y="112" type="line"/>
			<point x="328" y="112"/>
			<point x="328" y="112"/>
			<point x="328" y="112" type="curve"/>
			<point x="114" y="112" type="line"/>
			<point x="114" y="0" type="line"/>
			<point x="1504" y="0" type="line"/>
		</contour>
	</outline>
</glyph>
<glyph name="F" format="2">
	<unicode hex="0046"/>
	<advance width="1616"/>
	<outline>
		<contour>
			<point x="1434" y="1358" type="line"/>
			<point x="114" y="1358" type="line"/>
			<point x="114" y="1246" type="line"/>
			<point x="328" y="1246" type="line"/>
			<point x="328" y="1246"/>
			<point x="328" y="1246"/>
			<point x="328" y="1246" type="curve"/>
			<point x="328" y="112" type="line"/>
			<point x="328" y="112"/>
			<point x="328" y="112"/>
			<point x="328" y="112" type="curve"/>
			<point x="114" y="112" type="line"/>
			<point x="114" y="0" type="line"/>
			<point x="166" y="4"/>
			<point x="468" y="8"/>
			<point x="484" y="8" type="curve" smooth="yes"/>
			<point x="610" y="8"/>
			<point x="772" y="6"/>
			<point x="898" y="0" type="curve"/>
			<point x="898" y="112" type="line"/>
			<point x="630" y="112" type="line"/>
			<point x="630" y="112"/>
			<point x="630" y="112"/>
			<point x="630" y="112" type="curve"/>
			<point x="630" y="624" type="line"/>
			<point x="754" y="624" type="line" smooth="yes"/>
			<point x="930" y="624"/>
			<point x="976" y="568"/>
			<point x="976" y="404" type="curve"/>
			<point x="1102" y="404" type="line"/>
			<point x="1102" y="956" type="line"/>
			<point x="976" y="956" type="line"/>
			<point x="976" y="794"/>
			<point x="932" y="736"/>
			<point x="754" y="736" type="curve" smooth="yes"/>
			<point x="630" y="736" type="line"/>
			<point x="630" y="1246" type="line"/>
			<point x="630" y="1246"/>
			<point x="630" y="1246"/>
			<point x="630" y="1246" type="curve"/>
			<point x="956" y="1246" type="line" smooth="yes"/>
			<point x="1240" y="1246"/>
			<point x="1338" y="1154"/>
			<point x="1376" y="880" type="curve"/>
			<point x="1502" y="880" type="line"/>
		</contour>
	</outline>
</glyph>
<glyph name="G" format="2">
  <advance width="1011"/>
  <unicode hex="0047"/>
  <outline>
    <contour>
      <point x="526" y="-12" type="curve" smooth="yes"/>
      <point x="558" y="-12"/>
      <point x="611" y="-11"/>
      <point x="660" y="0" type="curve" smooth="yes"/>
      <point x="694" y="8"/>
      <point x="726" y="21"/>
      <point x="747" y="42" type="curve"/>
      <point x="770" y="26"/>
      <point x="830" y="0"/>
      <point x="838" y="0" type="curve" smooth="yes"/>
      <point x="856" y="0"/>
      <point x="856" y="17"/>
      <point x="856" y="32" type="curve" smooth="yes"/>
      <point x="856.0" y="94.271"/>
      <point x="856.0" y="156.542"/>
      <point x="856" y="219" type="curve"/>
      <point x="856.0" y="219.0"/>
      <point x="856.0" y="219.0"/>
      <point x="856" y="219" type="curve"/>
      <point x="886" y="219"/>
      <point x="915" y="219"/>
      <point x="945" y="219" type="curve"/>
      <point x="945.0" y="237.648"/>
      <point x="945.0" y="256.296"/>
      <point x="945" y="275" type="curve"/>
      <point x="930" y="274"/>
      <point x="837" y="271"/>
      <point x="775" y="271" type="curve" smooth="yes"/>
      <point x="707" y="271"/>
      <point x="615" y="270"/>
      <point x="545" y="275" type="curve"/>
      <point x="545.0" y="256.352"/>
      <point x="545.0" y="237.704"/>
      <point x="545" y="219" type="curve"/>
      <point x="598.28" y="219.0"/>
      <point x="651.56" y="219.0"/>
      <point x="705" y="219" type="curve"/>
      <point x="705" y="219"/>
      <point x="705" y="219"/>
      <point x="705" y="219" type="curve"/>
      <point x="705.0" y="188.031"/>
      <point x="705.0" y="157.062"/>
      <point x="705" y="126" type="curve" smooth="yes"/>
      <point x="705" y="108"/>
      <point x="705" y="74"/>
      <point x="652" y="56" type="curve" smooth="yes"/>
      <point x="630" y="49"/>
      <point x="599" y="44"/>
      <point x="555" y="44" type="curve" smooth="yes"/>
      <point x="510" y="44"/>
      <point x="400" y="48"/>
      <point x="321" y="115" type="curve" smooth="yes"/>
      <point x="274" y="155"/>
      <point x="238" y="218"/>
      <point x="238" y="344" type="curve" smooth="yes"/>
      <point x="238" y="445"/>
      <point x="261" y="518"/>
      <point x="314" y="568" type="curve" smooth="yes"/>
      <point x="380" y="629"/>
      <point x="479" y="642"/>
      <point x="541" y="642" type="curve" smooth="yes"/>
      <point x="653" y="642"/>
      <point x="759" y="574"/>
      <point x="784" y="445" type="curve" smooth="yes"/>
      <point x="788" y="424"/>
      <point x="788" y="421"/>
      <point x="821" y="421" type="curve" smooth="yes"/>
      <point x="854" y="421"/>
      <point x="856" y="424"/>
      <point x="856" y="453" type="curve" smooth="yes"/>
      <point x="856.0" y="523.929"/>
      <point x="856.0" y="594.858"/>
      <point x="856" y="666" type="curve" smooth="yes"/>
      <point x="856" y="686"/>
      <point x="856" y="698"/>
      <point x="833" y="698" type="curve" smooth="yes"/>
      <point x="821" y="698"/>
      <point x="819" y="697"/>
      <point x="809" y="688" type="curve" smooth="yes"/>
      <point x="786.689" y="668.686"/>
      <point x="764.378" y="649.372"/>
      <point x="742" y="630" type="curve"/>
      <point x="641" y="698"/>
      <point x="549" y="698"/>
      <point x="517" y="698" type="curve" smooth="yes"/>
      <point x="228" y="698"/>
      <point x="75" y="536"/>
      <point x="75" y="343" type="curve" smooth="yes"/>
      <point x="75" y="182"/>
      <point x="190" y="-12"/>
    </contour>
  </outline>
</glyph>
<glyph name="H" format="2">
	<unicode hex="0048"/>
	<advance width="2004"/>
	<outline>
		<contour>
			<point x="114" y="0" type="line"/>
			<point x="160" y="4"/>
			<point x="446" y="8"/>
			<point x="478" y="8" type="curve" smooth="yes"/>
			<point x="522" y="8"/>
			<point x="800" y="4"/>
			<point x="844" y="0" type="curve"/>
			<point x="844" y="112" type="line"/>
			<point x="630" y="112" type="line"/>
			<point x="630" y="112"/>
			<point x="630" y="112"/>
			<point x="630" y="112" type="curve"/>
			<point x="630" y="658" type="line"/>
			<point x="1372" y="658" type="line"/>
			<point x="1372" y="112" type="line"/>
			<point x="1372" y="112"/>
			<point x="1372" y="112"/>
			<point x="1372" y="112" type="curve"/>
			<point x="1158" y="112" type="line"/>
			<point x="1158" y="0" type="line"/>
			<point x="1204" y="4"/>
			<point x="1490" y="8"/>
			<point x="1522" y="8" type="curve" smooth="yes"/>
			<point x="1566" y="8"/>
			<point x="1844" y="4"/>
			<point x="1888" y="0" type="curve"/>
			<point x="1888" y="112" type="line"/>
			<point x="1674" y="112" type="line"/>
			<point x="1674" y="112"/>
			<point x="1674" y="112"/>
			<point x="1674" y="112" type="curve"/>
			<point x="1674" y="1260" type="line"/>
			<point x="1674" y="1260"/>
			<point x="1674" y="1260"/>
			<point x="1674" y="1260" type="curve"/>
			<point x="1888" y="1260" type="line"/>
			<point x="1888" y="1372" type="line"/>
			<point x="1842" y="1368"/>
			<point x="1556" y="1364"/>
			<point x="1524" y="1364" type="curve" smooth="yes"/>
			<point x="1480" y="1364"/>
			<point x="1202" y="1368"/>
			<point x="1158" y="1372" type="curve"/>
			<point x="1158" y="1260" type="line"/>
			<point x="1372" y="1260" type="line"/>
			<point x="1372" y="1260"/>
			<point x="1372" y="1260"/>
			<point x="1372" y="1260" type="curve"/>
			<point x="1372" y="770" type="line"/>
			<point x="630" y="770" type="line"/>
			<point x="630" y="1260" type="line"/>
			<point x="630" y="1260"/>
			<point x="630" y="1260"/>
			<point x="630" y="1260" type="curve"/>
			<point x="844" y="1260" type="line"/>
			<point x="844" y="1372" type="line"/>
			<point x="798" y="1368"/>
			<point x="512" y="1364"/>
			<point x="480" y="1364" type="curve" smooth="yes"/>
			<point x="436" y="1364"/>
			<point x="158" y="1368"/>
			<point x="114" y="1372" type="curve"/>
			<point x="114" y="1260" type="line"/>
			<point x="328" y="1260" type="line"/>
			<point x="328" y="1260"/>
			<point x="328" y="1260"/>
			<point x="328" y="1260" type="curve"/>
			<point x="328" y="112" type="line"/>
			<point x="328" y="112"/>
			<point x="328" y="112"/>
			<point x="328" y="112" type="curve"/>
			<point x="114" y="112" type="line"/>
		</contour>
	</outline>
</glyph>
<glyph name="I" format="2">
	<unicode hex="0049"/>
	<advance width="958"/>
	<outline>
		<contour>
			<point x="102" y="0" type="line"/>
			<point x="202" y="8"/>
			<point x="372" y="8"/>
			<point x="478" y="8" type="curve" smooth="yes"/>
			<point x="584" y="8"/>
			<point x="756" y="8"/>
			<point x="856" y="0" type="curve"/>
			<point x="856" y="112" type="line"/>
			<point x="630" y="112" type="line"/>
			<point x="630" y="112"/>
			<point x="630" y="112"/>
			<point x="630" y="112" type="curve"/>
			<point x="630" y="1260" type="line"/>
			<point x="630" y="1260"/>
			<point x="630" y="1260"/>
			<point x="630" y="1260" type="curve"/>
			<point x="856" y="1260" type="line"/>
			<point x="856" y="1372" type="line"/>
			<point x="756" y="1364"/>
			<point x="586" y="1364"/>
			<point x="480" y="1364" type="curve" smooth="yes"/>
			<point x="374" y="1364"/>
			<point x="202" y="1364"/>
			<point x="102" y="1372" type="curve"/>
			<point x="102" y="1260" type="line"/>
			<point x="328" y="1260" type="line"/>
			<point x="328" y="1260"/>
			<point x="328" y="1260"/>
			<point x="328" y="1260" type="curve"/>
			<point x="328" y="112" type="line"/>
			<point x="328" y="112"/>
			<point x="328" y="112"/>
			<point x="328" y="112" type="curve"/>
			<point x="102" y="112" type="line"/>
		</contour>
	</outline>
</glyph>
<glyph name="J" format="2">
	<unicode hex="004A"/>
	<advance width="1330"/>
	<outline>
		<contour>
			<point x="502" y="-24" type="curve" smooth="yes"/>
			<point x="812" y="-24"/>
			<point x="1000" y="102"/>
			<point x="1000" y="300" type="curve" smooth="yes"/>
			<point x="1000" y="1260" type="line"/>
			<point x="1000" y="1260"/>
			<point x="1000" y="1260"/>
			<point x="1000" y="1260" type="curve"/>
			<point x="1160" y="1260" type="line"/>
			<point x="1160" y="1372" type="line"/>
			<point x="1152" y="1372"/>
			<point x="932" y="1364"/>
			<point x="846" y="1364" type="curve" smooth="yes"/>
			<point x="742" y="1364"/>
			<point x="582" y="1366"/>
			<point x="434" y="1372" type="curve"/>
			<point x="434" y="1260" type="line"/>
			<point x="712" y="1260" type="line"/>
			<point x="712" y="1260"/>
			<point x="712" y="1260"/>
			<point x="712" y="1260" type="curve"/>
			<point x="712" y="302" type="line" smooth="yes"/>
			<point x="712" y="258"/>
			<point x="712" y="68"/>
			<point x="494" y="68" type="curve" smooth="yes"/>
			<point x="486" y="68"/>
			<point x="400" y="68"/>
			<point x="332" y="96" type="curve"/>
			<point x="376" y="128"/>
			<point x="398" y="172"/>
			<point x="398" y="228" type="curve" smooth="yes"/>
			<point x="398" y="338"/>
			<point x="312" y="392"/>
			<point x="236" y="392" type="curve" smooth="yes"/>
			<point x="152" y="392"/>
			<point x="72" y="332"/>
			<point x="72" y="228" type="curve" smooth="yes"/>
			<point x="72" y="76"/>
			<point x="216" y="-24"/>
		</contour>
	</outline>
</glyph>
<glyph name="L" format="2">
	<unicode hex="004C"/>
	<advance width="1546"/>
	<outline>
		<contour>
			<point x="1430" y="538" type="line"/>
			<point x="1304" y="538" type="line"/>
			<point x="1282" y="360"/>
			<point x="1218" y="112"/>
			<point x="866" y="112" type="curve" smooth="yes"/>
			<point x="630" y="112" type="line"/>
			<point x="630" y="112"/>
			<point x="630" y="112"/>
			<point x="630" y="112" type="curve"/>
			<point x="630" y="1260" type="line"/>
			<point x="630" y="1260"/>
			<point x="630" y="1260"/>
			<point x="630" y="1260" type="curve"/>
			<point x="898" y="1260" type="line"/>
			<point x="898" y="1372" type="line"/>
			<point x="782" y="1364"/>
			<point x="601" y="1364"/>
			<point x="484" y="1364" type="curve" smooth="yes"/>
			<point x="360" y="1364"/>
			<point x="224" y="1364"/>
			<point x="114" y="1372" type="curve"/>
			<point x="114" y="1260" type="line"/>
			<point x="328" y="1260" type="line"/>
			<point x="328" y="1260"/>
			<point x="328" y="1260"/>
			<point x="328" y="1260" type="curve"/>
			<point x="328" y="112" type="line"/>
			<point x="328" y="112"/>
			<point x="328" y="112"/>
			<point x="328" y="112" type="curve"/>
			<point x="114" y="112" type="line"/>
			<point x="114" y="0" type="line"/>
			<point x="1362" y="0" type="line"/>
		</contour>
	</outline>
</glyph>
<glyph name="M" format="2">
	<unicode hex="004D"/>
	<advance width="1215"/>
	<outline>
		<contour>
			<point x="607" y="125" type="line"/>
			<point x="343" y="658" type="line" smooth="yes"/>
			<point x="329" y="686"/>
			<point x="314" y="686"/>
			<point x="293" y="686" type="curve" smooth="yes"/>
			<point x="63" y="686" type="line"/>
			<point x="63" y="630" type="line"/>
			<point x="170" y="630" type="line"/>
			<point x="170" y="630"/>
			<point x="170" y="630"/>
			<point x="170" y="630" type="curve"/>
			<point x="170" y="81" type="line" smooth="yes"/>
			<point x="170" y="56"/>
			<point x="165" y="56"/>
			<point x="96" y="56" type="curve" smooth="yes"/>
			<point x="63" y="56" type="line"/>
			<point x="63" y="0" type="line"/>
			<point x="76" y="1"/>
			<point x="167" y="4"/>
			<point x="205" y="4" type="curve" smooth="yes"/>
			<point x="243" y="4"/>
			<point x="339" y="0"/>
			<point x="347" y="0" type="curve"/>
			<point x="347" y="56" type="line"/>
			<point x="314" y="56" type="line" smooth="yes"/>
			<point x="243" y="56"/>
			<point x="240" y="58"/>
			<point x="240" y="81" type="curve" smooth="yes"/>
			<point x="240" y="613" type="line"/>
			<point x="241" y="613" type="line"/>
			<point x="531" y="28" type="line" smooth="yes"/>
			<point x="538" y="14"/>
			<point x="547" y="0"/>
			<point x="573" y="0" type="curve" smooth="yes"/>
			<point x="582" y="0"/>
			<point x="602" y="0"/>
			<point x="615" y="27" type="curve" smooth="yes"/>
			<point x="912" y="627" type="line"/>
			<point x="913" y="627" type="line"/>
			<point x="913" y="56" type="line"/>
			<point x="913" y="56"/>
			<point x="913" y="56"/>
			<point x="913" y="56" type="curve"/>
			<point x="806" y="56" type="line"/>
			<point x="806" y="0" type="line"/>
			<point x="823" y="1"/>
			<point x="934" y="4"/>
			<point x="979" y="4" type="curve" smooth="yes"/>
			<point x="1034" y="4"/>
			<point x="1139" y="1"/>
			<point x="1151" y="0" type="curve"/>
			<point x="1151" y="56" type="line"/>
			<point x="1044" y="56" type="line"/>
			<point x="1044" y="56"/>
			<point x="1044" y="56"/>
			<point x="1044" y="56" type="curve"/>
			<point x="1044" y="630" type="line"/>
			<point x="1044" y="630"/>
			<point x="1044" y="630"/>
			<point x="1044" y="630" type="curve"/>
			<point x="1151" y="630" type="line"/>
			<point x="1151" y="686" type="line"/>
			<point x="921" y="686" type="line" smooth="yes"/>
			<point x="902" y="686"/>
			<point x="884" y="686"/>
			<point x="871" y="659" type="curve" smooth="yes"/>
		</contour>
	</outline>
</glyph>
<glyph name="N" format="2">
	<unicode hex="004E"/>
	<advance width="2004"/>
	<outline>
		<contour>
			<point x="1534" y="408" type="line"/>
			<point x="654" y="1346" type="line" smooth="yes"/>
			<point x="630" y="1372"/>
			<point x="626" y="1372"/>
			<point x="584" y="1372" type="curve" smooth="yes"/>
			<point x="114" y="1372" type="line"/>
			<point x="114" y="1260" type="line"/>
			<point x="114" y="1260" type="line"/>
			<point x="185" y="1260"/>
			<point x="257" y="1260"/>
			<point x="328" y="1260" type="curve"/>
			<point x="328" y="1260"/>
			<point x="328" y="1260"/>
			<point x="328" y="1260" type="curve"/>
			<point x="328" y="146" type="line" smooth="yes"/>
			<point x="328" y="116"/>
			<point x="320" y="112"/>
			<point x="162" y="112" type="curve" smooth="yes"/>
			<point x="114" y="112" type="line"/>
			<point x="114" y="0" type="line"/>
			<point x="140" y="2"/>
			<point x="322" y="8"/>
			<point x="398" y="8" type="curve" smooth="yes"/>
			<point x="474" y="8"/>
			<point x="666" y="0"/>
			<point x="682" y="0" type="curve"/>
			<point x="682" y="112" type="line"/>
			<point x="666" y="112" type="line" smooth="yes"/>
			<point x="474" y="112"/>
			<point x="468" y="112"/>
			<point x="468" y="162" type="curve" smooth="yes"/>
			<point x="468" y="1162" type="line"/>
			<point x="468" y="1162"/>
			<point x="468" y="1162"/>
			<point x="468" y="1162" type="curve"/>
			<point x="1536" y="24" type="line" smooth="yes"/>
			<point x="1558" y="0"/>
			<point x="1564" y="0"/>
			<point x="1604" y="0" type="curve" smooth="yes"/>
			<point x="1664" y="0"/>
			<point x="1674" y="10"/>
			<point x="1674" y="70" type="curve" smooth="yes"/>
			<point x="1674" y="1226" type="line" smooth="yes"/>
			<point x="1674" y="1272"/>
			<point x="1758" y="1260"/>
			<point x="1848" y="1260" type="curve" smooth="yes"/>
			<point x="1888" y="1260" type="line"/>
			<point x="1888" y="1372" type="line"/>
			<point x="1862" y="1370"/>
			<point x="1680" y="1364"/>
			<point x="1604" y="1364" type="curve" smooth="yes"/>
			<point x="1528" y="1364"/>
			<point x="1336" y="1372"/>
			<point x="1320" y="1372" type="curve"/>
			<point x="1320" y="1260" type="line"/>
			<point x="1414" y="1260" type="line" smooth="yes"/>
			<point x="1524" y="1260"/>
			<point x="1534" y="1252"/>
			<point x="1534" y="1210" type="curve" smooth="yes"/>
		</contour>
	</outline>
</glyph>
<glyph name="O" format="2">
	<unicode hex="004F"/>
	<advance width="1936"/>
	<outline>
		<contour>
			<point x="1784" y="678" type="curve" smooth="yes"/>
			<point x="1784" y="1070"/>
			<point x="1506" y="1396"/>
			<point x="968" y="1396" type="curve" smooth="yes"/>
			<point x="418" y="1396"/>
			<point x="150" y="1062"/>
			<point x="150" y="678" type="curve" smooth="yes"/>
			<point x="150" y="290"/>
			<point x="430" y="-24"/>
			<point x="966" y="-24" type="curve" smooth="yes"/>
			<point x="1514" y="-24"/>
			<point x="1784" y="298"/>
		</contour>
		<contour>
			<point x="966" y="82" type="curve" smooth="yes"/>
			<point x="842" y="82"/>
			<point x="680" y="124"/>
			<point x="576" y="274" type="curve" smooth="yes"/>
			<point x="484" y="410"/>
			<point x="476" y="598"/>
			<point x="476" y="708" type="curve" smooth="yes"/>
			<point x="476" y="842"/>
			<point x="488" y="1004"/>
			<point x="588" y="1132" type="curve" smooth="yes"/>
			<point x="672" y="1236"/>
			<point x="810" y="1294"/>
			<point x="966" y="1294" type="curve" smooth="yes"/>
			<point x="1128" y="1294"/>
			<point x="1237" y="1244"/>
			<point x="1310" y="1172" type="curve" smooth="yes"/>
			<point x="1458" y="1026"/>
			<point x="1458" y="790"/>
			<point x="1458" y="708" type="curve" smooth="yes"/>
			<point x="1458" y="556"/>
			<point x="1440" y="404"/>
			<point x="1362" y="280" type="curve" smooth="yes"/>
			<point x="1270" y="138"/>
			<point x="1114" y="82"/>
		</contour>
	</outline>
</glyph>
<glyph name="P" format="2">
	<unicode hex="0050"/>
	<advance width="1756"/>
	<outline>
		<contour>
			<point x="630" y="584" type="line"/>
			<point x="1020" y="584" type="line" smooth="yes"/>
			<point x="1386" y="584"/>
			<point x="1606" y="754"/>
			<point x="1606" y="974" type="curve" smooth="yes"/>
			<point x="1606" y="1192"/>
			<point x="1392" y="1372"/>
			<point x="1020" y="1372" type="curve" smooth="yes"/>
			<point x="114" y="1372" type="line"/>
			<point x="114" y="1260" type="line"/>
			<point x="328" y="1260" type="line"/>
			<point x="328" y="1260"/>
			<point x="328" y="1260"/>
			<point x="328" y="1260" type="curve"/>
			<point x="328" y="112" type="line"/>
			<point x="328" y="112"/>
			<point x="328" y="112"/>
			<point x="328" y="112" type="curve"/>
			<point x="114" y="112" type="line"/>
			<point x="114" y="0" type="line"/>
			<point x="160" y="4"/>
			<point x="446" y="8"/>
			<point x="478" y="8" type="curve" smooth="yes"/>
			<point x="522" y="8"/>
			<point x="800" y="4"/>
			<point x="844" y="0" type="curve"/>
			<point x="844" y="112" type="line"/>
			<point x="630" y="112" type="line"/>
			<point x="630" y="112"/>
			<point x="630" y="112"/>
			<point x="630" y="112" type="curve"/>
		</contour>
		<contour>
			<point x="616" y="686" type="line"/>
			<point x="616" y="1260" type="line"/>
			<point x="616" y="1260"/>
			<point x="616" y="1260"/>
			<point x="616" y="1260" type="curve"/>
			<point x="952" y="1260" type="line" smooth="yes"/>
			<point x="1280" y="1260"/>
			<point x="1280" y="1102"/>
			<point x="1280" y="974" type="curve" smooth="yes"/>
			<point x="1280" y="844"/>
			<point x="1280" y="686"/>
			<point x="948" y="686" type="curve" smooth="yes"/>
		</contour>
	</outline>
</glyph>
<glyph name="Q" format="2">
	<unicode hex="0051"/>
	<advance width="1936"/>
	<outline>
		<contour>
			<point x="1338" y="38" type="curve"/>
			<point x="1704" y="176"/>
			<point x="1784" y="480"/>
			<point x="1784" y="678" type="curve" smooth="yes"/>
			<point x="1784" y="1070"/>
			<point x="1506" y="1396"/>
			<point x="968" y="1396" type="curve" smooth="yes"/>
			<point x="418" y="1396"/>
			<point x="150" y="1062"/>
			<point x="150" y="678" type="curve" smooth="yes"/>
			<point x="150" y="290"/>
			<point x="430" y="-24"/>
			<point x="966" y="-24" type="curve" smooth="yes"/>
			<point x="1014" y="-24"/>
			<point x="1092" y="-22"/>
			<point x="1174" y="-6" type="curve"/>
			<point x="1232" y="-200"/>
			<point x="1292" y="-388"/>
			<point x="1492" y="-388" type="curve" smooth="yes"/>
			<point x="1696" y="-388"/>
			<point x="1798" y="-170"/>
			<point x="1798" y="-14" type="curve" smooth="yes"/>
			<point x="1798" y="0"/>
			<point x="1798" y="44"/>
			<point x="1754" y="44" type="curve" smooth="yes"/>
			<point x="1716" y="44"/>
			<point x="1712" y="10"/>
			<point x="1710" y="-4" type="curve" smooth="yes"/>
			<point x="1704" y="-40"/>
			<point x="1664" y="-62"/>
			<point x="1534" y="-62" type="curve" smooth="yes"/>
			<point x="1480" y="-62"/>
			<point x="1416" y="-62"/>
		</contour>
		<contour>
			<point x="746" y="120" type="curve"/>
			<point x="476" y="234"/>
			<point x="462" y="526"/>
			<point x="462" y="678" type="curve" smooth="yes"/>
			<point x="462" y="762"/>
			<point x="466" y="964"/>
			<point x="562" y="1100" type="curve" smooth="yes"/>
			<point x="678" y="1262"/>
			<point x="848" y="1294"/>
			<point x="966" y="1294" type="curve" smooth="yes"/>
			<point x="1104" y="1294"/>
			<point x="1270" y="1248"/>
			<point x="1374" y="1098" type="curve" smooth="yes"/>
			<point x="1462" y="966"/>
			<point x="1472" y="792"/>
			<point x="1472" y="678" type="curve" smooth="yes"/>
			<point x="1472" y="520"/>
			<point x="1454" y="274"/>
			<point x="1246" y="150" type="curve"/>
			<point x="1172" y="234"/>
			<point x="1096" y="320"/>
			<point x="966" y="320" type="curve" smooth="yes"/>
			<point x="850" y="320"/>
			<point x="744" y="256"/>
			<point x="744" y="150" type="curve" smooth="yes"/>
			<point x="744" y="132"/>
			<point x="744" y="128"/>
		</contour>
		<contour>
			<point x="1132" y="100" type="curve"/>
			<point x="1120" y="96"/>
			<point x="1050" y="78"/>
			<point x="968" y="78" type="curve" smooth="yes"/>
			<point x="944" y="78"/>
			<point x="836" y="78"/>
			<point x="836" y="150" type="curve" smooth="yes"/>
			<point x="836" y="206"/>
			<point x="914" y="228"/>
			<point x="966" y="228" type="curve" smooth="yes"/>
			<point x="1038" y="228"/>
			<point x="1090" y="194"/>
		</contour>
	</outline>
</glyph>
<glyph name="R" format="2">
	<unicode hex="0052"/>
	<advance width="1918"/>
	<outline>
		<contour>
			<point x="1260" y="678" type="curve"/>
			<point x="1370" y="712"/>
			<point x="1590" y="802"/>
			<point x="1590" y="996" type="curve" smooth="yes"/>
			<point x="1590" y="1212"/>
			<point x="1330" y="1372"/>
			<point x="934" y="1372" type="curve" smooth="yes"/>
			<point x="114" y="1372" type="line"/>
			<point x="114" y="1260" type="line"/>
			<point x="328" y="1260" type="line"/>
			<point x="328" y="1260"/>
			<point x="328" y="1260"/>
			<point x="328" y="1260" type="curve"/>
			<point x="328" y="112" type="line"/>
			<point x="328" y="112"/>
			<point x="328" y="112"/>
			<point x="328" y="112" type="curve"/>
			<point x="114" y="112" type="line"/>
			<point x="114" y="0" type="line"/>
			<point x="162" y="4"/>
			<point x="394" y="8"/>
			<point x="472" y="8" type="curve" smooth="yes"/>
			<point x="538" y="8"/>
			<point x="776" y="4"/>
			<point x="830" y="0" type="curve"/>
			<point x="830" y="112" type="line"/>
			<point x="616" y="112" type="line"/>
			<point x="616" y="112"/>
			<point x="616" y="112"/>
			<point x="616" y="112" type="curve"/>
			<point x="616" y="640" type="line"/>
			<point x="894" y="640" type="line" smooth="yes"/>
			<point x="932" y="640"/>
			<point x="1016" y="640"/>
			<point x="1098" y="574" type="curve" smooth="yes"/>
			<point x="1170" y="518"/>
			<point x="1170" y="470"/>
			<point x="1170" y="326" type="curve"/>
			<point x="1170" y="241"/>
			<point x="1170" y="147"/>
			<point x="1240" y="78" type="curve" smooth="yes"/>
			<point x="1301" y="18"/>
			<point x="1416" y="-24"/>
			<point x="1632" y="-24" type="curve"/>
			<point x="1870" y="-24"/>
			<point x="1902" y="154"/>
			<point x="1902" y="198" type="curve" smooth="yes"/>
			<point x="1902" y="248"/>
			<point x="1866" y="248"/>
			<point x="1838" y="248" type="curve" smooth="yes"/>
			<point x="1810" y="248"/>
			<point x="1780" y="248"/>
			<point x="1776" y="202" type="curve" smooth="yes"/>
			<point x="1766" y="94"/>
			<point x="1696" y="68"/>
			<point x="1652" y="68" type="curve" smooth="yes"/>
			<point x="1559" y="68"/>
			<point x="1523" y="134"/>
			<point x="1503" y="229" type="curve" smooth="yes"/>
			<point x="1495" y="267"/>
			<point x="1490" y="309"/>
			<point x="1484" y="354" type="curve" smooth="yes"/>
			<point x="1464" y="488"/>
			<point x="1448" y="608"/>
		</contour>
		<contour>
			<point x="616" y="732" type="line"/>
			<point x="616" y="1260" type="line"/>
			<point x="616" y="1260"/>
			<point x="616" y="1260"/>
			<point x="616" y="1260" type="curve"/>
			<point x="715" y="1260"/>
			<point x="814" y="1260"/>
			<point x="914" y="1260" type="curve" smooth="yes"/>
			<point x="1236" y="1260"/>
			<point x="1264" y="1126"/>
			<point x="1264" y="996" type="curve" smooth="yes"/>
			<point x="1264" y="870"/>
			<point x="1238" y="732"/>
			<point x="906" y="732" type="curve" smooth="yes"/>
		</contour>
	</outline>
</glyph>
<glyph name="S" format="2">
	<unicode hex="0053"/>
	<advance width="1436"/>
	<outline>
		<contour>
			<point x="1080" y="314" type="curve" smooth="yes"/>
			<point x="1080" y="292"/>
			<point x="1080" y="88"/>
			<point x="778" y="88" type="curve" smooth="yes"/>
			<point x="448" y="88"/>
			<point x="276" y="214"/>
			<point x="276" y="404" type="curve" smooth="yes"/>
			<point x="276" y="444"/>
			<point x="272" y="456"/>
			<point x="214" y="456" type="curve" smooth="yes"/>
			<point x="156" y="456"/>
			<point x="150" y="450"/>
			<point x="150" y="392" type="curve" smooth="yes"/>
			<point x="150" y="40" type="line" smooth="yes"/>
			<point x="150" y="0"/>
			<point x="150" y="-24"/>
			<point x="196" y="-24" type="curve" smooth="yes"/>
			<point x="220" y="-24"/>
			<point x="224" y="-22"/>
			<point x="238" y="-10" type="curve" smooth="yes"/>
			<point x="260" y="10"/>
			<point x="310" y="60"/>
			<point x="332" y="80" type="curve"/>
			<point x="470" y="-6"/>
			<point x="642" y="-24"/>
			<point x="780" y="-24" type="curve" smooth="yes"/>
			<point x="1158" y="-24"/>
			<point x="1284" y="214"/>
			<point x="1284" y="406" type="curve" smooth="yes"/>
			<point x="1284" y="521"/>
			<point x="1236" y="617"/>
			<point x="1164" y="689" type="curve" smooth="yes"/>
			<point x="1092" y="761"/>
			<point x="996" y="809"/>
			<point x="900" y="828" type="curve" smooth="yes"/>
			<point x="791" y="849"/>
			<point x="682" y="871"/>
			<point x="572" y="892" type="curve" smooth="yes"/>
			<point x="426" y="920"/>
			<point x="354" y="1004"/>
			<point x="354" y="1090" type="curve" smooth="yes"/>
			<point x="354" y="1174"/>
			<point x="414" y="1294"/>
			<point x="648" y="1294" type="curve" smooth="yes"/>
			<point x="820" y="1294"/>
			<point x="1034" y="1234"/>
			<point x="1082" y="974" type="curve" smooth="yes"/>
			<point x="1092" y="922"/>
			<point x="1092" y="916"/>
			<point x="1148" y="916" type="curve" smooth="yes"/>
			<point x="1206" y="916"/>
			<point x="1212" y="922"/>
			<point x="1212" y="980" type="curve" smooth="yes"/>
			<point x="1212" y="1332" type="line" smooth="yes"/>
			<point x="1212" y="1372"/>
			<point x="1212" y="1396"/>
			<point x="1166" y="1396" type="curve" smooth="yes"/>
			<point x="1144" y="1396"/>
			<point x="1140" y="1396"/>
			<point x="1114" y="1370" type="curve" smooth="yes"/>
			<point x="1030" y="1290"/>
			<point x="1028" y="1290"/>
			<point x="1026" y="1290" type="curve" smooth="yes"/>
			<point x="1014" y="1290"/>
			<point x="914" y="1396"/>
			<point x="648" y="1396" type="curve" smooth="yes"/>
			<point x="286" y="1396"/>
			<point x="150" y="1180"/>
			<point x="150" y="994" type="curve" smooth="yes"/>
			<point x="150" y="888"/>
			<point x="196" y="802"/>
			<point x="256" y="740" type="curve" smooth="yes"/>
			<point x="364" y="632"/>
			<point x="460" y="612"/>
			<point x="710" y="564" type="curve" smooth="yes"/>
			<point x="768" y="554"/>
			<point x="866" y="536"/>
			<point x="882" y="532" type="curve" smooth="yes"/>
			<point x="980" y="506"/>
			<point x="1080" y="430"/>
		</contour>
	</outline>
</glyph>
<glyph name="T" format="2">
	<unicode hex="0054"/>
	<advance width="897"/>
	<outline>
		<contour>
			<point x="822" y="673" type="line"/>
			<point x="74" y="673" type="line"/>
			<point x="50" y="434" type="line"/>
			<point x="113" y="434" type="line"/>
			<point x="124" y="543"/>
			<point x="138" y="617"/>
			<point x="283" y="617" type="curve" smooth="yes"/>
			<point x="312.97" y="617"/>
			<point x="342.94" y="617"/>
			<point x="373" y="617" type="curve"/>
			<point x="373" y="617"/>
			<point x="373" y="617"/>
			<point x="373" y="617" type="curve"/>
			<point x="373" y="56" type="line"/>
			<point x="373" y="56"/>
			<point x="373" y="56"/>
			<point x="373" y="56" type="curve"/>
			<point x="221" y="56" type="line"/>
			<point x="221" y="0" type="line"/>
			<point x="286" y="4"/>
			<point x="382.675" y="4"/>
			<point x="448" y="4" type="curve" smooth="yes"/>
			<point x="518" y="4"/>
			<point x="606" y="4"/>
			<point x="676" y="0" type="curve"/>
			<point x="676" y="56" type="line"/>
			<point x="524" y="56" type="line"/>
			<point x="524" y="56"/>
			<point x="524" y="56"/>
			<point x="524" y="56" type="curve"/>
			<point x="524" y="617" type="line"/>
			<point x="524" y="617"/>
			<point x="524" y="617"/>
			<point x="524" y="617" type="curve"/>
			<point x="553.637" y="617"/>
			<point x="583.274" y="617"/>
			<point x="613" y="617" type="curve" smooth="yes"/>
			<point x="758" y="617"/>
			<point x="772" y="544"/>
			<point x="783" y="434" type="curve"/>
			<point x="846" y="434" type="line"/>
		</contour>
	</outline>
</glyph>
<glyph name="U" format="2">
	<unicode hex="0055"/>
	<advance width="1968"/>
	<outline>
		<contour>
			<point x="1028" y="88" type="curve" smooth="yes"/>
			<point x="654" y="88"/>
			<point x="630" y="316"/>
			<point x="630" y="456" type="curve" smooth="yes"/>
			<point x="630" y="1260" type="line"/>
			<point x="630" y="1260"/>
			<point x="630" y="1260"/>
			<point x="630" y="1260" type="curve"/>
			<point x="844" y="1260" type="line"/>
			<point x="844" y="1372" type="line"/>
			<point x="798" y="1368"/>
			<point x="512" y="1364"/>
			<point x="480" y="1364" type="curve" smooth="yes"/>
			<point x="436" y="1364"/>
			<point x="158" y="1368"/>
			<point x="114" y="1372" type="curve"/>
			<point x="114" y="1260" type="line"/>
			<point x="328" y="1260" type="line"/>
			<point x="328" y="1260"/>
			<point x="328" y="1260"/>
			<point x="328" y="1260" type="curve"/>
			<point x="328" y="462" type="line" smooth="yes"/>
			<point x="328" y="212"/>
			<point x="542" y="-24"/>
			<point x="1020" y="-24" type="curve" smooth="yes"/>
			<point x="1468" y="-24"/>
			<point x="1640" y="228"/>
			<point x="1640" y="460" type="curve" smooth="yes"/>
			<point x="1640" y="1210" type="line" smooth="yes"/>
			<point x="1640" y="1264"/>
			<point x="1654" y="1260"/>
			<point x="1788" y="1260" type="curve" smooth="yes"/>
			<point x="1854" y="1260" type="line"/>
			<point x="1854" y="1372" type="line"/>
			<point x="1828" y="1370"/>
			<point x="1646" y="1364"/>
			<point x="1570" y="1364" type="curve" smooth="yes"/>
			<point x="1492" y="1364"/>
			<point x="1304" y="1372"/>
			<point x="1284" y="1372" type="curve"/>
			<point x="1284" y="1260" type="line"/>
			<point x="1350" y="1260" type="line" smooth="yes"/>
			<point x="1492" y="1260"/>
			<point x="1498" y="1258"/>
			<point x="1498" y="1210" type="curve" smooth="yes"/>
			<point x="1498" y="468" type="line" smooth="yes"/>
			<point x="1498" y="172"/>
			<point x="1256" y="88"/>
		</contour>
	</outline>
</glyph>
<glyph name="W" format="2">
	<unicode hex="0057"/>
	<advance width="2646"/>
	<outline>
		<contour>
			<point x="934" y="334" type="line"/>
			<point x="552" y="1260" type="line"/>
			<point x="552" y="1260"/>
			<point x="552" y="1260"/>
			<point x="552" y="1260" type="curve"/>
			<point x="613" y="1260"/>
			<point x="673" y="1260"/>
			<point x="734" y="1260" type="curve"/>
			<point x="734" y="1372" type="line"/>
			<point x="702" y="1370"/>
			<point x="438" y="1364"/>
			<point x="374" y="1364" type="curve" smooth="yes"/>
			<point x="294" y="1364"/>
			<point x="86" y="1372"/>
			<point x="66" y="1372" type="curve"/>
			<point x="66" y="1260" type="line"/>
			<point x="240" y="1260" type="line"/>
			<point x="240" y="1260"/>
			<point x="240" y="1260"/>
			<point x="240" y="1260" type="curve"/>
			<point x="748" y="34" type="line" smooth="yes"/>
			<point x="768" y="-12"/>
			<point x="778" y="-24"/>
			<point x="846" y="-24" type="curve" smooth="yes"/>
			<point x="904" y="-24"/>
			<point x="922" y="-22"/>
			<point x="946" y="34" type="curve" smooth="yes"/>
			<point x="1322" y="942" type="line"/>
			<point x="1696" y="34" type="line" smooth="yes"/>
			<point x="1720" y="-24"/>
			<point x="1750" y="-24"/>
			<point x="1798" y="-24" type="curve" smooth="yes"/>
			<point x="1864" y="-24"/>
			<point x="1876" y="-14"/>
			<point x="1896" y="34" type="curve" smooth="yes"/>
			<point x="2388" y="1224" type="line" smooth="yes"/>
			<point x="2402" y="1260"/>
			<point x="2432" y="1260"/>
			<point x="2532" y="1260" type="curve" smooth="yes"/>
			<point x="2578" y="1260" type="line"/>
			<point x="2578" y="1372" type="line"/>
			<point x="2504" y="1366"/>
			<point x="2432" y="1364"/>
			<point x="2358" y="1364" type="curve" smooth="yes"/>
			<point x="2292" y="1364"/>
			<point x="2092" y="1372"/>
			<point x="2064" y="1372" type="curve"/>
			<point x="2064" y="1260" type="line"/>
			<point x="2114" y="1260"/>
			<point x="2260" y="1260"/>
			<point x="2260" y="1244" type="curve" smooth="yes"/>
			<point x="2260" y="1238"/>
			<point x="2256" y="1230"/>
			<point x="2252" y="1220" type="curve" smooth="yes"/>
			<point x="1886" y="334" type="line"/>
			<point x="1502" y="1260" type="line"/>
			<point x="1502" y="1260"/>
			<point x="1502" y="1260"/>
			<point x="1502" y="1260" type="curve"/>
			<point x="1563" y="1260"/>
			<point x="1625" y="1260"/>
			<point x="1686" y="1260" type="curve"/>
			<point x="1686" y="1372" type="line"/>
			<point x="1580" y="1364"/>
			<point x="1432" y="1364"/>
			<point x="1324" y="1364" type="curve" smooth="yes"/>
			<point x="1244" y="1364"/>
			<point x="1036" y="1372"/>
			<point x="1016" y="1372" type="curve"/>
			<point x="1016" y="1260" type="line"/>
			<point x="1190" y="1260" type="line"/>
			<point x="1190" y="1260"/>
			<point x="1190" y="1260"/>
			<point x="1190" y="1260" type="curve"/>
			<point x="1211" y="1209"/>
			<point x="1233" y="1157"/>
			<point x="1254" y="1106" type="curve"/>
		</contour>
	</outline>
</glyph>
<glyph name="X" format="2">
	<unicode hex="0058"/>
	<advance width="1934"/>
	<outline>
		<contour>
			<point x="1086" y="780" type="line"/>
			<point x="1466" y="1226" type="line" smooth="yes"/>
			<point x="1498" y="1262"/>
			<point x="1566" y="1260"/>
			<point x="1656" y="1260" type="curve" smooth="yes"/>
			<point x="1732" y="1260" type="line"/>
			<point x="1732" y="1372" type="line"/>
			<point x="1712" y="1372"/>
			<point x="1558" y="1364"/>
			<point x="1456" y="1364" type="curve" smooth="yes"/>
			<point x="1342" y="1364"/>
			<point x="1152" y="1372"/>
			<point x="1132" y="1372" type="curve"/>
			<point x="1132" y="1260" type="line"/>
			<point x="1184" y="1260"/>
			<point x="1236" y="1260"/>
			<point x="1296" y="1246" type="curve"/>
			<point x="1296" y="1246"/>
			<point x="1296" y="1246"/>
			<point x="1296" y="1246" type="curve"/>
			<point x="994" y="890" type="line"/>
			<point x="690" y="1260" type="line"/>
			<point x="690" y="1260"/>
			<point x="690" y="1260"/>
			<point x="690" y="1260" type="curve"/>
			<point x="738" y="1260"/>
			<point x="786" y="1260"/>
			<point x="834" y="1260" type="curve"/>
			<point x="834" y="1372" type="line"/>
			<point x="734" y="1364"/>
			<point x="564" y="1364"/>
			<point x="458" y="1364" type="curve" smooth="yes"/>
			<point x="334" y="1364"/>
			<point x="156" y="1370"/>
			<point x="128" y="1372" type="curve"/>
			<point x="128" y="1260" type="line"/>
			<point x="332" y="1260" type="line"/>
			<point x="332" y="1260"/>
			<point x="332" y="1260"/>
			<point x="332" y="1260" type="curve"/>
			<point x="814" y="678" type="line"/>
			<point x="360" y="146" type="line" smooth="yes"/>
			<point x="326" y="108"/>
			<point x="262" y="112"/>
			<point x="172" y="112" type="curve" smooth="yes"/>
			<point x="94" y="112" type="line"/>
			<point x="94" y="0" type="line"/>
			<point x="110" y="0"/>
			<point x="278" y="8"/>
			<point x="372" y="8" type="curve" smooth="yes"/>
			<point x="486" y="8"/>
			<point x="676" y="0"/>
			<point x="696" y="0" type="curve"/>
			<point x="696" y="112" type="line"/>
			<point x="644" y="112"/>
			<point x="590" y="112"/>
			<point x="532" y="126" type="curve"/>
			<point x="532" y="126"/>
			<point x="532" y="126"/>
			<point x="532" y="126" type="curve"/>
			<point x="906" y="566" type="line"/>
			<point x="1280" y="112" type="line"/>
			<point x="1280" y="112"/>
			<point x="1280" y="112"/>
			<point x="1280" y="112" type="curve"/>
			<point x="1232" y="112"/>
			<point x="1184" y="112"/>
			<point x="1136" y="112" type="curve"/>
			<point x="1136" y="0" type="line"/>
			<point x="1236" y="8"/>
			<point x="1404" y="8"/>
			<point x="1510" y="8" type="curve" smooth="yes"/>
			<point x="1636" y="8"/>
			<point x="1812" y="2"/>
			<point x="1842" y="0" type="curve"/>
			<point x="1842" y="112" type="line"/>
			<point x="1638" y="112" type="line"/>
			<point x="1638" y="112"/>
			<point x="1638" y="112"/>
			<point x="1638" y="112" type="curve"/>
		</contour>
	</outline>
</glyph>
<glyph name="Y" format="2">
	<unicode hex="0059"/>
	<advance width="967"/>
	<outline>
		<contour>
			<point x="411" y="274" type="line"/>
			<point x="411" y="56" type="line"/>
			<point x="411" y="56"/>
			<point x="411" y="56"/>
			<point x="411" y="56" type="curve"/>
			<point x="304" y="56" type="line"/>
			<point x="304" y="0" type="line"/>
			<point x="328" y="2"/>
			<point x="444" y="4"/>
			<point x="483" y="4" type="curve" smooth="yes"/>
			<point x="521" y="4"/>
			<point x="643" y="1"/>
			<point x="662" y="0" type="curve"/>
			<point x="662" y="56" type="line"/>
			<point x="555" y="56" type="line"/>
			<point x="555" y="56"/>
			<point x="555" y="56"/>
			<point x="555" y="56" type="curve"/>
			<point x="555" y="274" type="line"/>
			<point x="822" y="614" type="line" smooth="yes"/>
			<point x="837" y="632"/>
			<point x="857" y="630"/>
			<point x="896" y="630" type="curve" smooth="yes"/>
			<point x="936" y="630" type="line"/>
			<point x="936" y="686" type="line"/>
			<point x="895" y="683"/>
			<point x="855" y="682"/>
			<point x="814" y="682" type="curve" smooth="yes"/>
			<point x="777" y="682"/>
			<point x="687" y="685"/>
			<point x="670" y="686" type="curve"/>
			<point x="670" y="630" type="line"/>
			<point x="692" y="630"/>
			<point x="715" y="630"/>
			<point x="739" y="624" type="curve"/>
			<point x="739" y="624"/>
			<point x="739" y="624"/>
			<point x="739" y="624" type="curve"/>
			<point x="530" y="357" type="line"/>
			<point x="315" y="630" type="line"/>
			<point x="315" y="630"/>
			<point x="315" y="630"/>
			<point x="315" y="630" type="curve"/>
			<point x="339.975" y="630"/>
			<point x="364.95" y="630"/>
			<point x="390" y="630" type="curve"/>
			<point x="390" y="686" type="line"/>
			<point x="341" y="682"/>
			<point x="251" y="682"/>
			<point x="199" y="682" type="curve" smooth="yes"/>
			<point x="137" y="682"/>
			<point x="45" y="685"/>
			<point x="31" y="686" type="curve"/>
			<point x="31" y="630" type="line"/>
			<point x="132" y="630" type="line"/>
			<point x="132" y="630"/>
			<point x="132" y="630"/>
			<point x="132" y="630" type="curve"/>
		</contour>
	</outline>
</glyph>
<glyph name="Z" format="2">
	<unicode hex="005A"/>
	<advance width="1578"/>
	<outline>
		<contour>
			<point x="220" y="0" type="curve" smooth="yes"/>
			<point x="1400" y="0" type="line"/>
			<point x="1440" y="560" type="line"/>
			<point x="1314" y="560" type="line"/>
			<point x="1290" y="240"/>
			<point x="1158" y="122"/>
			<point x="840" y="122" type="curve" smooth="yes"/>
			<point x="526" y="122" type="line"/>
			<point x="1404" y="1254" type="line" smooth="yes"/>
			<point x="1424" y="1280"/>
			<point x="1426" y="1282"/>
			<point x="1426" y="1312" type="curve" smooth="yes"/>
			<point x="1426" y="1372"/>
			<point x="1398" y="1372"/>
			<point x="1356" y="1372" type="curve" smooth="yes"/>
			<point x="214" y="1372" type="line"/>
			<point x="186" y="894" type="line"/>
			<point x="312" y="894" type="line"/>
			<point x="336" y="1252"/>
			<point x="644" y="1260"/>
			<point x="768" y="1260" type="curve" smooth="yes"/>
			<point x="1052" y="1260" type="line"/>
			<point x="170" y="122" type="line" smooth="yes"/>
			<point x="150" y="98"/>
			<point x="150" y="94"/>
			<point x="150" y="62" type="curve" smooth="yes"/>
			<point x="150" y="0"/>
			<point x="176" y="0"/>
		</contour>
	</outline>
</glyph>
<glyph name="bracketleft" format="2">
	<unicode hex="005B"/>
	<advance width="728"/>
	<outline>
		<contour>
			<point x="662" y="1354" type="line"/>
			<point x="662" y="1500" type="line"/>
			<point x="288" y="1500" type="line"/>
			<point x="288" y="-500" type="line"/>
			<point x="662" y="-500" type="line"/>
			<point x="662" y="-354" type="line"/>
			<point x="434" y="-354" type="line"/>
			<point x="434" y="1354" type="line"/>
		</contour>
	</outline>
</glyph>
<glyph name="bracketright" format="2">
	<unicode hex="005D"/>
	<advance width="728"/>
	<outline>
		<contour>
			<point x="438" y="1500" type="line"/>
			<point x="64" y="1500" type="line"/>
			<point x="64" y="1354" type="line"/>
			<point x="292" y="1354" type="line"/>
			<point x="292" y="-354" type="line"/>
			<point x="64" y="-354" type="line"/>
			<point x="64" y="-500" type="line"/>
			<point x="438" y="-500" type="line"/>
		</contour>
	</outline>
</glyph>
<glyph name="grave" format="2">
	<unicode hex="0060"/>
	<advance width="1294"/>
	<outline>
		<contour>
			<point x="686" y="1002" type="line"/>
			<point x="756" y="1106" type="line"/>
			<point x="548" y="1312" type="line" smooth="yes"/>
			<point x="466" y="1394"/>
			<point x="446" y="1406"/>
			<point x="400" y="1406" type="curve" smooth="yes"/>
			<point x="316" y="1406"/>
			<point x="268" y="1322"/>
			<point x="268" y="1268" type="curve" smooth="yes"/>
			<point x="268" y="1202"/>
			<point x="320" y="1168"/>
			<point x="350" y="1154" type="curve" smooth="yes"/>
		</contour>
	</outline>
</glyph>
<glyph name="a" format="2">
	<unicode hex="0061"/>
	<advance width="1258"/>
	<outline>
		<contour>
			<point x="82" y="230" type="curve" smooth="yes"/>
			<point x="82" y="44"/>
			<point x="302" y="-12"/>
			<point x="502" y="-12" type="curve" smooth="yes"/>
			<point x="718" y="-12"/>
			<point x="802" y="74"/>
			<point x="848" y="148" type="curve"/>
			<point x="858" y="68"/>
			<point x="944" y="-12"/>
			<point x="1088" y="-12" type="curve" smooth="yes"/>
			<point x="1190" y="-12"/>
			<point x="1308" y="18"/>
			<point x="1308" y="188" type="curve" smooth="yes"/>
			<point x="1308" y="300" type="line"/>
			<point x="1232" y="300" type="line"/>
			<point x="1232" y="188" type="line" smooth="yes"/>
			<point x="1232" y="90"/>
			<point x="1172" y="80"/>
			<point x="1146" y="80" type="curve" smooth="yes"/>
			<point x="1064" y="80"/>
			<point x="1056" y="138"/>
			<point x="1056" y="178" type="curve" smooth="yes"/>
			<point x="1056" y="590" type="line" smooth="yes"/>
			<point x="1056" y="683"/>
			<point x="1013" y="773"/>
			<point x="910" y="833" type="curve" smooth="yes"/>
			<point x="832" y="878"/>
			<point x="719" y="906"/>
			<point x="564" y="906" type="curve" smooth="yes"/>
			<point x="448" y="906"/>
			<point x="168" y="906"/>
			<point x="168" y="708" type="curve" smooth="yes"/>
			<point x="168" y="620"/>
			<point x="232" y="568"/>
			<point x="306" y="568" type="curve" smooth="yes"/>
			<point x="394" y="568"/>
			<point x="446" y="630"/>
			<point x="446" y="706" type="curve" smooth="yes"/>
			<point x="446" y="762"/>
			<point x="418" y="790"/>
			<point x="416" y="800" type="curve"/>
			<point x="416" y="810"/>
			<point x="544" y="814"/>
			<point x="558" y="814" type="curve" smooth="yes"/>
			<point x="698" y="814"/>
			<point x="802" y="758"/>
			<point x="802" y="588" type="curve" smooth="yes"/>
			<point x="802" y="534" type="line"/>
			<point x="753" y="534"/>
			<point x="571" y="532"/>
			<point x="402" y="492" type="curve" smooth="yes"/>
			<point x="236" y="453"/>
			<point x="82" y="377"/>
		</contour>
		<contour>
			<point x="334" y="232" type="curve" smooth="yes"/>
			<point x="334" y="396"/>
			<point x="602" y="450"/>
			<point x="802" y="456" type="curve"/>
			<point x="802" y="274" type="line" smooth="yes"/>
			<point x="802" y="232"/>
			<point x="802" y="174"/>
			<point x="724" y="126" type="curve" smooth="yes"/>
			<point x="648" y="80"/>
			<point x="554" y="80"/>
			<point x="542" y="80" type="curve" smooth="yes"/>
			<point x="430" y="80"/>
			<point x="334" y="142"/>
		</contour>
	</outline>
</glyph>
<glyph name="b" format="2">
	<unicode hex="0062"/>
	<advance width="1436"/>
	<outline>
		<contour>
			<point x="244" y="0" type="line"/>
			<point x="370" y="0" type="line"/>
			<point x="396" y="32"/>
			<point x="436" y="86"/>
			<point x="454" y="110" type="curve"/>
			<point x="588" y="-4"/>
			<point x="720" y="-12"/>
			<point x="786" y="-12" type="curve" smooth="yes"/>
			<point x="1130" y="-12"/>
			<point x="1340" y="182"/>
			<point x="1340" y="446" type="curve" smooth="yes"/>
			<point x="1340" y="688"/>
			<point x="1162" y="900"/>
			<point x="814" y="900" type="curve" smooth="yes"/>
			<point x="686" y="900"/>
			<point x="574" y="866"/>
			<point x="484" y="810" type="curve"/>
			<point x="484" y="1388" type="line"/>
			<point x="110" y="1372" type="line"/>
			<point x="110" y="1260" type="line"/>
			<point x="228" y="1260"/>
			<point x="244" y="1260"/>
			<point x="244" y="1182" type="curve" smooth="yes"/>
		</contour>
		<contour>
			<point x="762" y="80" type="curve" smooth="yes"/>
			<point x="654" y="80"/>
			<point x="564" y="130"/>
			<point x="498" y="224" type="curve"/>
			<point x="498" y="224"/>
			<point x="498" y="224"/>
			<point x="498" y="224" type="curve"/>
			<point x="498" y="682" type="line"/>
			<point x="498" y="682"/>
			<point x="498" y="682"/>
			<point x="498" y="682" type="curve"/>
			<point x="554" y="750"/>
			<point x="660" y="808"/>
			<point x="786" y="808" type="curve" smooth="yes"/>
			<point x="878" y="808"/>
			<point x="939" y="782"/>
			<point x="980" y="742" type="curve" smooth="yes"/>
			<point x="1062" y="663"/>
			<point x="1062" y="531"/>
			<point x="1062" y="450" type="curve" smooth="yes"/>
			<point x="1062" y="369"/>
			<point x="1062" y="236"/>
			<point x="978" y="153" type="curve" smooth="yes"/>
			<point x="934" y="110"/>
			<point x="866" y="80"/>
		</contour>
	</outline>
</glyph>
<glyph name="d" format="2">
	<unicode hex="0064"/>
	<advance width="1436"/>
	<outline>
		<contour>
			<point x="936" y="84" type="curve"/>
			<point x="936" y="-12" type="line"/>
			<point x="1324" y="0" type="line"/>
			<point x="1324" y="112" type="line"/>
			<point x="1206" y="112"/>
			<point x="1190" y="112"/>
			<point x="1190" y="190" type="curve" smooth="yes"/>
			<point x="1190" y="1388" type="line"/>
			<point x="816" y="1372" type="line"/>
			<point x="816" y="1260" type="line"/>
			<point x="934" y="1260"/>
			<point x="950" y="1260"/>
			<point x="950" y="1182" type="curve" smooth="yes"/>
			<point x="950" y="816" type="line"/>
			<point x="826" y="892"/>
			<point x="714" y="900"/>
			<point x="648" y="900" type="curve" smooth="yes"/>
			<point x="290" y="900"/>
			<point x="94" y="696"/>
			<point x="94" y="442" type="curve" smooth="yes"/>
			<point x="94" y="194"/>
			<point x="280" y="-12"/>
			<point x="622" y="-12" type="curve" smooth="yes"/>
			<point x="750" y="-12"/>
			<point x="856" y="28"/>
		</contour>
		<contour>
			<point x="372" y="438" type="curve" smooth="yes"/>
			<point x="372" y="520"/>
			<point x="372" y="652"/>
			<point x="456" y="735" type="curve" smooth="yes"/>
			<point x="500" y="778"/>
			<point x="568" y="808"/>
			<point x="672" y="808" type="curve" smooth="yes"/>
			<point x="840" y="808"/>
			<point x="930" y="696"/>
			<point x="936" y="688" type="curve"/>
			<point x="936" y="688"/>
			<point x="936" y="688"/>
			<point x="936" y="688" type="curve"/>
			<point x="936" y="232" type="line"/>
			<point x="936" y="232"/>
			<point x="936" y="232"/>
			<point x="936" y="232" type="curve"/>
			<point x="890" y="166"/>
			<point x="792" y="80"/>
			<point x="646" y="80" type="curve" smooth="yes"/>
			<point x="554" y="80"/>
			<point x="493" y="107"/>
			<point x="452" y="147" type="curve" smooth="yes"/>
			<point x="372" y="227"/>
			<point x="372" y="360"/>
		</contour>
	</outline>
</glyph>
<glyph name="e" format="2">
	<unicode hex="0065"/>
	<advance width="592"/>
	<outline>
		<contour>
			<point x="179" y="208" type="curve"/>
			<point x="516" y="208" type="line" smooth="yes"/>
			<point x="537" y="208"/>
			<point x="551" y="208"/>
			<point x="551" y="238" type="curve" smooth="yes"/>
			<point x="551" y="350"/>
			<point x="491" y="453"/>
			<point x="313" y="453" type="curve" smooth="yes"/>
			<point x="128" y="453"/>
			<point x="40" y="343"/>
			<point x="40" y="225" type="curve" smooth="yes"/>
			<point x="40" y="106"/>
			<point x="132" y="-6"/>
			<point x="330" y="-6" type="curve" smooth="yes"/>
			<point x="498" y="-6"/>
			<point x="551" y="88"/>
			<point x="551" y="114" type="curve" smooth="yes"/>
			<point x="551" y="136"/>
			<point x="529" y="136"/>
			<point x="519" y="136" type="curve" smooth="yes"/>
			<point x="501" y="136"/>
			<point x="496" y="135"/>
			<point x="488" y="119" type="curve" smooth="yes"/>
			<point x="452" y="45"/>
			<point x="361" y="45"/>
			<point x="344" y="45" type="curve" smooth="yes"/>
			<point x="282.71496" y="45"/>
			<point x="244.4489068432" y="62.6027546448"/>
			<point x="220.4483065916" y="86.8371680655" type="curve" smooth="yes"/>
			<point x="182.5725526832" y="125.0819064976"/>
			<point x="180.22424" y="179.84248"/>
		</contour>
		<contour>
			<point x="179" y="250" type="line"/>
			<point x="180" y="289"/>
			<point x="185" y="407"/>
			<point x="314" y="407" type="curve" smooth="yes"/>
			<point x="443" y="407"/>
			<point x="450" y="293"/>
			<point x="452" y="250" type="curve"/>
		</contour>
	</outline>
</glyph>
<glyph name="f" format="2">
	<unicode hex="0066"/>
	<advance width="796"/>
	<outline>
		<contour>
			<point x="270" y="112" type="line"/>
			<point x="225" y="112"/>
			<point x="181" y="112"/>
			<point x="136" y="112" type="curve"/>
			<point x="136" y="112" type="line"/>
			<point x="136" y="0" type="line"/>
			<point x="144" y="0"/>
			<point x="298" y="8"/>
			<point x="392" y="8" type="curve" smooth="yes"/>
			<point x="470" y="8"/>
			<point x="664" y="0"/>
			<point x="678" y="0" type="curve"/>
			<point x="678" y="112" type="line"/>
			<point x="678" y="112" type="line"/>
			<point x="622" y="112"/>
			<point x="566" y="112"/>
			<point x="510" y="112" type="curve"/>
			<point x="510" y="776" type="line"/>
			<point x="766" y="776" type="line"/>
			<point x="766" y="888" type="line"/>
			<point x="496" y="888" type="line"/>
			<point x="496" y="1076" type="line" smooth="yes"/>
			<point x="496" y="1110"/>
			<point x="496" y="1308"/>
			<point x="716" y="1308" type="curve" smooth="yes"/>
			<point x="738" y="1308"/>
			<point x="738" y="1306"/>
			<point x="738" y="1304" type="curve"/>
			<point x="736" y="1298"/>
			<point x="708" y="1268"/>
			<point x="708" y="1212" type="curve" smooth="yes"/>
			<point x="708" y="1116"/>
			<point x="786" y="1074"/>
			<point x="844" y="1074" type="curve" smooth="yes"/>
			<point x="910" y="1074"/>
			<point x="982" y="1120"/>
			<point x="982" y="1212" type="curve" smooth="yes"/>
			<point x="982" y="1304"/>
			<point x="900" y="1400"/>
			<point x="730" y="1400" type="curve" smooth="yes"/>
			<point x="498" y="1400"/>
			<point x="270" y="1306"/>
			<point x="270" y="1080" type="curve" smooth="yes"/>
			<point x="270" y="888" type="line"/>
			<point x="104" y="888" type="line"/>
			<point x="104" y="776" type="line"/>
			<point x="270" y="776" type="line"/>
		</contour>
	</outline>
</glyph>
<glyph name="g" format="2">
	<unicode hex="0067"/>
	<advance width="647"/>
	<outline>
		<contour>
			<point x="323" y="-201" type="curve" smooth="yes"/>
			<point x="507" y="-201"/>
			<point x="606" y="-148"/>
			<point x="606" y="-69" type="curve" smooth="yes"/>
			<point x="606" y="-49"/>
			<point x="603" y="23"/>
			<point x="520" y="62" type="curve" smooth="yes"/>
			<point x="460" y="89"/>
			<point x="394" y="89"/>
			<point x="292" y="89" type="curve" smooth="yes"/>
			<point x="265.027" y="89"/>
			<point x="238.054" y="89"/>
			<point x="211" y="89" type="curve" smooth="yes"/>
			<point x="183" y="89"/>
			<point x="149" y="112"/>
			<point x="149" y="150" type="curve" smooth="yes"/>
			<point x="149" y="156"/>
			<point x="149" y="167"/>
			<point x="156" y="176" type="curve"/>
			<point x="208" y="151"/>
			<point x="266" y="151"/>
			<point x="287" y="151" type="curve" smooth="yes"/>
			<point x="456" y="151"/>
			<point x="506" y="239"/>
			<point x="506" y="300" type="curve" smooth="yes"/>
			<point x="506" y="351"/>
			<point x="475" y="385"/>
			<point x="466" y="393" type="curve"/>
			<point x="482" y="399"/>
			<point x="505" y="406"/>
			<point x="526" y="408" type="curve"/>
			<point x="524" y="403"/>
			<point x="523" y="395"/>
			<point x="523" y="389" type="curve" smooth="yes"/>
			<point x="523" y="353"/>
			<point x="553" y="338"/>
			<point x="573" y="338" type="curve" smooth="yes"/>
			<point x="596" y="338"/>
			<point x="624" y="355"/>
			<point x="624" y="389" type="curve" smooth="yes"/>
			<point x="624" y="420"/>
			<point x="599" y="456"/>
			<point x="549" y="456" type="curve" smooth="yes"/>
			<point x="508" y="456"/>
			<point x="463" y="440"/>
			<point x="433" y="418" type="curve"/>
			<point x="374" y="450"/>
			<point x="311" y="450"/>
			<point x="287" y="450" type="curve" smooth="yes"/>
			<point x="124" y="450"/>
			<point x="69" y="365"/>
			<point x="69" y="301" type="curve" smooth="yes"/>
			<point x="69" y="244"/>
			<point x="104" y="212"/>
			<point x="122" y="197" type="curve"/>
			<point x="99" y="169"/>
			<point x="90" y="140"/>
			<point x="90" y="109" type="curve" smooth="yes"/>
			<point x="90" y="72"/>
			<point x="104" y="39"/>
			<point x="130" y="13" type="curve"/>
			<point x="95" y="5"/>
			<point x="40" y="-20"/>
			<point x="40" y="-72" type="curve" smooth="yes"/>
			<point x="40" y="-132"/>
			<point x="110" y="-201"/>
		</contour>
		<contour>
			<point x="287" y="197" type="curve" smooth="yes"/>
			<point x="188" y="197"/>
			<point x="188" y="261"/>
			<point x="188" y="300" type="curve" smooth="yes"/>
			<point x="188" y="324.2424"/>
			<point x="188" y="357.3002093664"/>
			<point x="210.0385013775" y="379.583649097" type="curve" smooth="yes"/>
			<point x="224.3635636364" y="394.0679216896"/>
			<point x="247.99994" y="404"/>
			<point x="287" y="404" type="curve" smooth="yes"/>
			<point x="387" y="404"/>
			<point x="387" y="341"/>
			<point x="387" y="301" type="curve" smooth="yes"/>
			<point x="387" y="276.4"/>
			<point x="387" y="243.88"/>
			<point x="365.4" y="221.8" type="curve" smooth="yes"/>
			<point x="351" y="207.08"/>
			<point x="327" y="197"/>
		</contour>
		<contour>
			<point x="323" y="-155" type="curve" smooth="yes"/>
			<point x="186" y="-155"/>
			<point x="138" y="-108"/>
			<point x="138" y="-71" type="curve" smooth="yes"/>
			<point x="138" y="-57.04892"/>
			<point x="142.9665871629" y="-46.8407752532"/>
			<point x="150.4858381736" y="-39.3713736605" type="curve" smooth="yes"/>
			<point x="170.9931666504" y="-19"/>
			<point x="210.48777" y="-19"/>
			<point x="220" y="-19" type="curve" smooth="yes"/>
			<point x="353" y="-19" type="line" smooth="yes"/>
			<point x="378" y="-19"/>
			<point x="508" y="-19"/>
			<point x="508" y="-72" type="curve" smooth="yes"/>
			<point x="508" y="-105"/>
			<point x="466" y="-155"/>
		</contour>
	</outline>
</glyph>
<glyph name="h" format="2">
	<unicode hex="0068"/>
	<advance width="1436"/>
	<outline>
		<contour>
			<point x="262" y="112" type="line"/>
			<point x="217" y="112"/>
			<point x="173" y="112"/>
			<point x="128" y="112" type="curve"/>
			<point x="128" y="112" type="line"/>
			<point x="128" y="0" type="line"/>
			<point x="130" y="0"/>
			<point x="292" y="8"/>
			<point x="388" y="8" type="curve" smooth="yes"/>
			<point x="486" y="8"/>
			<point x="648" y="0"/>
			<point x="650" y="0" type="curve"/>
			<point x="650" y="112" type="line"/>
			<point x="650" y="112" type="line"/>
			<point x="605" y="112"/>
			<point x="561" y="112"/>
			<point x="516" y="112" type="curve"/>
			<point x="516" y="498" type="line" smooth="yes"/>
			<point x="516" y="730"/>
			<point x="724" y="808"/>
			<point x="844" y="808" type="curve" smooth="yes"/>
			<point x="932" y="808"/>
			<point x="970" y="762"/>
			<point x="970" y="618" type="curve" smooth="yes"/>
			<point x="970" y="112" type="line"/>
			<point x="925" y="112"/>
			<point x="881" y="112"/>
			<point x="836" y="112" type="curve"/>
			<point x="836" y="112" type="line"/>
			<point x="836" y="0" type="line"/>
			<point x="838" y="0"/>
			<point x="1000" y="8"/>
			<point x="1096" y="8" type="curve" smooth="yes"/>
			<point x="1194" y="8"/>
			<point x="1356" y="0"/>
			<point x="1358" y="0" type="curve"/>
			<point x="1358" y="112" type="line"/>
			<point x="1358" y="112" type="line"/>
			<point x="1313" y="112"/>
			<point x="1269" y="112"/>
			<point x="1224" y="112" type="curve"/>
			<point x="1224" y="602" type="line" smooth="yes"/>
			<point x="1224" y="706"/>
			<point x="1196" y="774"/>
			<point x="1150" y="820" type="curve" smooth="yes"/>
			<point x="1086" y="882"/>
			<point x="988" y="900"/>
			<point x="882" y="900" type="curve" smooth="yes"/>
			<point x="660" y="900"/>
			<point x="548" y="780"/>
			<point x="502" y="712" type="curve"/>
			<point x="502" y="712" type="line"/>
			<point x="502" y="1388" type="line"/>
			<point x="128" y="1372" type="line"/>
			<point x="128" y="1260" type="line"/>
			<point x="246" y="1260"/>
			<point x="262" y="1260"/>
			<point x="262" y="1182" type="curve" smooth="yes"/>
		</contour>
	</outline>
</glyph>
<glyph name="i" format="2">
  <advance width="363"/>
  <unicode hex="0069"/>
  <outline>
    <contour>
      <point x="134" y="56" type="line"/>
      <point x="111.689" y="56.0"/>
      <point x="89.378" y="56.0"/>
      <point x="67" y="56" type="curve"/>
      <point x="67" y="56" type="line"/>
      <point x="67" y="0" type="line"/>
      <point x="69" y="0"/>
      <point x="148" y="4"/>
      <point x="193" y="4" type="curve" smooth="yes"/>
      <point x="234" y="4"/>
      <point x="274" y="3"/>
      <point x="315" y="0" type="curve"/>
      <point x="315" y="56" type="line"/>
      <point x="294.687" y="56.0"/>
      <point x="274.374" y="56.0"/>
      <point x="254" y="56" type="curve"/>
      <point x="254" y="450" type="line"/>
      <point x="70" y="442" type="line"/>
      <point x="70" y="386" type="line"/>
      <point x="127" y="386"/>
      <point x="134" y="386"/>
      <point x="134" y="347" type="curve" smooth="yes"/>
    </contour>
    <contour>
      <point x="262" y="613" type="curve" smooth="yes"/>
      <point x="262" y="661"/>
      <point x="223" y="695"/>
      <point x="181" y="695" type="curve" smooth="yes"/>
      <point x="133" y="695"/>
      <point x="99" y="656"/>
      <point x="99" y="614" type="curve" smooth="yes"/>
      <point x="99" y="566"/>
      <point x="138" y="532"/>
      <point x="180" y="532" type="curve" smooth="yes"/>
      <point x="228" y="532"/>
      <point x="262" y="571"/>
    </contour>
  </outline>
</glyph>
<glyph name="j" format="2">
	<unicode hex="006A"/>
	<advance width="398"/>
	<outline>
		<contour>
			<point x="184" y="346" type="curve" smooth="yes"/>
			<point x="184" y="-36" type="line" smooth="yes"/>
			<point x="184" y="-103"/>
			<point x="155" y="-154"/>
			<point x="102" y="-154" type="curve" smooth="yes"/>
			<point x="98" y="-154"/>
			<point x="68" y="-152"/>
			<point x="68" y="-149" type="curve"/>
			<point x="68" y="-145"/>
			<point x="84" y="-132"/>
			<point x="84" y="-101" type="curve" smooth="yes"/>
			<point x="84" y="-60"/>
			<point x="53" y="-32"/>
			<point x="15" y="-32" type="curve" smooth="yes"/>
			<point x="-27" y="-32"/>
			<point x="-55" y="-63"/>
			<point x="-55" y="-101" type="curve" smooth="yes"/>
			<point x="-55" y="-170"/>
			<point x="18" y="-200"/>
			<point x="103" y="-200" type="curve" smooth="yes"/>
			<point x="193" y="-200"/>
			<point x="304" y="-152"/>
			<point x="304" y="-38" type="curve" smooth="yes"/>
			<point x="304" y="450" type="line"/>
			<point x="110" y="442" type="line"/>
			<point x="110" y="386" type="line"/>
			<point x="176" y="386"/>
			<point x="184" y="386"/>
		</contour>
		<contour>
			<point x="304" y="613" type="curve" smooth="yes"/>
			<point x="304" y="661"/>
			<point x="265" y="695"/>
			<point x="223" y="695" type="curve" smooth="yes"/>
			<point x="175" y="695"/>
			<point x="141" y="656"/>
			<point x="141" y="614" type="curve" smooth="yes"/>
			<point x="141" y="566"/>
			<point x="180" y="532"/>
			<point x="222" y="532" type="curve" smooth="yes"/>
			<point x="270" y="532"/>
			<point x="304" y="571"/>
		</contour>
	</outline>
</glyph>
<glyph name="l" format="2">
	<unicode hex="006C"/>
	<advance width="726"/>
	<outline>
		<contour>
			<point x="508" y="1388" type="line"/>
			<point x="134" y="1372" type="line"/>
			<point x="134" y="1260" type="line"/>
			<point x="252" y="1260"/>
			<point x="268" y="1260"/>
			<point x="268" y="1182" type="curve" smooth="yes"/>
			<point x="268" y="112" type="line"/>
			<point x="223" y="112"/>
			<point x="179" y="112"/>
			<point x="134" y="112" type="curve"/>
			<point x="134" y="112" type="line"/>
			<point x="134" y="0" type="line"/>
			<point x="140" y="0"/>
			<point x="296" y="8"/>
			<point x="388" y="8" type="curve" smooth="yes"/>
			<point x="486" y="8"/>
			<point x="636" y="0"/>
			<point x="642" y="0" type="curve"/>
			<point x="642" y="112" type="line"/>
			<point x="642" y="112" type="line"/>
			<point x="597" y="112"/>
			<point x="553" y="112"/>
			<point x="508" y="112" type="curve"/>
		</contour>
	</outline>
</glyph>
<glyph name="m" format="2">
	<unicode hex="006D"/>
	<advance width="1073"/>
	<outline>
		<contour>
			<point x="131" y="56" type="line"/>
			<point x="108.689" y="56"/>
			<point x="86.378" y="56"/>
			<point x="64" y="56" type="curve"/>
			<point x="64" y="56" type="line"/>
			<point x="64" y="0" type="line"/>
			<point x="65" y="0"/>
			<point x="146" y="4"/>
			<point x="194" y="4" type="curve" smooth="yes"/>
			<point x="243" y="4"/>
			<point x="324" y="0"/>
			<point x="325" y="0" type="curve"/>
			<point x="325" y="56" type="line"/>
			<point x="325" y="56" type="line"/>
			<point x="302.689" y="56"/>
			<point x="280.378" y="56"/>
			<point x="258" y="56" type="curve"/>
			<point x="258" y="249" type="line" smooth="yes"/>
			<point x="258" y="367"/>
			<point x="365" y="404"/>
			<point x="422" y="404" type="curve" smooth="yes"/>
			<point x="467" y="404"/>
			<point x="486" y="382"/>
			<point x="486" y="308" type="curve" smooth="yes"/>
			<point x="486" y="56" type="line"/>
			<point x="463.689" y="56"/>
			<point x="441.378" y="56"/>
			<point x="419" y="56" type="curve"/>
			<point x="419" y="56" type="line"/>
			<point x="419" y="0" type="line"/>
			<point x="420" y="0"/>
			<point x="501" y="4"/>
			<point x="549" y="4" type="curve" smooth="yes"/>
			<point x="598" y="4"/>
			<point x="679" y="0"/>
			<point x="680" y="0" type="curve"/>
			<point x="680" y="56" type="line"/>
			<point x="680" y="56" type="line"/>
			<point x="657.689" y="56"/>
			<point x="635.378" y="56"/>
			<point x="613" y="56" type="curve"/>
			<point x="613" y="249" type="line" smooth="yes"/>
			<point x="613" y="367"/>
			<point x="720" y="404"/>
			<point x="777" y="404" type="curve" smooth="yes"/>
			<point x="822" y="404"/>
			<point x="841" y="382"/>
			<point x="841" y="308" type="curve" smooth="yes"/>
			<point x="841" y="56" type="line"/>
			<point x="818.689" y="56"/>
			<point x="796.378" y="56"/>
			<point x="774" y="56" type="curve"/>
			<point x="774" y="56" type="line"/>
			<point x="774" y="0" type="line"/>
			<point x="775" y="0"/>
			<point x="856" y="4"/>
			<point x="904" y="4" type="curve" smooth="yes"/>
			<point x="953" y="4"/>
			<point x="1034" y="0"/>
			<point x="1035" y="0" type="curve"/>
			<point x="1035" y="56" type="line"/>
			<point x="1035" y="56" type="line"/>
			<point x="1012.689" y="56"/>
			<point x="990.378" y="56"/>
			<point x="968" y="56" type="curve"/>
			<point x="968" y="301" type="line" smooth="yes"/>
			<point x="968" y="352"/>
			<point x="954" y="386"/>
			<point x="932" y="409" type="curve" smooth="yes"/>
			<point x="899" y="442"/>
			<point x="849" y="450"/>
			<point x="797" y="450" type="curve" smooth="yes"/>
			<point x="701" y="450"/>
			<point x="640" y="405"/>
			<point x="607" y="356" type="curve"/>
			<point x="582" y="443"/>
			<point x="496" y="450"/>
			<point x="442" y="450" type="curve" smooth="yes"/>
			<point x="322" y="450"/>
			<point x="265" y="380"/>
			<point x="245" y="346" type="curve"/>
			<point x="245" y="346" type="line"/>
			<point x="245" y="450" type="line"/>
			<point x="64" y="442" type="line"/>
			<point x="64" y="386" type="line"/>
			<point x="123" y="386"/>
			<point x="131" y="386"/>
			<point x="131" y="347" type="curve" smooth="yes"/>
		</contour>
	</outline>
</glyph>
<glyph name="n" format="2">
	<unicode hex="006E"/>
	<advance width="1436"/>
	<outline>
		<contour>
			<point x="262" y="112" type="line"/>
			<point x="217" y="112"/>
			<point x="173" y="112"/>
			<point x="128" y="112" type="curve"/>
			<point x="128" y="112" type="line"/>
			<point x="128" y="0" type="line"/>
			<point x="130" y="0"/>
			<point x="292" y="8"/>
			<point x="388" y="8" type="curve" smooth="yes"/>
			<point x="486" y="8"/>
			<point x="648" y="0"/>
			<point x="650" y="0" type="curve"/>
			<point x="650" y="112" type="line"/>
			<point x="650" y="112" type="line"/>
			<point x="605" y="112"/>
			<point x="561" y="112"/>
			<point x="516" y="112" type="curve"/>
			<point x="516" y="498" type="line" smooth="yes"/>
			<point x="516" y="730"/>
			<point x="724" y="808"/>
			<point x="844" y="808" type="curve" smooth="yes"/>
			<point x="932" y="808"/>
			<point x="970" y="762"/>
			<point x="970" y="618" type="curve" smooth="yes"/>
			<point x="970" y="112" type="line"/>
			<point x="925" y="112"/>
			<point x="881" y="112"/>
			<point x="836" y="112" type="curve"/>
			<point x="836" y="112" type="line"/>
			<point x="836" y="0" type="line"/>
			<point x="838" y="0"/>
			<point x="1000" y="8"/>
			<point x="1096" y="8" type="curve" smooth="yes"/>
			<point x="1194" y="8"/>
			<point x="1356" y="0"/>
			<point x="1358" y="0" type="curve"/>
			<point x="1358" y="112" type="line"/>
			<point x="1358" y="112" type="line"/>
			<point x="1313" y="112"/>
			<point x="1269" y="112"/>
			<point x="1224" y="112" type="curve"/>
			<point x="1224" y="602" type="line" smooth="yes"/>
			<point x="1224" y="704"/>
			<point x="1196" y="772"/>
			<point x="1152" y="818" type="curve" smooth="yes"/>
			<point x="1088" y="882"/>
			<point x="990" y="900"/>
			<point x="882" y="900" type="curve" smooth="yes"/>
			<point x="640" y="900"/>
			<point x="528" y="756"/>
			<point x="490" y="692" type="curve"/>
			<point x="490" y="692" type="line"/>
			<point x="490" y="900" type="line"/>
			<point x="128" y="884" type="line"/>
			<point x="128" y="772" type="line"/>
			<point x="246" y="772"/>
			<point x="262" y="772"/>
			<point x="262" y="694" type="curve" smooth="yes"/>
		</contour>
	</outline>
</glyph>
<glyph name="o" format="2">
	<unicode hex="006F"/>
	<advance width="647"/>
	<outline>
		<contour>
			<point x="606" y="218" type="curve" smooth="yes"/>
			<point x="606" y="337"/>
			<point x="519" y="453"/>
			<point x="323" y="453" type="curve" smooth="yes"/>
			<point x="125" y="453"/>
			<point x="40" y="336"/>
			<point x="40" y="218" type="curve" smooth="yes"/>
			<point x="40" y="101"/>
			<point x="129" y="-6"/>
			<point x="323" y="-6" type="curve" smooth="yes"/>
			<point x="518" y="-6"/>
			<point x="606" y="102"/>
		</contour>
		<contour>
			<point x="323" y="45" type="curve" smooth="yes"/>
			<point x="270" y="45"/>
			<point x="236.5061355584" y="58.4113481964"/>
			<point x="215.3404273048" y="79.6496784122" type="curve" smooth="yes"/>
			<point x="179" y="116.1147938732"/>
			<point x="179" y="175.65316"/>
			<point x="179" y="230" type="curve" smooth="yes"/>
			<point x="179" y="280"/>
			<point x="179" y="336.640625"/>
			<point x="214.15625" y="372.08984375" type="curve" smooth="yes"/>
			<point x="235.25" y="393.359375"/>
			<point x="269" y="407"/>
			<point x="323" y="407" type="curve" smooth="yes"/>
			<point x="377" y="407"/>
			<point x="410.75" y="393.359375"/>
			<point x="431.84375" y="372.08984375" type="curve" smooth="yes"/>
			<point x="467" y="336.640625"/>
			<point x="467" y="280"/>
			<point x="467" y="230" type="curve" smooth="yes"/>
			<point x="467" y="175.65316"/>
			<point x="467" y="116.1147938732"/>
			<point x="430.6595726952" y="79.6496784122" type="curve" smooth="yes"/>
			<point x="409.4938644416" y="58.4113481964"/>
			<point x="376.00064" y="45"/>
		</contour>
	</outline>
</glyph>
<glyph name="p" format="2">
	<unicode hex="0070"/>
	<advance width="1436"/>
	<outline>
		<contour>
			<point x="110" y="772" type="line"/>
			<point x="110" y="772" type="line"/>
			<point x="242" y="772"/>
			<point x="244" y="769"/>
			<point x="244" y="702" type="curve" smooth="yes"/>
			<point x="244" y="-276" type="line"/>
			<point x="199" y="-276"/>
			<point x="155" y="-276"/>
			<point x="110" y="-276" type="curve"/>
			<point x="110" y="-276" type="line"/>
			<point x="110" y="-388" type="line"/>
			<point x="112" y="-388"/>
			<point x="274" y="-380"/>
			<point x="370" y="-380" type="curve" smooth="yes"/>
			<point x="468" y="-380"/>
			<point x="630" y="-388"/>
			<point x="632" y="-388" type="curve"/>
			<point x="632" y="-276" type="line"/>
			<point x="587" y="-276"/>
			<point x="543" y="-276"/>
			<point x="498" y="-276" type="curve"/>
			<point x="498" y="74" type="line"/>
			<point x="548" y="40"/>
			<point x="646" y="-12"/>
			<point x="786" y="-12" type="curve" smooth="yes"/>
			<point x="1130" y="-12"/>
			<point x="1340" y="182"/>
			<point x="1340" y="446" type="curve" smooth="yes"/>
			<point x="1340" y="688"/>
			<point x="1166" y="900"/>
			<point x="826" y="900" type="curve" smooth="yes"/>
			<point x="722" y="900"/>
			<point x="600" y="880"/>
			<point x="484" y="808" type="curve"/>
			<point x="484" y="900" type="line"/>
			<point x="110" y="884" type="line"/>
		</contour>
		<contour>
			<point x="1062" y="446" type="curve" smooth="yes"/>
			<point x="1062" y="186"/>
			<point x="912" y="80"/>
			<point x="760" y="80" type="curve" smooth="yes"/>
			<point x="608" y="80"/>
			<point x="522" y="188"/>
			<point x="498" y="222" type="curve"/>
			<point x="498" y="222"/>
			<point x="498" y="222"/>
			<point x="498" y="222" type="curve"/>
			<point x="498" y="640" type="line" smooth="yes"/>
			<point x="498" y="678"/>
			<point x="500" y="680"/>
			<point x="528" y="706" type="curve" smooth="yes"/>
			<point x="624" y="790"/>
			<point x="742" y="798"/>
			<point x="784" y="798" type="curve" smooth="yes"/>
			<point x="954" y="798"/>
			<point x="1062" y="662"/>
		</contour>
	</outline>
</glyph>
<glyph name="q" format="2">
	<unicode hex="0071"/>
	<advance width="1364"/>
	<outline>
		<contour>
			<point x="94" y="442" type="curve" smooth="yes"/>
			<point x="94" y="200"/>
			<point x="276" y="-12"/>
			<point x="624" y="-12" type="curve" smooth="yes"/>
			<point x="748" y="-12"/>
			<point x="854" y="28"/>
			<point x="938" y="90" type="curve"/>
			<point x="938" y="-276" type="line"/>
			<point x="893" y="-276"/>
			<point x="849" y="-276"/>
			<point x="804" y="-276" type="curve"/>
			<point x="804" y="-276" type="line"/>
			<point x="804" y="-388" type="line"/>
			<point x="806" y="-388"/>
			<point x="968" y="-380"/>
			<point x="1064" y="-380" type="curve" smooth="yes"/>
			<point x="1162" y="-380"/>
			<point x="1324" y="-388"/>
			<point x="1326" y="-388" type="curve"/>
			<point x="1326" y="-276" type="line"/>
			<point x="1326" y="-276" type="line"/>
			<point x="1281" y="-276"/>
			<point x="1237" y="-276"/>
			<point x="1192" y="-276" type="curve"/>
			<point x="1192" y="900" type="line"/>
			<point x="1080" y="900" type="line"/>
			<point x="988" y="746" type="line"/>
			<point x="894" y="850"/>
			<point x="778" y="900"/>
			<point x="642" y="900" type="curve" smooth="yes"/>
			<point x="300" y="900"/>
			<point x="94" y="704"/>
		</contour>
		<contour>
			<point x="372" y="442" type="curve" smooth="yes"/>
			<point x="372" y="694"/>
			<point x="522" y="798"/>
			<point x="674" y="798" type="curve" smooth="yes"/>
			<point x="842" y="798"/>
			<point x="952" y="644"/>
			<point x="952" y="538" type="curve" smooth="yes"/>
			<point x="952" y="268" type="line"/>
			<point x="952" y="268"/>
			<point x="952" y="268"/>
			<point x="952" y="268" type="curve"/>
			<point x="884" y="148"/>
			<point x="772" y="80"/>
			<point x="648" y="80" type="curve" smooth="yes"/>
			<point x="498" y="80"/>
			<point x="372" y="200"/>
		</contour>
	</outline>
</glyph>
<glyph name="r" format="2">
  <advance width="534"/>
  <unicode hex="0072"/>
  <outline>
    <contour>
      <point x="122" y="56" type="line"/>
      <point x="122.0" y="56.0"/>
      <point x="122.0" y="56.0"/>
      <point x="122" y="56" type="curve"/>
      <point x="55" y="56" type="line"/>
      <point x="55" y="0" type="line"/>
      <point x="59" y="0"/>
      <point x="136" y="4"/>
      <point x="183" y="4" type="curve" smooth="yes"/>
      <point x="222" y="4"/>
      <point x="319" y="0"/>
      <point x="326" y="0" type="curve"/>
      <point x="326" y="56" type="line"/>
      <point x="242" y="56" type="line"/>
      <point x="242.0" y="56.0"/>
      <point x="242.0" y="56.0"/>
      <point x="242" y="56" type="curve"/>
      <point x="242" y="210" type="line" smooth="yes"/>
      <point x="242" y="300"/>
      <point x="283" y="399"/>
      <point x="373" y="404" type="curve"/>
      <point x="373.0" y="404.0"/>
      <point x="373.0" y="404.0"/>
      <point x="373" y="404" type="curve"/>
      <point x="372" y="403"/>
      <point x="359" y="386"/>
      <point x="359" y="361" type="curve" smooth="yes"/>
      <point x="359" y="322"/>
      <point x="387" y="293"/>
      <point x="427" y="293" type="curve" smooth="yes"/>
      <point x="467" y="293"/>
      <point x="495" y="322"/>
      <point x="495" y="361" type="curve" smooth="yes"/>
      <point x="495" y="416"/>
      <point x="439" y="450"/>
      <point x="377" y="450" type="curve" smooth="yes"/>
      <point x="305" y="450"/>
      <point x="257" y="402"/>
      <point x="230" y="340" type="curve"/>
      <point x="229" y="340" type="line"/>
      <point x="229" y="450" type="line"/>
      <point x="55" y="442" type="line"/>
      <point x="55" y="386" type="line"/>
      <point x="114" y="386"/>
      <point x="122" y="386"/>
      <point x="122" y="347" type="curve" smooth="yes"/>
    </contour>
  </outline>
</glyph>
<glyph name="s" format="2">
	<unicode hex="0073"/>
	<advance width="1024"/>
	<outline>
		<contour>
			<point x="928" y="284" type="curve" smooth="yes"/>
			<point x="928" y="376"/>
			<point x="880" y="440"/>
			<point x="834" y="478" type="curve" smooth="yes"/>
			<point x="740" y="556"/>
			<point x="654" y="570"/>
			<point x="488" y="596" type="curve" smooth="yes"/>
			<point x="374" y="614"/>
			<point x="256" y="632"/>
			<point x="256" y="712" type="curve" smooth="yes"/>
			<point x="256" y="824"/>
			<point x="456" y="824"/>
			<point x="498" y="824" type="curve" smooth="yes"/>
			<point x="724" y="824"/>
			<point x="732" y="732"/>
			<point x="738" y="684" type="curve" smooth="yes"/>
			<point x="742" y="644"/>
			<point x="754" y="640"/>
			<point x="800" y="640" type="curve" smooth="yes"/>
			<point x="858" y="640"/>
			<point x="864" y="646"/>
			<point x="864" y="704" type="curve" smooth="yes"/>
			<point x="864" y="842" type="line" smooth="yes"/>
			<point x="864" y="882"/>
			<point x="864" y="906"/>
			<point x="816" y="906" type="curve" smooth="yes"/>
			<point x="802" y="906"/>
			<point x="796" y="906"/>
			<point x="764" y="890" type="curve" smooth="yes"/>
			<point x="736" y="876"/>
			<point x="730" y="874"/>
			<point x="712" y="880" type="curve" smooth="yes"/>
			<point x="626" y="906"/>
			<point x="546" y="906"/>
			<point x="504" y="906" type="curve" smooth="yes"/>
			<point x="276" y="906"/>
			<point x="94" y="830"/>
			<point x="94" y="638" type="curve" smooth="yes"/>
			<point x="94" y="558"/>
			<point x="130" y="502"/>
			<point x="183" y="462" type="curve" smooth="yes"/>
			<point x="273" y="395"/>
			<point x="410" y="374"/>
			<point x="498" y="360" type="curve" smooth="yes"/>
			<point x="572" y="348"/>
			<point x="656" y="336"/>
			<point x="710" y="305" type="curve" smooth="yes"/>
			<point x="744" y="284"/>
			<point x="766" y="256"/>
			<point x="766" y="216" type="curve" smooth="yes"/>
			<point x="766" y="80"/>
			<point x="568" y="80"/>
			<point x="520" y="80" type="curve" smooth="yes"/>
			<point x="330" y="80"/>
			<point x="260" y="166"/>
			<point x="222" y="274" type="curve" smooth="yes"/>
			<point x="210" y="308"/>
			<point x="208" y="312"/>
			<point x="158" y="312" type="curve" smooth="yes"/>
			<point x="100" y="312"/>
			<point x="94" y="306"/>
			<point x="94" y="248" type="curve" smooth="yes"/>
			<point x="94" y="52" type="line" smooth="yes"/>
			<point x="94" y="12"/>
			<point x="94" y="-12"/>
			<point x="140" y="-12" type="curve" smooth="yes"/>
			<point x="158" y="-12"/>
			<point x="162" y="-12"/>
			<point x="204" y="14" type="curve"/>
			<point x="216" y="20"/>
			<point x="248" y="38"/>
			<point x="260" y="46" type="curve"/>
			<point x="364" y="-12"/>
			<point x="472" y="-12"/>
			<point x="518" y="-12" type="curve" smooth="yes"/>
			<point x="584" y="-12"/>
			<point x="928" y="-12"/>
		</contour>
	</outline>
</glyph>
<glyph name="t" format="2">
	<unicode hex="0074"/>
	<advance width="505"/>
	<outline>
		<contour>
			<point x="245" y="388" type="line"/>
			<point x="408" y="388" type="line"/>
			<point x="408" y="444" type="line"/>
			<point x="245" y="444" type="line"/>
			<point x="245" y="635" type="line"/>
			<point x="182" y="635" type="line"/>
			<point x="181" y="542"/>
			<point x="134" y="437"/>
			<point x="28" y="434" type="curve"/>
			<point x="28" y="388" type="line"/>
			<point x="118" y="388" type="line"/>
			<point x="118" y="121" type="line" smooth="yes"/>
			<point x="118" y="22"/>
			<point x="199" y="-6"/>
			<point x="286" y="-6" type="curve" smooth="yes"/>
			<point x="365" y="-6"/>
			<point x="429" y="40"/>
			<point x="429" y="121" type="curve" smooth="yes"/>
			<point x="429" y="173" type="line"/>
			<point x="366" y="173" type="line"/>
			<point x="366" y="125" type="line" smooth="yes"/>
			<point x="366" y="56"/>
			<point x="324" y="45"/>
			<point x="304" y="45" type="curve" smooth="yes"/>
			<point x="246" y="45"/>
			<point x="245" y="94"/>
			<point x="245" y="121" type="curve" smooth="yes"/>
		</contour>
	</outline>
</glyph>
<glyph name="u" format="2">
	<unicode hex="0075"/>
	<advance width="1436"/>
	<outline>
		<contour>
			<point x="262" y="694" type="curve" smooth="yes"/>
			<point x="262" y="242" type="line" smooth="yes"/>
			<point x="262" y="167"/>
			<point x="285" y="113"/>
			<point x="323" y="76" type="curve" smooth="yes"/>
			<point x="401" y="-2"/>
			<point x="540" y="-12"/>
			<point x="656" y="-12" type="curve" smooth="yes"/>
			<point x="722" y="-12"/>
			<point x="870" y="-12"/>
			<point x="984" y="130" type="curve"/>
			<point x="984" y="130" type="line"/>
			<point x="984" y="-12" type="line"/>
			<point x="1358" y="0" type="line"/>
			<point x="1358" y="112" type="line"/>
			<point x="1240" y="112"/>
			<point x="1224" y="112"/>
			<point x="1224" y="190" type="curve" smooth="yes"/>
			<point x="1224" y="900" type="line"/>
			<point x="836" y="884" type="line"/>
			<point x="836" y="772" type="line"/>
			<point x="954" y="772"/>
			<point x="970" y="772"/>
			<point x="970" y="694" type="curve" smooth="yes"/>
			<point x="970" y="324" type="line" smooth="yes"/>
			<point x="970" y="158"/>
			<point x="842" y="80"/>
			<point x="690" y="80" type="curve" smooth="yes"/>
			<point x="518" y="80"/>
			<point x="516" y="124"/>
			<point x="516" y="220" type="curve" smooth="yes"/>
			<point x="516" y="900" type="line"/>
			<point x="128" y="884" type="line"/>
			<point x="128" y="772" type="line"/>
			<point x="246" y="772"/>
			<point x="262" y="772"/>
		</contour>
	</outline>
</glyph>
<glyph name="v" format="2">
	<unicode hex="0076"/>
	<advance width="1364"/>
	<outline>
		<contour>
			<point x="682" y="-12" type="curve" smooth="yes"/>
			<point x="742" y="-12"/>
			<point x="760" y="-8"/>
			<point x="788" y="44" type="curve" smooth="yes"/>
			<point x="907" y="276"/>
			<point x="1026" y="509"/>
			<point x="1146" y="742" type="curve" smooth="yes"/>
			<point x="1168" y="782"/>
			<point x="1182" y="772"/>
			<point x="1292" y="776" type="curve"/>
			<point x="1292" y="813"/>
			<point x="1292" y="851"/>
			<point x="1292" y="888" type="curve"/>
			<point x="1230" y="884"/>
			<point x="1188" y="880"/>
			<point x="1124" y="880" type="curve" smooth="yes"/>
			<point x="1064" y="880"/>
			<point x="986" y="882"/>
			<point x="926" y="888" type="curve"/>
			<point x="926" y="851"/>
			<point x="926" y="813"/>
			<point x="926" y="776" type="curve"/>
			<point x="978" y="776"/>
			<point x="990" y="772"/>
			<point x="1014" y="764" type="curve"/>
			<point x="1014" y="764"/>
			<point x="1014" y="764"/>
			<point x="1014" y="764" type="curve"/>
			<point x="925" y="589"/>
			<point x="836" y="414"/>
			<point x="746" y="238" type="curve"/>
			<point x="655" y="417"/>
			<point x="564" y="596"/>
			<point x="472" y="776" type="curve"/>
			<point x="472" y="776"/>
			<point x="472" y="776"/>
			<point x="472" y="776" type="curve"/>
			<point x="503" y="776"/>
			<point x="535" y="776"/>
			<point x="566" y="776" type="curve"/>
			<point x="566" y="813"/>
			<point x="566" y="851"/>
			<point x="566" y="888" type="curve"/>
			<point x="480" y="884"/>
			<point x="392" y="880"/>
			<point x="306" y="880" type="curve" smooth="yes"/>
			<point x="228" y="880"/>
			<point x="150" y="882"/>
			<point x="72" y="888" type="curve"/>
			<point x="72" y="851"/>
			<point x="72" y="813"/>
			<point x="72" y="776" type="curve"/>
			<point x="115" y="776"/>
			<point x="159" y="776"/>
			<point x="202" y="776" type="curve"/>
			<point x="327" y="532"/>
			<point x="451" y="288"/>
			<point x="576" y="44" type="curve" smooth="yes"/>
			<point x="602" y="-8"/>
			<point x="622" y="-12"/>
		</contour>
	</outline>
</glyph>
<glyph name="x" format="2">
	<unicode hex="0078"/>
	<advance width="1364"/>
	<outline>
		<contour>
			<point x="560" y="434" type="line"/>
			<point x="272" y="144" type="line" smooth="yes"/>
			<point x="244" y="116"/>
			<point x="236" y="112"/>
			<point x="70" y="112" type="curve"/>
			<point x="70" y="0" type="line"/>
			<point x="134" y="6"/>
			<point x="200" y="8"/>
			<point x="264" y="8" type="curve" smooth="yes"/>
			<point x="318" y="8"/>
			<point x="460" y="2"/>
			<point x="486" y="0" type="curve"/>
			<point x="486" y="112" type="line"/>
			<point x="454" y="112"/>
			<point x="446" y="116"/>
			<point x="432" y="126" type="curve"/>
			<point x="432" y="126"/>
			<point x="432" y="126"/>
			<point x="432" y="126" type="curve"/>
			<point x="504" y="198"/>
			<point x="576" y="270"/>
			<point x="648" y="342" type="curve"/>
			<point x="870" y="112" type="line"/>
			<point x="870" y="112"/>
			<point x="870" y="112"/>
			<point x="870" y="112" type="curve"/>
			<point x="853" y="112"/>
			<point x="835" y="112"/>
			<point x="818" y="112" type="curve"/>
			<point x="818" y="0" type="line"/>
			<point x="820" y="0"/>
			<point x="980" y="8"/>
			<point x="1072" y="8" type="curve" smooth="yes"/>
			<point x="1146" y="8"/>
			<point x="1222" y="6"/>
			<point x="1296" y="0" type="curve"/>
			<point x="1296" y="112" type="line"/>
			<point x="1247" y="112"/>
			<point x="1197" y="112"/>
			<point x="1148" y="112" type="curve"/>
			<point x="790" y="484" type="line"/>
			<point x="1066" y="762" type="line"/>
			<point x="1114" y="776"/>
			<point x="1166" y="776"/>
			<point x="1252" y="776" type="curve"/>
			<point x="1252" y="888" type="line"/>
			<point x="1188" y="882"/>
			<point x="1122" y="880"/>
			<point x="1058" y="880" type="curve" smooth="yes"/>
			<point x="990" y="880"/>
			<point x="852" y="886"/>
			<point x="836" y="888" type="curve"/>
			<point x="836" y="776" type="line"/>
			<point x="862" y="776"/>
			<point x="876" y="772"/>
			<point x="890" y="764" type="curve"/>
			<point x="890" y="764"/>
			<point x="890" y="764"/>
			<point x="890" y="764" type="curve"/>
			<point x="702" y="574" type="line"/>
			<point x="508" y="776" type="line"/>
			<point x="508" y="776"/>
			<point x="508" y="776"/>
			<point x="508" y="776" type="curve"/>
			<point x="526" y="776"/>
			<point x="544" y="776"/>
			<point x="562" y="776" type="curve"/>
			<point x="562" y="888" type="line"/>
			<point x="550" y="888"/>
			<point x="392" y="880"/>
			<point x="308" y="880" type="curve" smooth="yes"/>
			<point x="232" y="880"/>
			<point x="158" y="882"/>
			<point x="82" y="888" type="curve"/>
			<point x="82" y="776" type="line"/>
			<point x="132" y="776"/>
			<point x="182" y="776"/>
			<point x="232" y="776" type="curve"/>
		</contour>
	</outline>
</glyph>
<glyph name="z" format="2">
	<unicode hex="007A"/>
	<advance width="1152"/>
	<outline>
		<contour>
			<point x="700" y="796" type="line"/>
			<point x="104" y="110" type="line" smooth="yes"/>
			<point x="80" y="84"/>
			<point x="80" y="80"/>
			<point x="80" y="56" type="curve" smooth="yes"/>
			<point x="80" y="0"/>
			<point x="112" y="0"/>
			<point x="150" y="0" type="curve" smooth="yes"/>
			<point x="996" y="0" type="line"/>
			<point x="1036" y="406" type="line"/>
			<point x="910" y="406" type="line"/>
			<point x="890" y="190"/>
			<point x="826" y="102"/>
			<point x="590" y="102" type="curve" smooth="yes"/>
			<point x="410" y="102" type="line"/>
			<point x="1008" y="786" type="line" smooth="yes"/>
			<point x="1028" y="808"/>
			<point x="1028" y="820"/>
			<point x="1028" y="836" type="curve" smooth="yes"/>
			<point x="1028" y="888"/>
			<point x="994" y="888"/>
			<point x="958" y="888" type="curve" smooth="yes"/>
			<point x="142" y="888" type="line"/>
			<point x="114" y="536" type="line"/>
			<point x="240" y="536" type="line"/>
			<point x="256" y="752"/>
			<point x="348" y="796"/>
			<point x="534" y="796" type="curve" smooth="yes"/>
		</contour>
	</outline>
</glyph>
<glyph name="exclamdown" format="2">
	<unicode hex="00A1"/>
	<advance width="794"/>
	<outline>
		<contour>
			<point x="396" y="-412" type="curve" smooth="yes"/>
			<point x="478" y="-412"/>
			<point x="560" y="-356"/>
			<point x="560" y="-262" type="curve" smooth="yes"/>
			<point x="560" y="-252"/>
			<point x="556" y="-224"/>
			<point x="462" y="482" type="curve" smooth="yes"/>
			<point x="456" y="530"/>
			<point x="454" y="538"/>
			<point x="396" y="538" type="curve" smooth="yes"/>
			<point x="340" y="538"/>
			<point x="338" y="528"/>
			<point x="332" y="484" type="curve" smooth="yes"/>
			<point x="238" y="-222"/>
			<point x="234" y="-252"/>
			<point x="234" y="-262" type="curve" smooth="yes"/>
			<point x="234" y="-360"/>
			<point x="322" y="-412"/>
		</contour>
		<contour>
			<point x="560" y="836" type="curve" smooth="yes"/>
			<point x="560" y="932"/>
			<point x="482" y="1000"/>
			<point x="398" y="1000" type="curve" smooth="yes"/>
			<point x="302" y="1000"/>
			<point x="234" y="922"/>
			<point x="234" y="838" type="curve" smooth="yes"/>
			<point x="234" y="742"/>
			<point x="312" y="674"/>
			<point x="396" y="674" type="curve" smooth="yes"/>
			<point x="492" y="674"/>
			<point x="560" y="752"/>
		</contour>
	</outline>
</glyph>
<glyph name="dieresis" format="2">
	<unicode hex="00A8"/>
	<advance width="1294"/>
	<outline>
		<contour>
			<point x="548" y="1240" type="curve" smooth="yes"/>
			<point x="548" y="1328"/>
			<point x="478" y="1390"/>
			<point x="398" y="1390" type="curve" smooth="yes"/>
			<point x="316" y="1390"/>
			<point x="248" y="1320"/>
			<point x="248" y="1240" type="curve" smooth="yes"/>
			<point x="248" y="1160"/>
			<point x="316" y="1090"/>
			<point x="398" y="1090" type="curve" smooth="yes"/>
			<point x="478" y="1090"/>
			<point x="548" y="1152"/>
		</contour>
		<contour>
			<point x="1044" y="1240" type="curve" smooth="yes"/>
			<point x="1044" y="1320"/>
			<point x="976" y="1390"/>
			<point x="894" y="1390" type="curve" smooth="yes"/>
			<point x="814" y="1390"/>
			<point x="744" y="1328"/>
			<point x="744" y="1240" type="curve" smooth="yes"/>
			<point x="744" y="1152"/>
			<point x="814" y="1090"/>
			<point x="894" y="1090" type="curve" smooth="yes"/>
			<point x="976" y="1090"/>
			<point x="1044" y="1160"/>
		</contour>
	</outline>
</glyph>
<glyph name="macron" format="2">
	<unicode hex="00AF"/>
	<advance width="1294"/>
	<outline>
		<contour>
			<point x="1106" y="1112" type="line"/>
			<point x="1106" y="1236" type="line"/>
			<point x="186" y="1236" type="line"/>
			<point x="186" y="1112" type="line"/>
		</contour>
	</outline>
</glyph>
<glyph name="acute" format="2">
  <advance width="647"/>
  <unicode hex="00B4"/>
  <outline>
    <contour>
      <point x="303" y="501" type="line"/>
      <point x="470" y="577" type="line" smooth="yes"/>
      <point x="484" y="583"/>
      <point x="512" y="599"/>
      <point x="512" y="634" type="curve" smooth="yes"/>
      <point x="512" y="661"/>
      <point x="488" y="703"/>
      <point x="446" y="703" type="curve" smooth="yes"/>
      <point x="423" y="703"/>
      <point x="409" y="691"/>
      <point x="404" y="686" type="curve" smooth="yes"/>
      <point x="358.379" y="641.711"/>
      <point x="312.758" y="597.422"/>
      <point x="267" y="553" type="curve"/>
    </contour>
  </outline>
</glyph>
<glyph name="cedilla" format="2">
  <advance width="576"/>
  <unicode hex="00B8"/>
  <outline>
    <contour>
      <point x="366" y="-109" type="curve" smooth="yes"/>
      <point x="366" y="-159"/>
      <point x="238" y="-159"/>
      <point x="198" y="-159" type="curve" smooth="yes"/>
      <point x="153" y="-159" type="line"/>
      <point x="153" y="-205" type="line"/>
      <point x="216" y="-205" type="line" smooth="yes"/>
      <point x="283.99332" y="-205.0"/>
      <point x="335.3872937476" y="-200.9022534356"/>
      <point x="374.20874206497007" y="-194.18936251859898" type="curve" smooth="yes"/>
      <point x="482.6949066996" y="-175.4302532952"/>
      <point x="493.0" y="-136.24902"/>
      <point x="493" y="-109" type="curve" smooth="yes"/>
      <point x="493" y="-42"/>
      <point x="426" y="-27"/>
      <point x="387" y="-21" type="curve"/>
      <point x="387" y="-12" type="line"/>
      <point x="260" y="-12" type="line"/>
      <point x="260" y="-61" type="line"/>
      <point x="296" y="-61"/>
      <point x="366" y="-63"/>
    </contour>
  </outline>
</glyph>
<glyph name="questiondown" format="2">
	<unicode hex="00BF"/>
	<advance width="1222"/>
	<outline>
		<contour>
			<point x="150" y="-140" type="curve" smooth="yes"/>
			<point x="150" y="-400"/>
			<point x="490" y="-400"/>
			<point x="576" y="-400" type="curve" smooth="yes"/>
			<point x="688" y="-400"/>
			<point x="1072" y="-400"/>
			<point x="1072" y="-142" type="curve" smooth="yes"/>
			<point x="1072" y="-56"/>
			<point x="1010" y="-2"/>
			<point x="934" y="-2" type="curve" smooth="yes"/>
			<point x="844" y="-2"/>
			<point x="794" y="-66"/>
			<point x="794" y="-140" type="curve" smooth="yes"/>
			<point x="794" y="-190"/>
			<point x="818" y="-238"/>
			<point x="862" y="-260" type="curve"/>
			<point x="760" y="-308"/>
			<point x="622" y="-308"/>
			<point x="586" y="-308" type="curve" smooth="yes"/>
			<point x="432" y="-308"/>
			<point x="428" y="-266"/>
			<point x="428" y="-154" type="curve" smooth="yes"/>
			<point x="428" y="-76"/>
			<point x="436" y="-46"/>
			<point x="470" y="-6" type="curve" smooth="yes"/>
			<point x="638" y="190"/>
			<point x="638" y="362"/>
			<point x="638" y="444" type="curve" smooth="yes"/>
			<point x="638" y="458"/>
			<point x="638" y="470"/>
			<point x="638" y="482" type="curve" smooth="yes"/>
			<point x="636" y="534"/>
			<point x="628" y="538"/>
			<point x="574" y="538" type="curve" smooth="yes"/>
			<point x="514" y="538"/>
			<point x="512" y="524"/>
			<point x="512" y="474" type="curve" smooth="yes"/>
			<point x="512" y="430" type="line" smooth="yes"/>
			<point x="512" y="272"/>
			<point x="424" y="156"/>
			<point x="282" y="68" type="curve" smooth="yes"/>
			<point x="240" y="42"/>
			<point x="150" y="-14"/>
		</contour>
		<contour>
			<point x="738" y="836" type="curve" smooth="yes"/>
			<point x="738" y="932"/>
			<point x="660" y="1000"/>
			<point x="576" y="1000" type="curve" smooth="yes"/>
			<point x="480" y="1000"/>
			<point x="412" y="922"/>
			<point x="412" y="838" type="curve" smooth="yes"/>
			<point x="412" y="742"/>
			<point x="490" y="674"/>
			<point x="574" y="674" type="curve" smooth="yes"/>
			<point x="670" y="674"/>
			<point x="738" y="752"/>
		</contour>
	</outline>
</glyph>
<glyph name="AE" format="2">
	<unicode hex="00C6"/>
	<advance width="2324"/>
	<outline>
		<contour>
			<point x="2106" y="1372" type="line"/>
			<point x="702" y="1372" type="line"/>
			<point x="702" y="1260" type="line"/>
			<point x="830" y="1260" type="line"/>
			<point x="320" y="148" type="line" smooth="yes"/>
			<point x="302" y="110"/>
			<point x="240" y="112"/>
			<point x="162" y="112" type="curve" smooth="yes"/>
			<point x="104" y="112" type="line"/>
			<point x="104" y="0" type="line"/>
			<point x="108" y="0"/>
			<point x="258" y="8"/>
			<point x="352" y="8" type="curve" smooth="yes"/>
			<point x="428" y="8"/>
			<point x="616" y="0"/>
			<point x="636" y="0" type="curve"/>
			<point x="636" y="112" type="line"/>
			<point x="530" y="112"/>
			<point x="516" y="116"/>
			<point x="466" y="126" type="curve"/>
			<point x="466" y="126"/>
			<point x="466" y="126"/>
			<point x="466" y="126" type="curve"/>
			<point x="684" y="604" type="line"/>
			<point x="1074" y="604" type="line"/>
			<point x="1074" y="112" type="line"/>
			<point x="1074" y="112"/>
			<point x="1074" y="112"/>
			<point x="1074" y="112" type="curve"/>
			<point x="914" y="112" type="line"/>
			<point x="914" y="0" type="line"/>
			<point x="2142" y="0" type="line"/>
			<point x="2244" y="538" type="line"/>
			<point x="2118" y="538" type="line"/>
			<point x="2070" y="296"/>
			<point x="2028" y="112"/>
			<point x="1658" y="112" type="curve" smooth="yes"/>
			<point x="1358" y="112" type="line"/>
			<point x="1358" y="112"/>
			<point x="1358" y="112"/>
			<point x="1358" y="112" type="curve"/>
			<point x="1358" y="604" type="line"/>
			<point x="1504" y="604" type="line" smooth="yes"/>
			<point x="1674" y="604"/>
			<point x="1734" y="558"/>
			<point x="1734" y="384" type="curve"/>
			<point x="1860" y="384" type="line"/>
			<point x="1860" y="936" type="line"/>
			<point x="1734" y="936" type="line"/>
			<point x="1734" y="762"/>
			<point x="1674" y="716"/>
			<point x="1504" y="716" type="curve" smooth="yes"/>
			<point x="1358" y="716" type="line"/>
			<point x="1358" y="1260" type="line"/>
			<point x="1358" y="1260"/>
			<point x="1358" y="1260"/>
			<point x="1358" y="1260" type="curve"/>
			<point x="1652" y="1260" type="line" smooth="yes"/>
			<point x="1920" y="1260"/>
			<point x="2014" y="1166"/>
			<point x="2048" y="894" type="curve"/>
			<point x="2174" y="894" type="line"/>
		</contour>
		<contour>
			<point x="736" y="716" type="line"/>
			<point x="986" y="1260" type="line"/>
			<point x="1015" y="1260"/>
			<point x="1045" y="1260"/>
			<point x="1074" y="1260" type="curve"/>
			<point x="1074" y="716" type="line"/>
		</contour>
	</outline>
</glyph>
<glyph name="Oslash" format="2">
	<unicode hex="00D8"/>
	<advance width="2004"/>
	<outline>
		<contour>
			<point x="1650" y="1438" type="line"/>
			<point x="1568" y="1502" type="line"/>
			<point x="1428" y="1318" type="line"/>
			<point x="1306" y="1370"/>
			<point x="1154" y="1396"/>
			<point x="1002" y="1396" type="curve" smooth="yes"/>
			<point x="418" y="1396"/>
			<point x="150" y="1050"/>
			<point x="150" y="678" type="curve" smooth="yes"/>
			<point x="150" y="520"/>
			<point x="204" y="258"/>
			<point x="480" y="100" type="curve"/>
			<point x="354" y="-66" type="line"/>
			<point x="380" y="-87"/>
			<point x="406" y="-109"/>
			<point x="432" y="-130" type="curve"/>
			<point x="574" y="52" type="line"/>
			<point x="706" y="-2"/>
			<point x="856" y="-24"/>
			<point x="1000" y="-24" type="curve" smooth="yes"/>
			<point x="1580" y="-24"/>
			<point x="1852" y="308"/>
			<point x="1852" y="678" type="curve" smooth="yes"/>
			<point x="1852" y="886"/>
			<point x="1762" y="1132"/>
			<point x="1520" y="1270" type="curve"/>
		</contour>
		<contour>
			<point x="1002" y="68" type="curve" smooth="yes"/>
			<point x="926" y="68"/>
			<point x="780" y="76"/>
			<point x="656" y="156" type="curve"/>
			<point x="1424" y="1146" type="line"/>
			<point x="1530" y="1026"/>
			<point x="1550" y="868"/>
			<point x="1550" y="678" type="curve" smooth="yes"/>
			<point x="1550" y="562"/>
			<point x="1550" y="345"/>
			<point x="1407" y="204" type="curve" smooth="yes"/>
			<point x="1326" y="124"/>
			<point x="1200" y="68"/>
		</contour>
		<contour>
			<point x="576" y="222" type="line"/>
			<point x="462" y="350"/>
			<point x="452" y="526"/>
			<point x="452" y="678" type="curve" smooth="yes"/>
			<point x="452" y="904"/>
			<point x="482" y="1040"/>
			<point x="584" y="1150" type="curve" smooth="yes"/>
			<point x="660" y="1236"/>
			<point x="800" y="1304"/>
			<point x="1000" y="1304" type="curve" smooth="yes"/>
			<point x="1120" y="1304"/>
			<point x="1244" y="1280"/>
			<point x="1346" y="1214" type="curve"/>
		</contour>
	</outline>
</glyph>
<glyph name="germandbls" format="2">
	<unicode hex="00DF"/>
	<advance width="1336"/>
	<outline>
		<contour>
			<point x="944" y="838" type="curve"/>
			<point x="1124" y="900"/>
			<point x="1186" y="1026"/>
			<point x="1186" y="1120" type="curve" smooth="yes"/>
			<point x="1186" y="1248"/>
			<point x="1064" y="1400"/>
			<point x="712" y="1400" type="curve" smooth="yes"/>
			<point x="418" y="1400"/>
			<point x="244" y="1290"/>
			<point x="244" y="1108" type="curve" smooth="yes"/>
			<point x="244" y="888" type="line"/>
			<point x="110" y="888" type="line"/>
			<point x="110" y="776" type="line"/>
			<point x="244" y="776" type="line"/>
			<point x="244" y="112" type="line"/>
			<point x="199" y="112"/>
			<point x="155" y="112"/>
			<point x="110" y="112" type="curve"/>
			<point x="110" y="0" type="line"/>
			<point x="112" y="0"/>
			<point x="272" y="8"/>
			<point x="354" y="8" type="curve" smooth="yes"/>
			<point x="424" y="8"/>
			<point x="430" y="8"/>
			<point x="484" y="0" type="curve"/>
			<point x="484" y="1106" type="line" smooth="yes"/>
			<point x="484" y="1166"/>
			<point x="484" y="1308"/>
			<point x="710" y="1308" type="curve" smooth="yes"/>
			<point x="898" y="1308"/>
			<point x="926" y="1206"/>
			<point x="926" y="1120" type="curve" smooth="yes"/>
			<point x="926" y="960"/>
			<point x="828" y="894"/>
			<point x="682" y="888" type="curve" smooth="yes"/>
			<point x="648" y="886"/>
			<point x="626" y="886"/>
			<point x="626" y="842" type="curve" smooth="yes"/>
			<point x="626" y="800"/>
			<point x="646" y="798"/>
			<point x="684" y="796" type="curve" smooth="yes"/>
			<point x="996" y="774"/>
			<point x="996" y="438"/>
			<point x="996" y="358" type="curve" smooth="yes"/>
			<point x="996" y="296"/>
			<point x="996" y="80"/>
			<point x="790" y="80" type="curve" smooth="yes"/>
			<point x="776" y="80"/>
			<point x="762" y="82"/>
			<point x="746" y="88" type="curve"/>
			<point x="748" y="90"/>
			<point x="782" y="118"/>
			<point x="782" y="174" type="curve" smooth="yes"/>
			<point x="782" y="242"/>
			<point x="734" y="286"/>
			<point x="670" y="286" type="curve" smooth="yes"/>
			<point x="602" y="286"/>
			<point x="558" y="238"/>
			<point x="558" y="172" type="curve" smooth="yes"/>
			<point x="558" y="86"/>
			<point x="636" y="-12"/>
			<point x="794" y="-12" type="curve" smooth="yes"/>
			<point x="1068" y="-12"/>
			<point x="1256" y="134"/>
			<point x="1256" y="360" type="curve" smooth="yes"/>
			<point x="1256" y="520"/>
			<point x="1184" y="732"/>
		</contour>
	</outline>
</glyph>
<glyph name="ae" format="2">
	<unicode hex="00E6"/>
	<advance width="1862"/>
	<outline>
		<contour>
			<point x="96" y="216" type="curve" smooth="yes"/>
			<point x="96" y="-12"/>
			<point x="438" y="-12"/>
			<point x="514" y="-12" type="curve" smooth="yes"/>
			<point x="634" y="-12"/>
			<point x="860" y="-4"/>
			<point x="966" y="110" type="curve"/>
			<point x="1094" y="14"/>
			<point x="1242" y="-12"/>
			<point x="1374" y="-12" type="curve" smooth="yes"/>
			<point x="1702" y="-12"/>
			<point x="1780" y="198"/>
			<point x="1780" y="228" type="curve" smooth="yes"/>
			<point x="1780" y="272"/>
			<point x="1736" y="272"/>
			<point x="1716" y="272" type="curve" smooth="yes"/>
			<point x="1690" y="272"/>
			<point x="1670" y="272"/>
			<point x="1656" y="242" type="curve" smooth="yes"/>
			<point x="1592" y="96"/>
			<point x="1448" y="90"/>
			<point x="1400" y="90" type="curve" smooth="yes"/>
			<point x="1148" y="90"/>
			<point x="1066" y="244"/>
			<point x="1058" y="416" type="curve"/>
			<point x="1710" y="416" type="line" smooth="yes"/>
			<point x="1754" y="416"/>
			<point x="1780" y="416"/>
			<point x="1780" y="478" type="curve" smooth="yes"/>
			<point x="1780" y="718"/>
			<point x="1650" y="906"/>
			<point x="1340" y="906" type="curve" smooth="yes"/>
			<point x="1168" y="906"/>
			<point x="1044" y="852"/>
			<point x="968" y="794" type="curve"/>
			<point x="838" y="906"/>
			<point x="630" y="906"/>
			<point x="564" y="906" type="curve" smooth="yes"/>
			<point x="438" y="906"/>
			<point x="168" y="904"/>
			<point x="168" y="708" type="curve" smooth="yes"/>
			<point x="168" y="620"/>
			<point x="232" y="568"/>
			<point x="306" y="568" type="curve" smooth="yes"/>
			<point x="394" y="568"/>
			<point x="446" y="630"/>
			<point x="446" y="706" type="curve" smooth="yes"/>
			<point x="446" y="762"/>
			<point x="420" y="786"/>
			<point x="416" y="800" type="curve"/>
			<point x="416" y="810"/>
			<point x="546" y="814"/>
			<point x="560" y="814" type="curve" smooth="yes"/>
			<point x="710" y="814"/>
			<point x="804" y="750"/>
			<point x="804" y="588" type="curve" smooth="yes"/>
			<point x="804" y="494" type="line"/>
			<point x="348" y="484"/>
			<point x="96" y="394"/>
		</contour>
		<contour>
			<point x="548" y="80" type="curve" smooth="yes"/>
			<point x="418" y="80"/>
			<point x="348" y="148"/>
			<point x="348" y="216" type="curve" smooth="yes"/>
			<point x="348" y="378"/>
			<point x="690" y="406"/>
			<point x="806" y="408" type="curve"/>
			<point x="812" y="346"/>
			<point x="828" y="304"/>
			<point x="836" y="282" type="curve"/>
			<point x="844" y="266"/>
			<point x="844" y="264"/>
			<point x="844" y="250" type="curve" smooth="yes"/>
			<point x="844" y="120"/>
			<point x="658" y="80"/>
		</contour>
		<contour>
			<point x="1060" y="500" type="line"/>
			<point x="1060" y="554"/>
			<point x="1066" y="814"/>
			<point x="1342" y="814" type="curve" smooth="yes"/>
			<point x="1542" y="814"/>
			<point x="1578" y="632"/>
			<point x="1582" y="500" type="curve"/>
		</contour>
	</outline>
</glyph>
<glyph name="oslash" format="2">
	<unicode hex="00F8"/>
	<advance width="647"/>
	<outline>
		<contour>
			<point x="122" y="-110" type="line"/>
			<point x="205" y="10" type="line"/>
			<point x="237" y="0"/>
			<point x="279" y="-6"/>
			<point x="323" y="-6" type="curve" smooth="yes"/>
			<point x="518" y="-6"/>
			<point x="606" y="102"/>
			<point x="606" y="218" type="curve" smooth="yes"/>
			<point x="606" y="253"/>
			<point x="599" y="356"/>
			<point x="486" y="418" type="curve"/>
			<point x="561" y="529" type="line"/>
			<point x="524" y="555" type="line"/>
			<point x="442" y="436" type="line"/>
			<point x="394" y="452"/>
			<point x="343" y="453"/>
			<point x="323" y="453" type="curve" smooth="yes"/>
			<point x="125" y="453"/>
			<point x="40" y="336"/>
			<point x="40" y="218" type="curve" smooth="yes"/>
			<point x="40" y="135"/>
			<point x="86" y="62"/>
			<point x="161" y="28" type="curve"/>
			<point x="85" y="-84" type="line"/>
		</contour>
		<contour>
			<point x="323" y="40" type="curve" smooth="yes"/>
			<point x="312" y="40"/>
			<point x="271" y="40"/>
			<point x="237" y="56" type="curve"/>
			<point x="446" y="361" type="line"/>
			<point x="476" y="327"/>
			<point x="479" y="281"/>
			<point x="479" y="219" type="curve" smooth="yes"/>
			<point x="479" y="171.74396"/>
			<point x="479" y="114.0491042893"/>
			<point x="441.4978818356" y="77.1671980049" type="curve" smooth="yes"/>
			<point x="418.6868425604" y="54.7334088223"/>
			<point x="382.00076" y="40"/>
		</contour>
		<contour>
			<point x="199" y="83" type="line"/>
			<point x="167" y="117"/>
			<point x="167" y="172"/>
			<point x="167" y="219" type="curve" smooth="yes"/>
			<point x="167" y="267.23112"/>
			<point x="167" y="329.9609715984"/>
			<point x="206.8718018702" y="369.3624607132" type="curve" smooth="yes"/>
			<point x="229.8278369264" y="392.0477150272"/>
			<point x="266.00072" y="407"/>
			<point x="323" y="407" type="curve" smooth="yes"/>
			<point x="366" y="407"/>
			<point x="398" y="396"/>
			<point x="410" y="390" type="curve"/>
		</contour>
	</outline>
</glyph>
<glyph name="dotlessi" format="2">
	<unicode hex="0131"/>
	<advance width="726"/>
	<outline>
		<contour>
			<point x="508" y="900" type="line"/>
			<point x="140" y="884" type="line"/>
			<point x="140" y="772" type="line"/>
			<point x="254" y="772"/>
			<point x="268" y="772"/>
			<point x="268" y="694" type="curve" smooth="yes"/>
			<point x="268" y="112" type="line"/>
			<point x="268" y="112"/>
			<point x="268" y="112"/>
			<point x="268" y="112" type="curve"/>
			<point x="134" y="112" type="line"/>
			<point x="134" y="0" type="line"/>
			<point x="138" y="0"/>
			<point x="296" y="8"/>
			<point x="386" y="8" type="curve" smooth="yes"/>
			<point x="468" y="8"/>
			<point x="548" y="6"/>
			<point x="630" y="0" type="curve"/>
			<point x="630" y="112" type="line"/>
			<point x="589" y="112"/>
			<point x="549" y="112"/>
			<point x="508" y="112" type="curve"/>
		</contour>
	</outline>
</glyph>
<glyph name="OE" format="2">
	<unicode hex="0152"/>
	<advance width="2608"/>
	<outline>
		<contour>
			<point x="2528" y="538" type="line"/>
			<point x="2402" y="538" type="line"/>
			<point x="2352" y="272"/>
			<point x="2286" y="112"/>
			<point x="1930" y="112" type="curve" smooth="yes"/>
			<point x="1588" y="112" type="line"/>
			<point x="1588" y="112"/>
			<point x="1588" y="112"/>
			<point x="1588" y="112" type="curve"/>
			<point x="1588" y="656" type="line"/>
			<point x="1794" y="656" type="line" smooth="yes"/>
			<point x="1950" y="656"/>
			<point x="2054" y="632"/>
			<point x="2054" y="436" type="curve"/>
			<point x="2180" y="436" type="line"/>
			<point x="2180" y="988" type="line"/>
			<point x="2054" y="988" type="line"/>
			<point x="2054" y="792"/>
			<point x="1950" y="768"/>
			<point x="1794" y="768" type="curve" smooth="yes"/>
			<point x="1588" y="768" type="line"/>
			<point x="1588" y="1260" type="line"/>
			<point x="1588" y="1260"/>
			<point x="1588" y="1260"/>
			<point x="1588" y="1260" type="curve"/>
			<point x="1918" y="1260" type="line" smooth="yes"/>
			<point x="2204" y="1260"/>
			<point x="2294" y="1164"/>
			<point x="2332" y="894" type="curve"/>
			<point x="2458" y="894" type="line"/>
			<point x="2390" y="1372" type="line"/>
			<point x="1440" y="1372" type="line" smooth="yes"/>
			<point x="1426" y="1372"/>
			<point x="1378" y="1372"/>
			<point x="1224" y="1386" type="curve" smooth="yes"/>
			<point x="1112" y="1396"/>
			<point x="1054" y="1396"/>
			<point x="1038" y="1396" type="curve" smooth="yes"/>
			<point x="456" y="1396"/>
			<point x="186" y="1052"/>
			<point x="186" y="678" type="curve" smooth="yes"/>
			<point x="186" y="306"/>
			<point x="460" y="-24"/>
			<point x="1038" y="-24" type="curve" smooth="yes"/>
			<point x="1058" y="-24"/>
			<point x="1112" y="-24"/>
			<point x="1222" y="-14" type="curve" smooth="yes"/>
			<point x="1378" y="0"/>
			<point x="1432" y="0"/>
			<point x="1440" y="0" type="curve" smooth="yes"/>
			<point x="2426" y="0" type="line"/>
		</contour>
		<contour>
			<point x="498" y="710" type="curve" smooth="yes"/>
			<point x="498" y="1046"/>
			<point x="682" y="1304"/>
			<point x="1052" y="1304" type="curve" smooth="yes"/>
			<point x="1238" y="1304"/>
			<point x="1322" y="1272"/>
			<point x="1322" y="972" type="curve" smooth="yes"/>
			<point x="1322" y="888"/>
			<point x="1322" y="804"/>
			<point x="1322" y="720" type="curve"/>
			<point x="1322" y="613"/>
			<point x="1322" y="507"/>
			<point x="1322" y="400" type="curve" smooth="yes"/>
			<point x="1322" y="100"/>
			<point x="1236" y="68"/>
			<point x="1052" y="68" type="curve" smooth="yes"/>
			<point x="680" y="68"/>
			<point x="498" y="356"/>
		</contour>
	</outline>
</glyph>
<glyph name="oe" format="2">
	<unicode hex="0153"/>
	<advance width="2004"/>
	<outline>
		<contour>
			<point x="640" y="-12" type="curve" smooth="yes"/>
			<point x="750" y="-12"/>
			<point x="934" y="4"/>
			<point x="1074" y="140" type="curve"/>
			<point x="1192" y="28"/>
			<point x="1360" y="-12"/>
			<point x="1516" y="-12" type="curve" smooth="yes"/>
			<point x="1844" y="-12"/>
			<point x="1922" y="198"/>
			<point x="1922" y="228" type="curve" smooth="yes"/>
			<point x="1922" y="272"/>
			<point x="1878" y="272"/>
			<point x="1858" y="272" type="curve" smooth="yes"/>
			<point x="1832" y="272"/>
			<point x="1812" y="272"/>
			<point x="1798" y="242" type="curve" smooth="yes"/>
			<point x="1734" y="96"/>
			<point x="1590" y="90"/>
			<point x="1542" y="90" type="curve" smooth="yes"/>
			<point x="1290" y="90"/>
			<point x="1208" y="244"/>
			<point x="1200" y="416" type="curve"/>
			<point x="1852" y="416" type="line" smooth="yes"/>
			<point x="1896" y="416"/>
			<point x="1922" y="416"/>
			<point x="1922" y="478" type="curve" smooth="yes"/>
			<point x="1922" y="740"/>
			<point x="1774" y="906"/>
			<point x="1482" y="906" type="curve" smooth="yes"/>
			<point x="1386" y="906"/>
			<point x="1206" y="890"/>
			<point x="1072" y="760" type="curve"/>
			<point x="956" y="868"/>
			<point x="798" y="906"/>
			<point x="640" y="906" type="curve" smooth="yes"/>
			<point x="250" y="906"/>
			<point x="80" y="678"/>
			<point x="80" y="450" type="curve" smooth="yes"/>
			<point x="80" y="210"/>
			<point x="258" y="-12"/>
		</contour>
		<contour>
			<point x="640" y="80" type="curve" smooth="yes"/>
			<point x="332" y="80"/>
			<point x="332" y="352"/>
			<point x="332" y="458" type="curve" smooth="yes"/>
			<point x="332" y="564"/>
			<point x="332" y="814"/>
			<point x="640" y="814" type="curve" smooth="yes"/>
			<point x="946" y="814"/>
			<point x="946" y="564"/>
			<point x="946" y="458" type="curve" smooth="yes"/>
			<point x="946" y="352"/>
			<point x="946" y="80"/>
		</contour>
		<contour>
			<point x="1202" y="500" type="line"/>
			<point x="1202" y="554"/>
			<point x="1208" y="814"/>
			<point x="1484" y="814" type="curve" smooth="yes"/>
			<point x="1684" y="814"/>
			<point x="1720" y="632"/>
			<point x="1724" y="500" type="curve"/>
		</contour>
	</outline>
</glyph>
<glyph name="circumflex" format="2">
	<unicode hex="02C6"/>
	<advance width="1294"/>
	<outline>
		<contour>
			<point x="646" y="1388" type="line"/>
			<point x="294" y="1144" type="line"/>
			<point x="362" y="1038" type="line"/>
			<point x="646" y="1202" type="line"/>
			<point x="930" y="1038" type="line"/>
			<point x="998" y="1144" type="line"/>
		</contour>
	</outline>
</glyph>
<glyph name="caron" format="2">
	<unicode hex="02C7"/>
	<advance width="647"/>
	<outline>
		<contour>
			<point x="323" y="607" type="line"/>
			<point x="177" y="661" type="line"/>
			<point x="151" y="603" type="line"/>
			<point x="323" y="515" type="line"/>
			<point x="495" y="603" type="line"/>
			<point x="469" y="661" type="line"/>
		</contour>
	</outline>
</glyph>
<glyph name="breve" format="2">
	<unicode hex="02D8"/>
	<advance width="1294"/>
	<outline>
		<contour>
			<point x="954" y="1388" type="line"/>
			<point x="946" y="1208"/>
			<point x="760" y="1152"/>
			<point x="646" y="1152" type="curve" smooth="yes"/>
			<point x="532" y="1152"/>
			<point x="346" y="1208"/>
			<point x="338" y="1388" type="curve"/>
			<point x="246" y="1388" type="line"/>
			<point x="252" y="1146"/>
			<point x="452" y="1006"/>
			<point x="646" y="1006" type="curve" smooth="yes"/>
			<point x="840" y="1006"/>
			<point x="1040" y="1148"/>
			<point x="1046" y="1388" type="curve"/>
		</contour>
	</outline>
</glyph>
<glyph name="dotaccent" format="2">
	<unicode hex="02D9"/>
	<advance width="726"/>
	<outline>
		<contour>
			<point x="526" y="1226" type="curve" smooth="yes"/>
			<point x="526" y="1318"/>
			<point x="452" y="1390"/>
			<point x="362" y="1390" type="curve" smooth="yes"/>
			<point x="270" y="1390"/>
			<point x="198" y="1314"/>
			<point x="198" y="1228" type="curve" smooth="yes"/>
			<point x="198" y="1136"/>
			<point x="272" y="1064"/>
			<point x="362" y="1064" type="curve" smooth="yes"/>
			<point x="454" y="1064"/>
			<point x="526" y="1140"/>
		</contour>
	</outline>
</glyph>
<glyph name="ring" format="2">
	<unicode hex="02DA"/>
	<advance width="1934"/>
	<outline>
		<contour>
			<point x="1244" y="1244" type="curve" smooth="yes"/>
			<point x="1244" y="1326"/>
			<point x="1166" y="1412"/>
			<point x="968" y="1412" type="curve" smooth="yes"/>
			<point x="748" y="1412"/>
			<point x="690" y="1310"/>
			<point x="690" y="1246" type="curve" smooth="yes"/>
			<point x="690" y="1164"/>
			<point x="768" y="1078"/>
			<point x="966" y="1078" type="curve" smooth="yes"/>
			<point x="1186" y="1078"/>
			<point x="1244" y="1180"/>
		</contour>
		<contour>
			<point x="968" y="1162" type="curve" smooth="yes"/>
			<point x="876" y="1162"/>
			<point x="816" y="1162"/>
			<point x="816" y="1244" type="curve" smooth="yes"/>
			<point x="816" y="1328"/>
			<point x="874" y="1328"/>
			<point x="966" y="1328" type="curve" smooth="yes"/>
			<point x="1058" y="1328"/>
			<point x="1118" y="1328"/>
			<point x="1118" y="1246" type="curve" smooth="yes"/>
			<point x="1118" y="1162"/>
			<point x="1060" y="1162"/>
		</contour>
	</outline>
</glyph>
<glyph name="tilde" format="2">
	<unicode hex="02DC"/>
	<advance width="647"/>
	<outline>
		<contour>
			<point x="143" y="562" type="line"/>
			<point x="160" y="579"/>
			<point x="193" y="606"/>
			<point x="234" y="606" type="curve" smooth="yes"/>
			<point x="258" y="606"/>
			<point x="278" y="599"/>
			<point x="314" y="583" type="curve" smooth="yes"/>
			<point x="338" y="572"/>
			<point x="362" y="562"/>
			<point x="389" y="562" type="curve" smooth="yes"/>
			<point x="422.45188" y="562"/>
			<point x="439.7194667588" y="570.6701570935"/>
			<point x="483.8682744551" y="611.740448481" type="curve" smooth="yes"/>
			<point x="497.789373103" y="624.6908226301"/>
			<point x="514.38322" y="640.86268"/>
			<point x="535" y="661" type="curve"/>
			<point x="503" y="694" type="line"/>
			<point x="486" y="677"/>
			<point x="453" y="650"/>
			<point x="412" y="650" type="curve" smooth="yes"/>
			<point x="388" y="650"/>
			<point x="368" y="657"/>
			<point x="332" y="673" type="curve" smooth="yes"/>
			<point x="308" y="684"/>
			<point x="284" y="694"/>
			<point x="257" y="694" type="curve" smooth="yes"/>
			<point x="227.76728" y="694"/>
			<point x="210.8937819632" y="687.378988234"/>
			<point x="177.6402362819" y="658.3010406325" type="curve" smooth="yes"/>
			<point x="160.841785092" y="643.6119458764"/>
			<point x="139.86332" y="623.19208"/>
			<point x="111" y="595" type="curve"/>
		</contour>
	</outline>
</glyph>
<glyph name="hungarumlaut" format="2">
	<unicode hex="02DD"/>
	<advance width="1294"/>
	<outline>
		<contour>
			<point x="312" y="1092" type="line"/>
			<point x="414" y="1016" type="line"/>
			<point x="481" y="1071"/>
			<point x="547" y="1127"/>
			<point x="614" y="1182" type="curve" smooth="yes"/>
			<point x="636" y="1200"/>
			<point x="672" y="1230"/>
			<point x="672" y="1286" type="curve" smooth="yes"/>
			<point x="672" y="1362"/>
			<point x="594" y="1422"/>
			<point x="528" y="1422" type="curve" smooth="yes"/>
			<point x="458" y="1422"/>
			<point x="424" y="1360"/>
			<point x="414" y="1336" type="curve" smooth="yes"/>
		</contour>
		<contour>
			<point x="738" y="1092" type="line"/>
			<point x="772" y="1067"/>
			<point x="806" y="1041"/>
			<point x="840" y="1016" type="curve"/>
			<point x="907" y="1071"/>
			<point x="973" y="1127"/>
			<point x="1040" y="1182" type="curve" smooth="yes"/>
			<point x="1062" y="1200"/>
			<point x="1098" y="1230"/>
			<point x="1098" y="1286" type="curve" smooth="yes"/>
			<point x="1098" y="1362"/>
			<point x="1020" y="1422"/>
			<point x="954" y="1422" type="curve" smooth="yes"/>
			<point x="884" y="1422"/>
			<point x="850" y="1360"/>
			<point x="840" y="1336" type="curve" smooth="yes"/>
		</contour>
	</outline>
</glyph>
<glyph name="Xi" format="2">
  <advance width="860"/>
  <unicode hex="039E"/>
  <outline>
    <contour>
      <point x="785" y="673" type="line"/>
      <point x="74" y="673" type="line"/>
      <point x="64" y="472" type="line"/>
      <point x="127" y="472" type="line"/>
      <point x="128" y="492"/>
      <point x="130" y="533"/>
      <point x="142" y="546" type="curve"/>
      <point x="150" y="553"/>
      <point x="213" y="553"/>
      <point x="226" y="553" type="curve" smooth="yes"/>
      <point x="633" y="553" type="line" smooth="yes"/>
      <point x="645" y="553"/>
      <point x="707" y="552"/>
      <point x="714" y="547" type="curve"/>
      <point x="729" y="538"/>
      <point x="731" y="491"/>
      <point x="732" y="472" type="curve"/>
      <point x="795" y="472" type="line"/>
    </contour>
    <contour>
      <point x="67" y="0" type="line"/>
      <point x="792" y="0" type="line"/>
      <point x="802" y="211" type="line"/>
      <point x="739" y="211" type="line"/>
      <point x="738" y="192"/>
      <point x="736" y="139"/>
      <point x="722" y="128" type="curve"/>
      <point x="714" y="120"/>
      <point x="649" y="120"/>
      <point x="635" y="120" type="curve" smooth="yes"/>
      <point x="224" y="120" type="line" smooth="yes"/>
      <point x="213" y="120"/>
      <point x="141" y="120"/>
      <point x="135" y="130" type="curve"/>
      <point x="125" y="143"/>
      <point x="122" y="170"/>
      <point x="120" y="211" type="curve"/>
      <point x="57" y="211" type="line"/>
    </contour>
    <contour>
      <point x="677" y="451" type="line"/>
      <point x="614" y="451" type="line"/>
      <point x="614" y="410" type="line"/>
      <point x="245" y="410" type="line"/>
      <point x="245" y="451" type="line"/>
      <point x="182" y="451" type="line"/>
      <point x="182" y="249" type="line"/>
      <point x="245" y="249" type="line"/>
      <point x="245" y="290" type="line"/>
      <point x="614" y="290" type="line"/>
      <point x="614" y="249" type="line"/>
      <point x="677" y="249" type="line"/>
    </contour>
  </outline>
</glyph>
<glyph name="Upsilon" format="2">
  <advance width="1002"/>
  <unicode hex="03A5"/>
  <outline>
    <contour>
      <point x="576" y="343" type="line" smooth="yes"/>
      <point x="576" y="411"/>
      <point x="605" y="576"/>
      <point x="760" y="576" type="curve" smooth="yes"/>
      <point x="848" y="576"/>
      <point x="853" y="561"/>
      <point x="855" y="551" type="curve" smooth="yes"/>
      <point x="859" y="528"/>
      <point x="866" y="527"/>
      <point x="890" y="527" type="curve" smooth="yes"/>
      <point x="910" y="527"/>
      <point x="926" y="527"/>
      <point x="926" y="553" type="curve" smooth="yes"/>
      <point x="926" y="626"/>
      <point x="852" y="698"/>
      <point x="748" y="698" type="curve" smooth="yes"/>
      <point x="609" y="698"/>
      <point x="527" y="575"/>
      <point x="501" y="467" type="curve"/>
      <point x="500" y="467" type="line"/>
      <point x="468" y="590"/>
      <point x="383" y="698"/>
      <point x="253" y="698" type="curve" smooth="yes"/>
      <point x="149" y="698"/>
      <point x="75" y="626"/>
      <point x="75" y="553" type="curve" smooth="yes"/>
      <point x="75" y="527"/>
      <point x="91" y="527"/>
      <point x="111" y="527" type="curve" smooth="yes"/>
      <point x="134" y="527"/>
      <point x="142" y="527"/>
      <point x="146" y="551" type="curve" smooth="yes"/>
      <point x="148" y="561"/>
      <point x="155" y="576"/>
      <point x="241" y="576" type="curve" smooth="yes"/>
      <point x="396" y="576"/>
      <point x="425" y="412"/>
      <point x="425" y="343" type="curve" smooth="yes"/>
      <point x="425" y="56" type="line"/>
      <point x="291" y="56" type="line"/>
      <point x="291" y="0" type="line"/>
      <point x="339" y="4"/>
      <point x="448" y="4"/>
      <point x="500" y="4" type="curve" smooth="yes"/>
      <point x="552" y="4"/>
      <point x="662" y="4"/>
      <point x="710" y="0" type="curve"/>
      <point x="710" y="56" type="line"/>
      <point x="576" y="56" type="line"/>
    </contour>
  </outline>
</glyph>
<glyph name="endash" format="2">
	<unicode hex="2013"/>
	<advance width="647"/>
	<outline>
		<contour>
			<point x="642" y="251" type="line"/>
			<point x="642" y="297" type="line"/>
			<point x="4" y="297" type="line"/>
			<point x="4" y="251" type="line"/>
		</contour>
	</outline>
</glyph>
<glyph name="emdash" format="2">
	<unicode hex="2014"/>
	<advance width="2588"/>
	<outline>
		<contour>
			<point x="2570" y="502" type="line"/>
			<point x="2570" y="594" type="line"/>
			<point x="16" y="594" type="line"/>
			<point x="16" y="502" type="line"/>
		</contour>
	</outline>
</glyph>
<glyph name="quoteleft" format="2">
	<unicode hex="2018"/>
	<advance width="726"/>
	<outline>
		<contour>
			<point x="364" y="674" type="curve" smooth="yes"/>
			<point x="466" y="674"/>
			<point x="526" y="752"/>
			<point x="526" y="836" type="curve" smooth="yes"/>
			<point x="526" y="922"/>
			<point x="466" y="1000"/>
			<point x="362" y="1000" type="curve" smooth="yes"/>
			<point x="300" y="1000"/>
			<point x="260" y="966"/>
			<point x="258" y="966" type="curve"/>
			<point x="274" y="1142"/>
			<point x="372" y="1242"/>
			<point x="452" y="1302" type="curve"/>
			<point x="464" y="1312"/>
			<point x="476" y="1320"/>
			<point x="476" y="1338" type="curve" smooth="yes"/>
			<point x="476" y="1358"/>
			<point x="448" y="1388"/>
			<point x="426" y="1388" type="curve" smooth="yes"/>
			<point x="392" y="1388"/>
			<point x="164" y="1218"/>
			<point x="164" y="932" type="curve" smooth="yes"/>
			<point x="164" y="790"/>
			<point x="242" y="674"/>
		</contour>
	</outline>
</glyph>
<glyph name="quoteright" format="2">
	<unicode hex="2019"/>
	<advance width="363"/>
	<outline>
		<contour>
			<point x="150" y="337" type="curve" smooth="yes"/>
			<point x="167" y="337"/>
			<point x="281" y="422"/>
			<point x="281" y="565" type="curve" smooth="yes"/>
			<point x="281" y="636"/>
			<point x="242" y="694"/>
			<point x="181" y="694" type="curve" smooth="yes"/>
			<point x="130" y="694"/>
			<point x="100" y="655"/>
			<point x="100" y="613" type="curve" smooth="yes"/>
			<point x="100" y="570"/>
			<point x="130" y="531"/>
			<point x="182" y="531" type="curve" smooth="yes"/>
			<point x="213" y="531"/>
			<point x="233" y="548"/>
			<point x="234" y="548" type="curve"/>
			<point x="226" y="460"/>
			<point x="177" y="410"/>
			<point x="137" y="380" type="curve"/>
			<point x="131" y="375"/>
			<point x="125" y="371"/>
			<point x="125" y="362" type="curve" smooth="yes"/>
			<point x="125" y="352"/>
			<point x="139" y="337"/>
		</contour>
	</outline>
</glyph>
<glyph name="quotedblleft" format="2">
	<unicode hex="201C"/>
	<advance width="1334"/>
	<outline>
		<contour>
			<point x="538" y="674" type="curve" smooth="yes"/>
			<point x="640" y="674"/>
			<point x="700" y="752"/>
			<point x="700" y="836" type="curve" smooth="yes"/>
			<point x="700" y="922"/>
			<point x="640" y="1000"/>
			<point x="536" y="1000" type="curve" smooth="yes"/>
			<point x="474" y="1000"/>
			<point x="434" y="966"/>
			<point x="432" y="966" type="curve"/>
			<point x="448" y="1142"/>
			<point x="546" y="1242"/>
			<point x="626" y="1302" type="curve"/>
			<point x="638" y="1312"/>
			<point x="650" y="1320"/>
			<point x="650" y="1338" type="curve" smooth="yes"/>
			<point x="650" y="1358"/>
			<point x="622" y="1388"/>
			<point x="600" y="1388" type="curve" smooth="yes"/>
			<point x="566" y="1388"/>
			<point x="338" y="1218"/>
			<point x="338" y="932" type="curve" smooth="yes"/>
			<point x="338" y="790"/>
			<point x="416" y="674"/>
		</contour>
		<contour>
			<point x="1078" y="674" type="curve" smooth="yes"/>
			<point x="1180" y="674"/>
			<point x="1240" y="752"/>
			<point x="1240" y="836" type="curve" smooth="yes"/>
			<point x="1240" y="922"/>
			<point x="1180" y="1000"/>
			<point x="1076" y="1000" type="curve" smooth="yes"/>
			<point x="1014" y="1000"/>
			<point x="974" y="966"/>
			<point x="972" y="966" type="curve"/>
			<point x="988" y="1142"/>
			<point x="1086" y="1242"/>
			<point x="1166" y="1302" type="curve"/>
			<point x="1178" y="1312"/>
			<point x="1190" y="1320"/>
			<point x="1190" y="1338" type="curve" smooth="yes"/>
			<point x="1190" y="1358"/>
			<point x="1162" y="1388"/>
			<point x="1140" y="1388" type="curve" smooth="yes"/>
			<point x="1106" y="1388"/>
			<point x="878" y="1218"/>
			<point x="878" y="932" type="curve" smooth="yes"/>
			<point x="878" y="790"/>
			<point x="956" y="674"/>
		</contour>
	</outline>
</glyph>
<glyph name="quotedblright" format="2">
	<unicode hex="201D"/>
	<advance width="1334"/>
	<outline>
		<contour>
			<point x="194" y="674" type="curve" smooth="yes"/>
			<point x="228" y="674"/>
			<point x="456" y="844"/>
			<point x="456" y="1130" type="curve" smooth="yes"/>
			<point x="456" y="1272"/>
			<point x="378" y="1388"/>
			<point x="256" y="1388" type="curve" smooth="yes"/>
			<point x="154" y="1388"/>
			<point x="94" y="1310"/>
			<point x="94" y="1226" type="curve" smooth="yes"/>
			<point x="94" y="1140"/>
			<point x="154" y="1062"/>
			<point x="258" y="1062" type="curve" smooth="yes"/>
			<point x="320" y="1062"/>
			<point x="360" y="1096"/>
			<point x="362" y="1096" type="curve"/>
			<point x="346" y="920"/>
			<point x="248" y="820"/>
			<point x="168" y="760" type="curve"/>
			<point x="156" y="750"/>
			<point x="144" y="742"/>
			<point x="144" y="724" type="curve" smooth="yes"/>
			<point x="144" y="704"/>
			<point x="172" y="674"/>
		</contour>
		<contour>
			<point x="734" y="674" type="curve" smooth="yes"/>
			<point x="768" y="674"/>
			<point x="996" y="844"/>
			<point x="996" y="1130" type="curve" smooth="yes"/>
			<point x="996" y="1272"/>
			<point x="918" y="1388"/>
			<point x="796" y="1388" type="curve" smooth="yes"/>
			<point x="694" y="1388"/>
			<point x="634" y="1310"/>
			<point x="634" y="1226" type="curve" smooth="yes"/>
			<point x="634" y="1140"/>
			<point x="694" y="1062"/>
			<point x="798" y="1062" type="curve" smooth="yes"/>
			<point x="860" y="1062"/>
			<point x="900" y="1096"/>
			<point x="902" y="1096" type="curve"/>
			<point x="886" y="920"/>
			<point x="788" y="820"/>
			<point x="708" y="760" type="curve"/>
			<point x="696" y="750"/>
			<point x="684" y="742"/>
			<point x="684" y="724" type="curve" smooth="yes"/>
			<point x="684" y="704"/>
			<point x="712" y="674"/>
		</contour>
	</outline>
</glyph>
<glyph name="a.alt" format="2">
  <advance width="629"/>
  <outline>
    <contour>
      <point x="41" y="115" type="curve" smooth="yes"/>
      <point x="41" y="22"/>
      <point x="151" y="-6"/>
      <point x="251" y="-6" type="curve" smooth="yes"/>
      <point x="357" y="-6"/>
      <point x="404" y="42"/>
      <point x="421" y="68" type="curve"/>
      <point x="421" y="25"/>
      <point x="448" y="0"/>
      <point x="530" y="0" type="curve" smooth="yes"/>
      <point x="549.647" y="0.0"/>
      <point x="569.294" y="0.0"/>
      <point x="589" y="0" type="curve" smooth="yes"/>
      <point x="608" y="0"/>
      <point x="624" y="0"/>
      <point x="624" y="28" type="curve" smooth="yes"/>
      <point x="624" y="56"/>
      <point x="609" y="56"/>
      <point x="588" y="56" type="curve" smooth="yes"/>
      <point x="528" y="56"/>
      <point x="528" y="64"/>
      <point x="528" y="87" type="curve" smooth="yes"/>
      <point x="528" y="295" type="line" smooth="yes"/>
      <point x="528" y="342"/>
      <point x="507" y="386"/>
      <point x="457" y="416" type="curve" smooth="yes"/>
      <point x="418" y="439"/>
      <point x="361" y="453"/>
      <point x="282" y="453" type="curve" smooth="yes"/>
      <point x="224" y="453"/>
      <point x="84" y="453"/>
      <point x="84" y="354" type="curve" smooth="yes"/>
      <point x="84" y="310"/>
      <point x="116" y="284"/>
      <point x="153" y="284" type="curve" smooth="yes"/>
      <point x="197" y="284"/>
      <point x="223" y="315"/>
      <point x="223" y="353" type="curve" smooth="yes"/>
      <point x="223" y="384"/>
      <point x="210" y="397"/>
      <point x="208" y="400" type="curve"/>
      <point x="208" y="405"/>
      <point x="272" y="407"/>
      <point x="279" y="407" type="curve" smooth="yes"/>
      <point x="349" y="407"/>
      <point x="401" y="379"/>
      <point x="401" y="294" type="curve" smooth="yes"/>
      <point x="401" y="267" type="line"/>
      <point x="379" y="267"/>
      <point x="300" y="267"/>
      <point x="221" y="251" type="curve" smooth="yes"/>
      <point x="131" y="233"/>
      <point x="41" y="195"/>
    </contour>
    <contour>
      <point x="401" y="137" type="line" smooth="yes"/>
      <point x="401" y="116"/>
      <point x="401" y="87"/>
      <point x="362" y="63" type="curve" smooth="yes"/>
      <point x="324" y="40"/>
      <point x="277" y="40"/>
      <point x="271" y="40" type="curve" smooth="yes"/>
      <point x="215" y="40"/>
      <point x="167" y="71"/>
      <point x="167" y="116" type="curve" smooth="yes"/>
      <point x="167" y="198"/>
      <point x="301" y="225"/>
      <point x="401" y="228" type="curve"/>
    </contour>
  </outline>
</glyph>
<glyph name="dotlessj" format="2">
	<advance width="398"/>
	<outline>
		<contour>
			<point x="184" y="346" type="curve" smooth="yes"/>
			<point x="184" y="-36" type="line" smooth="yes"/>
			<point x="184" y="-103"/>
			<point x="155" y="-154"/>
			<point x="102" y="-154" type="curve" smooth="yes"/>
			<point x="98" y="-154"/>
			<point x="68" y="-152"/>
			<point x="68" y="-149" type="curve"/>
			<point x="68" y="-145"/>
			<point x="84" y="-132"/>
			<point x="84" y="-101" type="curve" smooth="yes"/>
			<point x="84" y="-60"/>
			<point x="53" y="-32"/>
			<point x="15" y="-32" type="curve" smooth="yes"/>
			<point x="-27" y="-32"/>
			<point x="-55" y="-63"/>
			<point x="-55" y="-101" type="curve" smooth="yes"/>
			<point x="-55" y="-170"/>
			<point x="18" y="-200"/>
			<point x="103" y="-200" type="curve" smooth="yes"/>
			<point x="193" y="-200"/>
			<point x="304" y="-152"/>
			<point x="304" y="-38" type="curve" smooth="yes"/>
			<point x="304" y="450" type="line"/>
			<point x="110" y="442" type="line"/>
			<point x="110" y="386" type="line"/>
			<point x="176" y="386"/>
			<point x="184" y="386"/>
		</contour>
	</outline>
</glyph>
